<?xml version="1.0" encoding="utf-8"?>
<svg version="1.1" xmlns:xlink="http://www.w3.org/1999/xlink" width="13px" height="15px" xmlns="http://www.w3.org/2000/svg">
  <g transform="matrix(1 0 0 1 -932 -123 )">
    <path d="M 1.36045457932412 4.48121965555442  C 1.36045457932412 4.19900469058694  1.58210933632396 3.97021674453413  1.85555132549157 3.97018993895258  L 11.1444486745084 3.97018993895257  C 11.417890663676 3.97021674453413  11.6395454206759 4.19900469058694  11.6395454206759 4.48121965555442  C 11.6395454206759 4.50051480122358  11.6384865909785 4.51979446151911  11.6363740179512 4.53896602151382  L 10.5406208271155 14.5040456579774  C 10.512168172353 14.7622529790238  10.3004888739432 14.9573043295992  10.0486954836728 14.9573290132302  L 2.95130451632725 14.9573290132302  C 2.69951112605681 14.9573043295992  2.48783182764696 14.7622529790238  2.45937917288448 14.5040456579774  L 1.36362598204881 4.53896602151382  C 1.36151340902148 4.51979446151912  1.36045457932412 4.50051480122356  1.36045457932412 4.48121965555442  Z M 9.96600647713307 0.511029718907035  L 9.96600647713307 1.78860403089667  L 12.4417253873332 1.78860403089667  C 12.7151857439763 1.78860403089667  12.9368691636675 2.01739982934103  12.9368691636675 2.29963374980371  L 12.9368691636675 2.55514862397927  C 12.9368691636675 2.83738254444194  12.7151857439763 3.06617834288631  12.4417253873332 3  L 0.558274612666784 3  C 0.284814256023738 3.06617834288631  0.063130836332514 2.83738254444194  0.0631308363325141 2.55514862397927  L 0.063130836332514 2.29963376452575  C 0.0631308363325139 2.01739982934103  0.284814256023737 1.78860403089667  0.558274612666783 1.78860403089667  L 3.03399352286692 1.78860403089667  L 3.03399352286692 0.511029718907035  C 3.03399352286692 -0.170343239635679  3.03399352286692 1.19240267744975  3.03399352286692 0.511029718907035  C 3.03399352286692 0.228795798444363  3.25567694255815 0  3.52913729920119 0  L 9.47086268653441 0  C 9.74432305744185 0  9.96600647713307 0.228795798444363  9.96600647713307 0.511029718907035  Z M 4.27185297796699 1.78860403089667  L 8.72814702203301 1.78860403089667  L 8.728147022033 1.27757431198964  C 8.728147022033 1.1364573517583  8.61730531218739 1.02205945253612  8.48057513386587 1.02205945253612  L 4.51942486613413 1.02205945253612  C 4.3826946878126 1.02205945253612  4.27185297796699 1.1364573517583  4.27185297796699 1.27757431198964  L 4.27185297796699 1.78860403089667  Z " fill-rule="nonzero" fill="#d8d8d8" stroke="none" transform="matrix(1 0 0 1 932 123 )" />
  </g>
</svg>