<?xml version="1.0" encoding="utf-8"?>
<svg version="1.1" xmlns:xlink="http://www.w3.org/1999/xlink" width="6px" height="6px" xmlns="http://www.w3.org/2000/svg">
  <g transform="matrix(1 0 0 1 -337 -65 )">
    <path d="M 1.06130514705882 5.89889171511628  C 1.06130514705882 5.92478197674419  1.05441176470588 5.95339752906977  1.05027573529412 5.98065043604651  C 0.722150735294118 5.98065043604651  0.394025735294117 5.97928779069767  0.0659007352941176 5.97928779069767  C 0.0645220588235294 5.95476017441861  0.0617647058823539 5.93023255813953  0.0617647058823539 5.90570494186047  L 0.0617647058823539 0.166242732558139  C 0.0617647058823539 0.0667696220930233  0.0617647058823539 0.0667696220930233  0.163786764705882 0.0667696220930233  L 3.525 0.0667696220930233  C 3.62288602941177 0.0667696220930233  3.62288602941177 0.0667696220930233  3.62288602941177 0.163517441860465  C 3.62426470588235 1.0546875  3.62702205882353 1.94585755813954  3.62840073529412 2.83702761627907  L 3.62840073529412 2.90652252906977  L 4.98501838235294 2.90652252906977  L 4.98501838235294 2.82885174418605  C 4.98501838235294 1.93495639534884  4.98639705882353 1.04242369186046  4.98363970588235 0.148528343023256  C 4.98363970588235 0.0831213662790708  5.0015625 0.0654069767441861  5.06636029411765 0.0667696220930233  C 5.34623161764706 0.0708575581395339  5.62610294117647 0.0681322674418605  5.90597426470588 0.0681322674418605  C 5.92803308823529 0.0681322674418605  5.95009191176471 0.0694949127906987  5.97904411764706 0.0708575581395359  C 5.98042279411765 0.09811046511628  5.98318014705882 0.122638081395349  5.98318014705882 0.145803052325582  C 5.98318014705882 1.36809593023256  5.98318014705882 2.59038880813953  5.98455882352941 3.81268168604651  C 5.98455882352941 3.88081395348837  5.96387867647059 3.90125363372093  5.89494485294118 3.89989098837209  C 4.83887867647059 3.89852834302326  3.78143382352941 3.89852834302326  2.72536764705882 3.89852834302326  C 2.63575367647059 3.89852834302326  2.63575367647059 3.89852834302326  2.63575367647059 3.80723110465116  L 2.63575367647059 1.0655886627907  L 1.06130514705882 1.0655886627907  L 1.06130514705882 5.89889171511628  Z " fill-rule="nonzero" fill="#ffffff" stroke="none" transform="matrix(1 0 0 1 337 65 )" />
  </g>
</svg>