<?xml version="1.0" encoding="utf-8"?>
<svg version="1.1" xmlns:xlink="http://www.w3.org/1999/xlink" width="13px" height="13px" xmlns="http://www.w3.org/2000/svg">
  <g transform="matrix(1 0 0 1 -330 -58 )">
    <path d="M 12.9829799107143 12.9453125  C 12.9829799107143 12.955078125  12.9815848214286 12.9662388392857  12.9801897321429 12.9787946428571  L 11.9757254464286 12.9787946428571  C 11.9743303571429 12.7193080357143  11.9729352678571 12.4584263392857  11.9729352678571 12.1989397321429  L 11.9729352678571 11.2293526785714  L 12.9773995535714 11.2293526785714  C 12.9801897321429 11.24609375  12.9829799107143 11.2628348214286  12.9829799107143 11.2809709821429  L 12.9829799107143 12.9453125  Z M 10.6015625 12.90625  C 10.6001674107143 12.9299665178571  10.5931919642857 12.955078125  10.5904017857143 12.9801897321429  C 10.2625558035714 12.9801897321429  9.93470982142857 12.9815848214286  9.60686383928572 12.9815848214286  C 9.60267857142857 12.96484375  9.59709821428571 12.9467075892857  9.59709821428571 12.9299665178571  L 9.59709821428571 11.2712053571429  C 9.59709821428571 11.2600446428571  9.59849330357143 11.2488839285714  9.60128348214286 11.2307477678571  L 10.5931919642857 11.2307477678571  C 10.5959821428571 11.2600446428571  10.6015625 11.2921316964286  10.6015625 11.3228236607143  L 10.6015625 12.90625  Z M 6.02706473214286 0.00446428571428571  L 0.0114397321428571 0.00446428571428571  L 0.0114397321428571 6.02008928571429  L 6.02706473214286 6.02008928571429  L 6.02706473214286 0.00446428571428571  Z M 5.01981026785714 1.01171875  L 5.01981026785714 5.01283482142857  L 1.01869419642857 5.01283482142857  L 1.01869419642857 1.01171875  L 5.01981026785714 1.01171875  Z " fill-rule="nonzero" fill="#ffffff" stroke="none" transform="matrix(1 0 0 1 330 58 )" />
  </g>
</svg>