<?xml version="1.0" encoding="utf-8"?>
<svg version="1.1" xmlns:xlink="http://www.w3.org/1999/xlink" width="13px" height="11px" xmlns="http://www.w3.org/2000/svg">
  <g transform="matrix(1 0 0 1 -281 -58 )">
    <path d="M 10.5129036458333 6.31791015625  L 10.5201822916667 6.317845703125  C 10.7514485677083 6.317845703125  10.9394026692708 6.5062421875  10.943359375 6.740142578125  L 10.943359375 9.345703125  C 10.943359375 9.67462890625  10.6833805338542 9.941873046875  10.3607080078125 9.9471796875  L 10.3509114583333 9.947265625  L 2.64908854166667 9.947265625  C 2.325146484375 9.947265625  2.06195149739583 9.683287109375  2.056640625 9.355650390625  L 2.056640625 6.76942578125  C 2.056640625 6.532109375  2.24609700520833 6.33973828125  2.47981770833333 6.33973828125  C 2.711083984375 6.33973828125  2.8990380859375 6.52811328125  2.90293131510417 6.762013671875  L 2.90299479166667 6.76942578125  L 2.90299479166667 9.087890625  L 10.0970052083333 9.087890625  L 10.0970052083333 6.747533203125  C 10.0970052083333 6.512708984375  10.2825472005208 6.32186328125  10.5129036458333 6.31791015625  Z M 1.46419270833333 5  L 11.5358072916667 5  C 11.7695279947917 5.0703125  11.958984375 5.26268359375  11.958984375 5.5  C 11.958984375 5.73731640625  11.7695279947917 5.9296875  11.5358072916667 6  L 1.46419270833333 6  C 1.23047200520833 5.9296875  1.041015625 5.73731640625  1.041015625 5.5  C 1.041015625 5.26268359375  1.23047200520833 5.0703125  1.46419270833333 5  Z M 2.64908854166667 1.052734375  L 10.3509114583333 1.052734375  C 10.674853515625 1.052734375  10.9380485026042 1.316712890625  10.943359375 1.644349609375  L 10.943359375 4.145560546875  C 10.943359375 4.382876953125  10.7539029947917 4.575248046875  10.5201822916667 4.575248046875  C 10.288916015625 4.575248046875  10.1009619140625 4.386873046875  10.0970686848958 4.15297265625  L 10.0970052083333 4.145560546875  L 10.0970052083333 1.912109375  L 2.90299479166667 1.912109375  L 2.90299479166667 4.199443359375  C 2.90299479166667 4.434267578125  2.71745279947917 4.62511328125  2.48709635416667 4.62906640625  L 2.47981770833333 4.629130859375  C 2.24855143229167 4.629130859375  2.06059733072917 4.440712890625  2.056640625 4.206833984375  L 2.056640625 1.654296875  C 2.056640625 1.32537109375  2.31661946614583 1.058126953125  2.6392919921875 1.0528203125  L 2.64908854166667 1.052734375  Z " fill-rule="nonzero" fill="#ffffff" stroke="none" transform="matrix(1 0 0 1 281 58 )" />
  </g>
</svg>