<?xml version="1.0" encoding="utf-8"?>
<svg version="1.1" xmlns:xlink="http://www.w3.org/1999/xlink" width="13px" height="13px" xmlns="http://www.w3.org/2000/svg">
  <g transform="matrix(1 0 0 1 -232 -57 )">
    <path d="M 12.9876724137931 3.25565217391304  C 12.9876724137931 2.82049981580723  12.6379527688118 2.46773913043478  12.2065517241379 2.46773913043478  L 7.86275862068966 2.46773913043478  L 9.23336206896552 1.12591304347826  C 9.35776993055842 1.00413962578289  9.42797972811294 0.836733380033685  9.42797972811294 0.661872228532629  C 9.42797972811294 0.493657898117945  9.36299203947516 0.332064843556021  9.24681034482759 0.211391304347826  C 9.12608669797443 0.0859016352628151  8.96012360951616 0.0150813177295548  8.78676988173494 0.0150813177295548  C 8.62000567485831 0.0150813177295548  8.4598056638702 0.0806341167033135  8.34017241379311 0.197826086956522  L 6.44172413793103 2.05739130434783  L 4.73155172413793 0.219304347826087  C 4.48947398716078 -0.040876695876593  4.08419423195146 -0.0540312776857988  3.82603448275862 0.189913043478262  C 3.69706269772493 0.311933510022803  3.62389482220719 0.48234596639798  3.62389482220719 0.660708673960406  C 3.62389482220719 0.825232884642615  3.68617774275672 0.983547657214727  3.79801724137931 1.10330434782609  L 5.06551724137931 2.46773913043478  L 0.845 2.46773913043478  C 0.41353448275862 2.46773913043478  0.0649999999999998 2.8204347826087  0.0649999999999998 3.25452173913043  L 0.0649999999999998 5.09373913043478  C 0.0649999999999998 5.52895652173913  0.414655172413793 5.88052173913044  0.845 5.88052173913044  L 1.44120689655172 5.88052173913044  L 1.44120689655172 11.1517391304348  C 1.44120689655172 12.147652173913  2.2425 12.9559130434783  3.2298275862069 12.9559130434783  L 9.82284482758621 12.9559130434783  C 10.8101724137931 12.9559130434783  11.6114655172414 12.147652173913  11.6114655172414 11.1517391304348  L 11.6114655172414 5.88165217391304  L 12.2076724137931 5.88165217391304  C 12.6391379310345 5.88165217391304  12.9876724137931 5.52895652173913  12.9876724137931 5.09486956521739  L 12.9876724137931 3.25565217391304  Z M 7.16681034482759 7.86217391304348  L 7.16681034482759 10.0201739130435  C 7.16681034482759 10.3773913043478  6.87991379310345 10.6667826086957  6.52577586206897 10.6667826086957  C 6.17163793103449 10.6667826086957  5.88474137931035 10.3773913043478  5.88474137931035 10.0201739130435  L 5.88474137931035 7.86217391304348  C 5.88474137931035 7.50495652173913  6.17163793103448 7.2155652173913  6.52577586206897 7.2155652173913  C 6.87991379310345 7.2155652173913  7.16681034482759 7.50495652173913  7.16681034482759 7.86217391304348  Z " fill-rule="nonzero" fill="#ffffff" stroke="none" transform="matrix(1 0 0 1 232 57 )" />
  </g>
</svg>