<?xml version="1.0" encoding="utf-8"?>
<svg version="1.1" xmlns:xlink="http://www.w3.org/1999/xlink" width="12px" height="13px" xmlns="http://www.w3.org/2000/svg">
  <g transform="matrix(1 0 0 1 -232 -57 )">
    <path d="M 11.6116363636364 5.88052173913044  C 11.8863279779621 4.76670286806017  11.9690526743103 3.61136973745176  11.856 2.46773913043478  L 7.65381818181818 2.46773913043478  L 8.988 1.12591304347826  C 9.1091019184177 1.00413962578289  9.17744600107218 0.836733380033685  9.17744600107218 0.661872228532629  C 9.17744600107218 0.493657898117944  9.11418525800659 0.332064843556021  9.00109090909091 0.211391304347826  C 8.88357530320307 0.0859016352628151  8.72202242268985 0.0150813177295548  8.55327529746506 0.0150813177295548  C 8.39094258699494 0.0150813177295548  8.23499963923588 0.0806341167033135  8.11854545454546 0.197826086956522  L 6.27054545454545 2.05739130434783  L 4.60581818181818 0.219304347826087  C 4.37017327980965 -0.040876695876593  3.97566319641708 -0.0540312776857988  3.72436363636364 0.189913043478262  C 3.59881907358958 0.311933510022803  3.52759551923944 0.48234596639798  3.52759551923944 0.660708673960406  C 3.52759551923944 0.825232884642615  3.58822336917297 0.983547657214727  3.69709090909091 1.10330434782609  L 4.93090909090909 2.46773913043478  L 0.822545454545454 2.46773913043478  C 0.403636363636363 2.46773913043478  0.0632727272727271 2.8204347826087  0.0632727272727271 3.25452173913043  L 0.0632727272727271 5.09373913043478  C 0.0632727272727271 5.52895652173913  0.403636363636363 5.88052173913044  0.822545454545454 5.88052173913044  L 1.40290909090909 5.88052173913044  L 1.40290909090909 11.1517391304348  C 1.40290909090909 12.147652173913  2.18290909090909 12.9559130434783  3.144 12.9559130434783  L 4.52727272727273 12.9559130434783  C 7.65163636363636 12.251652173913  10.1934545454545 9.93652173913044  11.3029090909091 6.89  L 11.3029090909091 5.88052173913044  L 11.6116363636364 5.88052173913044  Z M 6.97636363636364 7.86217391304348  L 6.97636363636364 10.0201739130435  C 6.97636363636364 10.3773913043478  6.69709090909091 10.6667826086957  6.35236363636364 10.6667826086957  C 6.00763636363636 10.6667826086957  5.72836363636364 10.3773913043478  5.72836363636364 10.0201739130435  L 5.72836363636364 7.86217391304348  C 5.72836363636364 7.50495652173913  6.00763636363636 7.2155652173913  6.35236363636364 7.2155652173913  C 6.69709090909091 7.2155652173913  6.97636363636364 7.50495652173913  6.97636363636364 7.86217391304348  Z " fill-rule="nonzero" fill="#ffffff" stroke="none" transform="matrix(1 0 0 1 232 57 )" />
  </g>
</svg>