<?xml version="1.0" encoding="utf-8"?>
<svg version="1.1" xmlns:xlink="http://www.w3.org/1999/xlink" width="10px" height="10px" xmlns="http://www.w3.org/2000/svg">
  <g transform="matrix(1 0 0 1 -232 -57 )">
    <path d="M 9.74470588235294 2.53837209302325  L 8.25411764705882 2.53837209302326  L 9.69294117647059 1.15813953488372  C 9.82354128456811 1.03288065263893  9.89724568743078 0.860682814882592  9.89724568743078 0.680816693034457  C 9.89724568743078 0.507787641176776  9.82902331745809 0.341569382906462  9.70705882352941 0.217441860465116  C 9.58032630737586 0.0883603582757042  9.40610261270474 0.0155129833532987  9.22412041883486 0.0155129833532987  C 9.04905573107298 0.0155129833532987  8.88088196388183 0.0829420699542134  8.75529411764706 0.203488372093023  L 6.76235294117647 2.11627906976744  L 4.96705882352941 0.225581395348837  C 4.71293196842217 -0.0420466907496261  4.2874799177047 -0.0555777901061437  4.0164705882353 0.195348837209303  C 3.8810793930868 0.320861839468894  3.80426967761116 0.496151933235847  3.80426967761116 0.679619834574658  C 3.80426967761116 0.848853146099291  3.86965265302967 1.01169928962159  3.98705882352941 1.13488372093023  L 5.31764705882353 2.53837209302326  L 0.887058823529412 2.53837209302326  C 0.435294117647058 2.53837209302326  0.0682352941176469 2.90116279069768  0.0682352941176469 3.34767441860465  L 0.0682352941176469 5.23953488372093  C 0.0682352941176469 5.68720930232558  0.435294117647058 6.04883720930232  0.887058823529412 6.04883720930232  L 1.51294117647059 6.04883720930232  L 1.51294117647059 9.88837209302325  C 3.27411764705882 9.61976744186046  4.88352941176471 8.9  6.22117647058823 7.85581395348837  C 6.30387255450254 7.63623103423135  6.49739889283092 7.47587722443699  6.73058823529412 7.43372093023256  C 8.17411764705882 6.14651162790698  9.24 4.4546511627907  9.74470588235294 2.53837209302325  Z " fill-rule="nonzero" fill="#ffffff" stroke="none" transform="matrix(1 0 0 1 232 57 )" />
  </g>
</svg>