<?xml version="1.0" encoding="utf-8"?>
<svg version="1.1" xmlns:xlink="http://www.w3.org/1999/xlink" width="6px" height="6px" xmlns="http://www.w3.org/2000/svg">
  <g transform="matrix(1 0 0 1 -232 -57 )">
    <path d="M 0.52754716981132 5.92961538461539  C 2.82 5.16923076923077  4.7388679245283 3.56307692307692  5.92981132075472 1.47346153846154  L 4.77962264150944 0.223846153846154  C 4.53508547904775 -0.0417232546669367  4.12568822269697 -0.0551502686437887  3.86490566037736 0.193846153846155  C 3.73462356693258 0.318393671472979  3.66071233128622 0.492335379903264  3.66071233128622 0.674391989693314  C 3.66071233128622 0.842323506513911  3.72362802461346 1.00391698739373  3.83660377358491 1.12615384615385  L 5.11698113207547 2.51884615384615  L 0.853584905660377 2.51884615384615  C 0.418867924528301 2.51884615384615  0.0656603773584904 2.87884615384615  0.0656603773584904 3.32192307692308  L 0.0656603773584904 5.19923076923077  C 0.0656603773584904 5.52461538461539  0.255849056603773 5.80384615384615  0.52754716981132 5.92961538461539  Z " fill-rule="nonzero" fill="#ffffff" stroke="none" transform="matrix(1 0 0 1 232 57 )" />
  </g>
</svg>