<?xml version="1.0" encoding="utf-8"?>
<svg version="1.1" xmlns:xlink="http://www.w3.org/1999/xlink" width="18px" height="18px" xmlns="http://www.w3.org/2000/svg">
  <g transform="matrix(1 0 0 1 -129 -15 )">
    <path d="M 17.0898414784131 0.0934543232205353  C 17.0212503045508 0.0705905950991834  0.957106543757293 0.0693911901983657  0.91424268378063 0.0922549183197198  C 0.899444982497083 0.100200997666278  0.872188424737456 0.107397444574095  0.85361257176196 0.108446936989499  C 0.835081708284714 0.109421464410735  0.806026032672112 0.122240128354726  0.789114381563594 0.13700784714119  C 0.772157740956826 0.151700600933489  0.750118610268378 0.163769649941657  0.740133535589265 0.163844614935822  C 0.730103481913652 0.163919579929988  0.718948984830805 0.172015589264878  0.715305780630105 0.181910705950991  C 0.711617597432905 0.19173085764294  0.699158740956826 0.19982686697783  0.687554464410735 0.19982686697783  C 0.675950187864644 0.19982686697783  0.647299312718786 0.219991925320886  0.623865864644107 0.244654760793465  C 0.600477395565928 0.269242631271879  0.576369283547258 0.289407689614936  0.57034225554259 0.289407689614936  C 0.546908807467911 0.289407689614936  0.399426532088681 0.481313068844807  0.32359392882147 0.610474375729288  C 0.165721778296383 0.879366791131855  0.0625876277712951 1.22562105017503  0.0321376452742123 1.58881696032672  C 0.0156757631271877 1.78559492415403  0.0234119509918319 16.3876446441074  0.0400537386231037 16.5187550058343  C 0.046305651108518 16.5680057117853  0.0575501061843639 16.6365968961494  0.0650614095682613 16.6710798833139  C 0.0725277234539089 16.7055628879813  0.082018050175029 16.749940991832  0.0861560128354725 16.7696562777129  C 0.145976513418903 17.0562399591599  0.291569723453909 17.3788059101517  0.451825697782964 17.5799317386231  C 0.522665768961494 17.6689128588098  0.71566560210035 17.8360804375729  0.747509891481913 17.83608042007  C 0.759923768961493 17.83608042007  0.775441123687281 17.8449260618436  0.781917931155192 17.8557207409568  C 0.81641591831972 17.913217386231  0.930929450408401 17.9140419836639  8.99032535705951 17.9153163535589  C 17.2267089941657 17.9166656884481  17.1511462543757 17.9171904259043  17.1887926872812 17.8544463710618  C 17.1948646942824 17.8443263593932  17.2110117339557 17.83608042007  17.224684991832 17.83608042007  C 17.2383582497083 17.83608042007  17.2579685775963 17.8289589381564  17.2682235262544 17.8201882613769  C 17.2785234434072 17.8114925495916  17.3208025974329 17.7777591773629  17.3621821925321 17.7453001925321  C 17.5250019066511 17.6174882205368  17.8084521388565 17.1887746207701  17.8084521388565 17.0703330105017  C 17.8084521388565 17.062311966161  17.8205511738623 17.0261048191365  17.8353488751459 16.9898227071178  C 17.8501465764294 16.9535405950992  17.8622456114352 16.9156093057176  17.8622456114352 16.905489294049  C 17.8622456114352 16.8953692823804  17.8740747829638 16.8445443465578  17.8885126522754 16.7925200058343  C 17.9195023722287 16.680975  17.9333555355893 16.5938679696616  17.9435205367561 16.4470153792299  C 17.9475685414236 16.3878695390898  17.9551697922987 16.330522823804  17.9603872193699 16.3196531796966  C 17.9658295309218 16.3081838331389  17.9686181656943 13.1888969544924  17.9668640268378 8.98909288214702  C 17.9638055390898 1.47907107934656  17.9640304235706 1.52060060093349  17.9256193582264 1.39638684364061  C 17.9198254376311 1.37575414787243  17.9165534561738 1.35340579888968  17.9159941050175 1.33064425904317  C 17.9159941050175 1.31160364060677  17.9091124970828 1.27322257876313  17.9007016452742 1.24526137106184  C 17.8817929033155 1.18081147893623  17.8631865107202 1.11611640143542  17.8448841703617 1.05118205950992  C 17.790820823804 0.859876400233371  17.7067572847141 0.67546732788798  17.6061418949825 0.52749029754959  C 17.5766132631217 0.484340428389055  17.5472719660935 0.44083574694655  17.5181202987165 0.396979655775962  C 17.5078203815636 0.379813127187863  17.4694992742124 0.343156190198365  17.4293790595099 0.312196452742122  C 17.407204991832 0.295029924154024  17.3890789288215 0.274789900816802  17.3890789288215 0.26729359393232  C 17.3890789288215 0.259722322053674  17.38350168028 0.253575350058342  17.3767100303384 0.253575367561258  C 17.3699183803967 0.253575367561258  17.3396483033839 0.234234906651107  17.3095131633606 0.210621546091013  C 17.2454647421237 0.160471277712951  17.1702168553092 0.120291091015168  17.0898414784131 0.0934543232205353  Z M 1.78181987397899 0.483412036172697  C 1.83777228588098 0.465495875145859  17.0455383220537 0.487160180863478  17.1029750093349 0.505301236872811  C 17.1566335554259 0.522167922987164  17.2603973803967 0.596081464410735  17.3664101026838 0.693008681446907  C 17.4237568214702 0.745332882147024  17.5812691505251 1.03026738623104  17.6160370116686 1.14458600933489  C 17.6352425390898 1.20747999416569  17.6548978459743 1.26310256709452  17.6598004305718 1.26820004667445  C 17.6646580361727 1.27322257876313  17.6686610618436 1.2935375495916  17.6686610618436 1.31340276546091  C 17.6686610618436 1.33319299883314  17.6755876487748 1.36092932905484  17.6840434795799 1.37502238039673  C 17.7155729369895 1.4276464235706  17.717057201867 1.768878168028  17.717057201867 9.02687424154026  L 17.717057201867 16.4470153792299  L 17.6928591318553 16.545591756126  C 17.6795906744457 16.5997900291715  17.6686610618436 16.6623841715286  17.6686610618436 16.6846481971995  C 17.6686610618436 16.7497910793466  17.5557667316219 17.0086384305718  17.4589294830805 17.1655360676779  C 17.3703231703617 17.3090153208868  17.3451805729288 17.3351024562427  17.1739949859977 17.461190285881  L 17.093349756126 17.5206359684947  L 14.0500154247375 17.5357784947491  C 10.7933962683781 17.5518955484247  10.961748252042 17.5548940606768  10.9522579253209 17.4818051166861  C 10.9372353290548 17.3663620361727  10.855465655776 17.2267059101517  10.8029315635939 17.2267059101517  C 10.7901578646441 17.2267059101517  10.7606074305718 17.2033924095683  10.7372639404901 17.174981411902  C 10.7092427607935 17.1408732322054  10.6746997946324 17.1187591365228  10.6356590443407 17.1100634247375  C 10.6031400805134 17.1027170478413  10.5669779124854 17.0857004317386  10.5553286569428 17.0721321353559  C 10.5436344224037 17.0585638214702  10.5214153757293 17.0474692998833  10.5058980315052 17.0474692823804  C 10.4903806872812 17.0474692648775  10.4664974597433 17.0313522287048  10.4528691808635 17.0116369603267  C 10.4392409019837 16.9919216744457  10.4221043558926 16.9757296732789  10.4148179369895 16.975729655776  C 10.4075315285881 16.975729655776  10.3876963057176 16.963735571762  10.3707396756126 16.9489678529755  C 10.3538280140023 16.9342750991832  10.3269312777129 16.9221310851809  10.3110091330222 16.9221310851809  C 10.2950869883314 16.9220561201867  10.2793447491249 16.9146347782964  10.2760163873979 16.9056392240373  C 10.2726430466744 16.8966436522754  10.2469607117853 16.8719058518086  10.2188945530922 16.8507662835473  C 10.1910778888143 16.8297647373798  10.1633262056832 16.808524929142  10.1356406044341 16.7870477012835  C 10.1148466769448 16.77151558115  10.0932417803379 16.7591950202314  10.0710974247375 16.7502408518086  C 10.0533761621937 16.7437940373396  10.029178092182 16.7286514935823  10.0173489311552 16.7165824445741  C 10.0055197596266 16.7045133955659  9.97192133138856 16.6892959043174  9.94268575029171 16.68269915986  C 9.91345016919486 16.6761773803967  9.87953688798133 16.6554126196033  9.86739287397899 16.6365219311552  C 9.85520388098016 16.6177062077013  9.82349451808634 16.5886205600933  9.79686765577596 16.5719787514586  C 9.76919661341305 16.5546123579361  9.74176793548158 16.5361916084129  9.71460321353559 16.5167310035006  C 9.69598239206534 16.5030877246208  9.67520264177363 16.4918432730455  9.66845597082847 16.4918432730455  C 9.66175427887981 16.4918432730455  9.6372413663944 16.4757262193699  9.61407778179696 16.4560109334889  C 9.59086922870478 16.4362956476079  9.56262315402567 16.4201785939323  9.55128875145857 16.4201786114352  C 9.53995434889148 16.4201786289382  9.52466187864644 16.4080345974329  9.51728551225204 16.3932668786464  C 9.50990914585764 16.37849915986  9.49268264177363 16.3663551458576  9.47896441540257 16.3663551458576  C 9.46524617852975 16.3663551458576  9.45143798366394 16.3593086289382  9.44824455892649 16.3507628296383  C 9.44127299299883 16.3319471061844  9.33157208751459 16.2409419836639  9.31587482730455 16.2409419836639  C 9.30980282030338 16.2409419836639  9.29882822870478 16.2287979696616  9.29145187281213 16.2140302508751  C 9.28407550641773 16.1992625320887  9.26995246907818 16.1871185180863  9.26005735239206 16.1871185355893  C 9.25016223570595 16.1871185355893  9.21085161143524 16.1590823628938  9.17266545157526 16.1248242532089  C 9.13447928121353 16.0905661435239  9.09296474912485 16.062305075846  9.08037095565927 16.0620801808635  C 9.0677771621937 16.061855285881  9.05149519603267 16.0495613593932  9.04411882963827 16.0347936406068  C 9.03674246324387 16.0200259218203  9.02284432088682 16.0077319778296  9.01321906767794 16.0075071003501  C 9.00359381446908 16.0072822053676  8.98362366511085 15.9913150816803  8.9688259638273 15.9720495857643  C 8.95407324154026 15.9527840898483  8.93405810268378 15.936816966161  8.92443284947491 15.9365920536756  C 8.91480759626604 15.9364421236873  8.90090945390898 15.9241481971995  8.89357806651108 15.9093055134189  C 8.88620170011668 15.8945377946324  8.8739677386231 15.8824687456243  8.86641145624271 15.8824687456243  C 8.85881020536756 15.8824687456243  8.82264803733956 15.8542076779463  8.78603608984831 15.8197246907818  C 8.74937916336056 15.7852416861143  8.71321699533256 15.7569806359393  8.70566072345391 15.7569806359393  C 8.69805947257876 15.7569806359393  8.68587047957993 15.7449115869312  8.67849412368728 15.7301438681447  C 8.67111775729288 15.7153011843641  8.65915365927655 15.7032321353559  8.65191222987164 15.7032321353559  C 8.64462582147024 15.7032321353559  8.61984304550758 15.6809681096849  8.59676941890315 15.6537565344224  C 8.57369579229872 15.6264699941657  8.52817824504084 15.5816421003501  8.49565928121354 15.5539807351225  C 8.45343012526306 15.5168980275022  8.41217733530399 15.4768057378941  8.37201524387398 15.4338149824971  C 8.33652773978997 15.3953589381564  8.29537303967328 15.3540543115519  8.28057533838973 15.3419852625438  C 8.26340458106976 15.3272633261514  8.24720016846003 15.3096017756458  8.23222417736289 15.2892862543757  C 8.20856584480747 15.255552882147  8.15045449358226 15.1958073570595  8.10853517152859 15.1622238973162  C 8.09373747024504 15.1503047782964  8.06148836989498 15.1139477012835  8.03684052042007 15.0814137514586  C 8.01214769194866 15.0488048366394  7.98772473745624 15.0221179988331  7.98250731038506 15.0221179988331  C 7.97728988331389 15.0221179988331  7.94589536289382 14.981787882147  7.91270173512252 14.9325371586931  C 7.87950810735123 14.883211487748  7.84734896499417 14.842956336056  7.8412319789965 14.842956336056  C 7.83511499299883 14.842956336056  7.80385540956826 14.8025512543757  7.7717862252042 14.7532255834306  C 7.69824748774796 14.6402562952159  7.66154558226371 14.5919800991832  7.64904174679113 14.5919800991832  C 7.63415408751458 14.5919800991832  7.47479766161027 14.3083949299883  7.31400194982497 13.9956491481914  C 7.2348409848308 13.8417500408401  7.16409087164527 13.7119140665111  7.15671451575262 13.7072663418903  C 7.14938312835472 13.7025436697783  7.12833351458576 13.6615388856476  7.10998255659276 13.6162612193699  C 7.09158663010502 13.570908588098  7.07152652275379 13.5238317969662  7.06531957876313 13.511762747958  C 7.03495955425904 13.4522421003501  6.94545368261377 13.2146092823804  6.92543855425904 13.1403208984831  C 6.91882680980163 13.1157330280047  6.90160030571762 13.0698556417736  6.88725238389731 13.0384461318553  C 6.87285948308051 13.007036621937  6.86107529054842 12.9760019194866  6.86107529054842 12.9694801400233  C 6.86107529054842 12.9628833955659  6.85203474329055 12.9361965577596  6.8409252252042 12.9100344574096  C 6.82821530810111 12.877797463897  6.81886334292971 12.8422143738147  6.81326386697783 12.8047863535589  C 6.80912590431738 12.7730769836639  6.79450811901983 12.7194784130688  6.78074490315052 12.6856700933489  C 6.76698168728121 12.651861756126  6.75263376546091 12.6079334247375  6.74885562427071 12.5880682263711  C 6.74507748308051 12.5682779929988  6.73491250291715 12.5422658051342  6.72623178763127 12.5302717211202  C 6.71759604084014 12.5183526021003  6.71048954842473 12.4913659043174  6.71048954842473 12.4703762485414  C 6.71044456942824 12.4494615577596  6.70315816102683 12.4092064060677  6.69434250875146 12.3809453558926  C 6.68552685647608 12.3526842882147  6.67815049008168 12.3204501808635  6.67801556359393 12.3092806942824  C 6.67792560560093 12.2980362427071  6.66834533138856 12.2687257001167  6.65678602333722 12.2440628471412  C 6.64518174679113 12.2194749766628  6.63564645157526 12.18056915986  6.63551151458576 12.1577803967328  C 6.63457694612102 12.1298903657784  6.63026227010219 12.1026048765992  6.62282777362894 12.0775699533256  C 6.61406146354029 12.0477572785689  6.60699876345919 12.0166352201123  6.60173317036172 11.9846157759627  C 6.59701050175029 11.954780495916  6.5814931470245 11.8780183372229  6.5673251411902 11.8139249474912  C 6.55612088695745 11.7631986161568  6.54499633424666 11.7124234829852  6.5339515974329 11.6616000700117  C 6.52712794646059 11.6312691933139  6.51964164230073 11.6013639765188  6.51150766627771 11.5719442648775  C 6.50336667794632 11.5424088273046  6.49140257992999 11.4698446032672  6.48497075145858 11.4106987806301  C 6.47219705250875 11.2937564527421  6.44561515869311 11.1271885764294  6.43063754142357 11.0701417036173  C 6.42546509334889 11.0504264177363  6.41350099533255 10.9684168669778  6.40405564760793 10.8879065635939  C 6.39222818335475 10.7919185114196  6.37769929606264 10.6969104024767  6.36051711318553 10.6031969544924  C 6.34603425437573 10.5270345157526  6.33416011435239 10.4421013827305  6.33416011435239 10.414515  C 6.33416011435239 10.3868536347725  6.33002215169194 10.3600168669778  6.32502961960326 10.3548444224037  C 6.31999210851808 10.3496719778296  6.30955724387398 10.2705859743291  6.30182106651108 10.1790561143524  C 6.29408487864644 10.0875262543757  6.28126620070011 9.98137858809801  6.27330511785297 9.94322240373396  C 6.26538902450408 9.90499125437573  6.25886723803967 9.84696987164527  6.25886723803967 9.81428597432905  C 6.25886723803967 9.78160209451575  6.25445941190198 9.75034249708285  6.24906207934655 9.74479524504084  C 6.24366473628938 9.73924797549592  6.23583860093349 9.70041712368728  6.23170063827304 9.65858774212369  C 6.2275626756126 9.61675836056009  6.22000640373395 9.57387950408402  6.21492391365227 9.56330973745624  C 6.20979644457409 9.55266498833139  6.20039607584597 9.46398371061844  6.19396424737456 9.36615694865811  C 6.18757739789965 9.26825522170362  6.17534342590432 9.14846429404901  6.16684261610268 9.09981329054843  C 6.15829682730455 9.05123725204201  6.15132527187864 8.98631924737456  6.15132527187864 8.95550943990665  C 6.15132527187864 8.92477459743291  6.14673752975496 8.89201575262544  6.14116028121353 8.88264537339557  C 6.13553805367561 8.8732749941657  6.12618266394399 8.82125065344224  6.12029057292882 8.76705236289382  C 6.11373653469406 8.70703838948919  6.10637330221176 8.64727773580767  6.09820646324387 8.58781575262544  C 6.09190957176196 8.54343763127188  6.08228431855309 8.44666036172695  6.07684199649941 8.37274680280047  C 6.0666770058343 8.23458992415403  6.04823610035006 8.09995631271879  6.03217901866978 8.0469574445741  C 6.02718647607934 8.03039061843641  6.01787607584597 7.94568238039673  6.01153420536756 7.85872526254376  C 5.99835570595099 7.67918879229872  5.97397771995332 7.50797322637106  5.95153378879813 7.43795774212369  C 5.9431229369895 7.41179564177363  5.93624132905484 7.35429899649942  5.93624132905484 7.31022073512252  C 5.93624132905484 7.26261920653443  5.93003438506417 7.22138954492416  5.92090389031505 7.20879574095683  C 5.91217819603267 7.19672669194866  5.9023280478413 7.13585670945158  5.89805515869311 7.06771531505251  C 5.89391719603267 7.00174783547258  5.88388714235706 6.92603516919487  5.87574615402567 6.89942329638273  C 5.86765014469078 6.8728114235706  5.86081351575262 6.82843330221704  5.86063361026838 6.80084690198366  C 5.86045369428238 6.77326050175029  5.85321226487748 6.73502935239207  5.8445315495916 6.71591378646441  C 5.83585083430572 6.69672325554259  5.82874433138856 6.66021624854143  5.82874433138856 6.63472881563594  C 5.82874433138856 6.60924138273046  5.82213258693115 6.57250949824971  5.81408156709451 6.55301910735123  C 5.80603053675612 6.53360368144691  5.79586554609101 6.47745637106184  5.79154767794632 6.4282806126021  C 5.78718483080513 6.37910485414236  5.77683993465577 6.31703546674446  5.76851903033839 6.29027366394399  C 5.76024311551925 6.26351186114352  5.75345145507584 6.21800929988331  5.75345146557759 6.18922349474913  C 5.75345146557759 6.16036272462077  5.74621003617269 6.12670431738623  5.73730442590432 6.11441039089848  C 5.72844379463244 6.10211644690782  5.72120236522754 6.07752857642941  5.72120236522754 6.05976232788798  C 5.72120236522754 6.04192113185531  5.71450067327888 6.01620880396733  5.70635968494749 6.0026405075846  C 5.6981737176196 5.98899722870479  5.68791877946324 5.93397435822637  5.68351095332555 5.88037578763127  C 5.67910312718786 5.82670225204201  5.66884817852975 5.76695670945158  5.66070719019837 5.74746631855309  C 5.65256620186698 5.72805089264878  5.64590948891482 5.69881531505251  5.64590948891482 5.6824733663944  C 5.64590948891482 5.66613141773629  5.63866805950992 5.6427429521587  5.62976244924154 5.63052399066511  C 5.62090181796966 5.61823004667445  5.61366038856476 5.58876957409568  5.61366039906651 5.56508126604434  C 5.61366039906651 5.54139294049008  5.59670375845974 5.46485569428238  5.57601395565927 5.39499014002334  C 5.55532415285881 5.32519955075846  5.53836752275379 5.2578827537923  5.53836752275379 5.24536391481914  C 5.53836752275379 5.23284509334889  5.53112609334889 5.21260507001167  5.52222048308051 5.20031112602101  C 5.51335985180863 5.18809214702451  5.50611842240373 5.1641039789965  5.50611842240373 5.14716232788798  C 5.50611842240373 5.1301457117853  5.49644819019836 5.10165976662777  5.48461902917153 5.0838185705951  C 5.4718453302217 5.06462803967328  5.46307465694282 5.02864577012835  5.46307464644107 4.99551211785298  C 5.46307464644107 4.96050437572929  5.45160530688448 4.91642611435239  5.43226484247374 4.8772954025671  C 5.41530820186697 4.84303729288215  5.39808169778296 4.78921382730455  5.39389875612602 4.75780433488915  C 5.38976079346557 4.72631985997667  5.37217446791132 4.66792365227538  5.3548580058343 4.62796834305718  C 5.33749656476079 4.58808801633606  5.32328357992998 4.54625863477246  5.32328357992998 4.5350141831972  C 5.32328357992998 4.5238446966161  5.30637191831971 4.48336464994166  5.2856371470245 4.4452084655776  C 5.26494734422403 4.40705228121354  5.24803569311552 4.36724690198366  5.24803568261377 4.35682704784131  C 5.24803567211201 4.34640719369895  5.231079042007 4.30090461493582  5.21038924970828 4.25570191365228  C 5.18969944690781 4.21057415985998  5.1725179218203 4.16462182613769  5.17220307934655 4.15375218203034  C 5.17193321586931 4.14280757292882  5.15214297199533 4.10165287631272  5.12825974445741 4.06222232205368  C 5.10437651691948 4.02279176779463  5.0776596966161 3.96334608518087  5.06893400233372 3.93006248541424  C 5.04707477712952 3.84685351225204  4.46848008868144 2.87938057176196  4.41999399066511 2.84489758459743  C 4.39925921936989 2.83020483080514  4.35086307934655 2.76453721120187  4.31245202450408 2.69901952158693  C 4.27399599066511 2.63342686697783  4.2231710478413 2.5641610151692  4.19951271528588 2.54504544924154  C 4.12003690781797 2.48095205950992  4.09871742007001 2.45741366394399  4.04685798133022 2.3769033605601  C 4.01847698016336 2.33290006417736  3.98798200816802 2.29661795215869  3.9790764084014 2.2963930571762  C 3.97021577712952 2.2961681621937  3.94426357876312 2.26790711201867  3.92141483663944 2.23364898483081  C 3.898611084014 2.19939087514586  3.87135452625437 2.17135470245041  3.86091967211201 2.17135470245041  C 3.85043983897316 2.17135470245041  3.83586702217036 2.15921068844808  3.82853563477246 2.14444298716453  C 3.82115926837806 2.12967526837806  3.80892530688448 2.1176062193699  3.80132405600933 2.1176062193699  C 3.79372280513418 2.1176062193699  3.76727584830805 2.08934515169195  3.74249307234539 2.05486214702451  C 3.71771029638273 2.02037914235706  3.6904087596266 1.99211809218203  3.68186296032672 1.99211809218203  C 3.67331717152859 1.99211809218203  3.66045351458576 1.98402208284714  3.65330204317386 1.97412696616103  C 3.62676512835472 1.93739508168028  3.52601481213535 1.82899853558927  3.50294118553092 1.81228176196033  C 3.48923752049528 1.8023815629271  3.47586014075561 1.79127128219649  3.46286594982497 1.77899817969662  C 3.44889378995182 1.76591019336629  3.4345434870548 1.75397662331369  3.41986715285881 1.74324080513419  C 3.40513097348953 1.73243878396998  3.39077491003313 1.7202501485937  3.37686835589264 1.70673381563594  C 3.36655226696099 1.69636120583346  3.35575283030711 1.68738674427093  3.34457427654609 1.67989704784131  C 3.33340963346873 1.67237986744822  3.32262526665502 1.66338035771471  3.31232518669778 1.65298531505251  C 3.30202510336757 1.64259027155342  3.29124073302388 1.6335907618048  3.28007608634772 1.62607358226371  C 3.26880556961164 1.61843564158592  3.25800544168016 1.60899619950628  3.24782698599766 1.59788747957993  C 3.2341075479675 1.5839309829398  3.2197090132099 1.5719196686662  3.204783210035 1.56198019253209  C 3.18997921456101 1.55216539794609  3.17561040937555 1.54061724969052  3.16178441306884 1.5274222403734  C 3.15148299079077 1.51707384216942  3.14069846069903 1.50812433185011  3.12953531271878 1.50066042007001  C 3.11845065372697 1.49331108623484  3.10766336617382 1.48477240536413  3.09724124387398 1.47509803967328  C 3.06161881330221 1.44098985997666  3.00409217852975 1.40118448074679  2.97359720653442 1.38949023920654  C 2.95583096499416 1.38266859976663  2.92448142357059 1.3541826546091  2.90392656826137 1.32614648191365  C 2.8833717024504 1.2981103092182  2.85854394749124 1.27517161610268  2.84878375729288 1.27517161610268  C 2.83902356709451 1.27517161610268  2.82521538273045 1.26347737456243  2.8181088798133 1.24915944574096  C 2.8109574084014 1.23491646441074  2.78392573512252 1.21789986581097  2.75797353675612 1.21137806884481  C 2.73202133838973 1.20493125437573  2.7052145495916 1.18836441073512  2.69837792065344 1.17464618436406  C 2.69158627071178 1.16092794049008  2.67809291831972 1.14945861143524  2.66846766511085 1.14915875145858  C 2.65884241190198 1.14885889148192  2.64206568728121 1.13731459743291  2.63118105367561 1.12359635355893  C 2.62025144107351 1.1098031621937  2.59245514585764 1.09323631855309  2.56938152975496 1.08671453908985  C 2.54630790315052 1.08026772462077  2.52503339439906 1.06842355309218  2.5220648646441 1.06055243873979  C 2.51387889731622 1.03843834305718  2.41150937922987 0.952605665110853  2.39333833722287 0.95260568261377  C 2.38452268494749 0.95260568261377  2.34453739673279 0.925618984830806  2.30446216102683 0.892635245040842  C 2.20281228588098 0.809051464410737  2.15248210151692 0.773369054842475  2.13642501983664 0.773369054842475  C 2.12886874795799 0.773369054842475  2.09877858693115 0.754328436406069  2.06958797432905 0.731089900816804  C 2.0384310005361 0.706434871886838  2.00649484892883 0.684613589163656  1.97392014819136 0.6657221411902  C 1.94215363157369 0.64716786942585  1.91110483615325 0.625362107187411  1.88095099883314 0.600429329054844  C 1.85324466161026 0.577265758459745  1.82319947957993 0.558300105017504  1.81420391131855 0.558300105017504  C 1.76949595449241 0.558300105017504  1.74259921820303 0.496005822637107  1.78181987397899 0.483412036172697  Z M 0.677749295215858 0.645332187864653  C 0.886266472578752 0.47524106184365  1.00631228471411 0.438584142357069  1.0364923932322 0.535886166861145  C 1.05268441190198 0.587985472578764  1.13076590198366 0.701629445740959  1.15042121936989 0.701629428238041  C 1.1567630898483 0.701629428238041  1.18078124387397 0.72141966161027  1.20376491248541 0.745632724620772  C 1.22674858109684 0.769770822637107  1.27015217852975 0.795033360560095  1.30015239206534 0.801630122520422  C 1.33019757409568 0.808301831971997  1.36028773512252 0.824793693115521  1.36703440606767 0.838362007001168  C 1.37378107701283 0.85185535589265  1.38475566861143 0.863024842473747  1.39141239206534 0.863099807467912  C 1.3980691050175 0.863099807467912  1.41704974795799 0.874943961493584  1.43355660910151 0.889261907817971  C 1.45006347024504 0.903654819136524  1.4815479486581 0.920896312718788  1.50345214235705 0.927568022170363  C 1.5254013150525 0.934239731621938  1.55288276779463 0.950731592765462  1.56453202333722 0.964075011668613  C 1.57622625787631 0.977493395565929  1.59813045157526 0.988438004667447  1.6132430058343 0.988438004667447  C 1.62835554959159 0.988438004667447  1.65025975379229 0.999457578763129  1.66190900933488 1.01302587514586  C 1.67360324387397 1.02651922403734  1.70000522170361 1.0437607176196  1.72065003500583 1.05125702450409  C 1.7412948588098 1.05875333138857  1.77318412718786 1.08394090431739  1.79153508518086 1.10725442240374  C 1.81060568611435 1.13146748541424  1.84753247607934 1.15455609101517  1.87766761610268 1.16107787047841  C 1.90672329171528 1.16737477246208  1.93771301166861 1.18229240373396  1.94661861143523 1.19436147024504  C 1.97401010618436 1.23146817969662  2.0329310478413 1.27367236872812  2.07404077946324 1.28566643523921  C 2.09563013068844 1.29196333722287  2.12401114235705 1.30830526837806  2.13709968378062 1.32202351225204  C 2.15018822520419 1.33566679113186  2.17254220886814 1.34691124270712  2.1867102252042 1.34691124270712  C 2.20092322053675 1.34691124270712  2.22485141656942 1.36302829638273  2.23987401283547 1.38274358226371  C 2.25494158809801 1.40245886814469  2.27707066627771 1.4185759218203  2.28907974329054 1.41857590431739  C 2.30113379929988 1.41857590431739  2.3138625192532 1.42644701866978  2.31741577596265 1.43596732788798  C 2.32636636522753 1.46010542590432  2.41807614469078 1.5261478529755  2.44267900466744 1.5261478529755  C 2.45378852275379 1.5261478529755  2.48091015402567 1.54226490665111  2.50299426371061 1.56198019253209  C 2.52507837339556 1.58169547841307  2.55665280980163 1.59781253208868  2.5732046394399 1.59781251458576  C 2.58998136406067 1.59781251458576  2.60599346674445 1.60965666861144  2.6094567654609 1.62472424737456  C 2.61283010618436 1.63949196616103  2.62524398366394 1.6515610151692  2.63698319719953 1.6515610151692  C 2.64872241073512 1.6515610151692  2.67062660443407 1.66767806884481  2.68569417969661 1.68739335472579  C 2.70071677596265 1.70710864060677  2.71996728238039 1.72330064177363  2.72846808168027 1.72330064177363  C 2.73696889148191 1.72330064177363  2.75118187631271 1.7353696907818  2.76004251808634 1.75013740956826  C 2.76890314935822 1.76490512835473  2.78523009451575 1.77704914235706  2.7962946336056 1.77704914235706  C 2.80735917269544 1.77704914235706  2.81923332322053 1.78469537922987  2.82274160093348 1.79414070595099  C 2.83083761026837 1.81595494165694  2.99851492998833 1.95628575262544  3.01655103500583 1.95628575262544  C 3.02397238039673 1.95628575262544  3.03602643640606 1.96812990665111  3.04326785530921 1.98267274795799  C 3.05046430571761 1.99721557176196  3.07407765927654 2.01445708284714  3.0956670210035 2.02105382730455  C 3.1172563722287 2.02765057176196  3.15202423337222 2.05538690198367  3.17293891015169 2.08274840723454  C 3.1938535974329 2.11003494749125  3.22857647957993 2.13792120770129  3.25016583080513 2.14466786464411  C 3.27180016102683 2.15148950408402  3.30292481796966 2.18005041423571  3.31965656359393 2.20846141190199  C 3.3363433302217 2.2367974445741  3.36009162077012 2.26018591015169  3.37250550875145 2.26048575262544  C 3.38487440723453 2.26071064760794  3.40381007117852 2.27712754375729  3.41451478879813 2.29684282963827  C 3.42521950641773 2.31655811551926  3.442311084014 2.33267516919487  3.45247607467911 2.33267516919487  C 3.46268604434072 2.33267516919487  3.47703396616102 2.34474421820304  3.48441033255542 2.3595119369895  C 3.49174171995332 2.37435462077013  3.50563986231038 2.38657359976663  3.51526511551925 2.38687344224038  C 3.52489036872812 2.38709833722287  3.55147226254375 2.41528443990665  3.57432099416569 2.44954253208868  C 3.59712474679113 2.4838756067678  3.62438130455075 2.51191177946325  3.63481615869311 2.51191177946325  C 3.64525101283547 2.51191177946325  3.65982382963827 2.52398082847141  3.66720019603267 2.53874854725788  C 3.67457656242707 2.55359123103851  3.68869959976662 2.56566028004668  3.69859471645274 2.56566028004668  C 3.70853481213535 2.56566028004668  3.73336257759626 2.59362148774796  3.75373752742123 2.62780463243874  C 3.7741574562427 2.66198777712952  3.79763588331388 2.69024884480747  3.80591179813302 2.69054868728121  C 3.8141427444574 2.69084854725788  3.84157920770128 2.7193344924154  3.86685674212368 2.75381749708285  C 3.89213427654609 2.78837544924154  3.91862621236872 2.81656155192532  3.92582266277712 2.81656155192532  C 3.93297413418903 2.81656155192532  3.95757700466744 2.84482261960327  3.98047072578763 2.87930562427071  C 4.00340941540256 2.91378862893816  4.02819219136522 2.94227457409568  4.03556854725787 2.94249945157526  C 4.04294491365227 2.94279931155193  4.07501409801633 2.98312941073512  4.10685839789965 3.03215523920654  C 4.13870269778296 3.08118106767795  4.17180636756126 3.12128628938157  4.18044211435239 3.12128628938157  C 4.18907786114352 3.12128628938157  4.22083220303383 3.16161640606768  4.25101231155192 3.21086712952159  C 4.28123740956826 3.26019280046675  4.31362143640606 3.30052291715286  4.32297682613768 3.30052291715286  C 4.34587053675612 3.30052291715286  4.76411930338389 4.00232684947491  4.76411930338389 4.04078289381564  C 4.76411930338389 4.05742468494749  4.78827239439906 4.11222266044341  4.81786779696616 4.1625228588098  C 4.84741822053675 4.21289802217036  4.87161629054842 4.26762103267211  4.87161630105017 4.28426284130689  C 4.87161630105017 4.30090463243874  4.89581437106184 4.3542033605601  4.92540977362893 4.40277939906651  C 4.95496019719953 4.45128049008168  4.9791582672112 4.50442927071179  4.9791582672112 4.52084616686115  C 4.9791582672112 4.5372630630105  4.9864446756126 4.56072649358227  4.99530530688448 4.57302043757293  C 5.00416593815635 4.5853143815636  5.01145234655775 4.60765335472579  5.01145234655775 4.62264596849475  C 5.01145234655775 4.63771354725788  5.02836400816802 4.68441551341891  5.04905380046674 4.72654473745624  C 5.06978857176196 4.76867396149358  5.08670023337222 4.81799963243874  5.08670023337222 4.83621567094516  C 5.08670023337222 4.87512148774796  5.13653565927654 5.00315835472579  5.15160323453908 5.00315833722287  C 5.15731542007001 5.00315833722287  5.16199310968494 5.0215242882147  5.16199310968494 5.04401319136523  C 5.16199310968494 5.0664271470245  5.17166334189031 5.09866123687281  5.1834925134189 5.11552794049008  C 5.19568150641773 5.13291936406068  5.20499191715285 5.16837687864644  5.2049919066511 5.19746252625438  C 5.2049919066511 5.2259484714119  5.21933982847141 5.28164600933489  5.23728598599766 5.32295065344224  C 5.25500724854142 5.3638055075846  5.26953508634772 5.40810866394399  5.26953508634772 5.42145208284714  C 5.26953508634772 5.43479550175029  5.27920531855309 5.46028293465578  5.29103447957992 5.47812413068845  C 5.30380817852975 5.49738962660444  5.31253388331388 5.53337189614936  5.31253388331388 5.56658051341891  C 5.31253388331388 5.59731535589265  5.31910064877479 5.63839510501751  5.32715166861143 5.65788549591599  C 5.33515771995332 5.6773009218203  5.34518777362893 5.72460259043174  5.34941569428237 5.7629836697783  C 5.35364360443407 5.80136474912486  5.36403349008167 5.8443185705951  5.37244434189031 5.85841162193699  C 5.38090017269544 5.87242970828472  5.3878267596266 5.89851684364061  5.38782674912485 5.91635803967328  C 5.38782674912485 5.93412427071179  5.39448346207701 5.95788756126021  5.40257948191365 5.96913203033839  C 5.41072047024504 5.98037648191365  5.42061558693115 6.03757328471412  5.42457363360559 6.09626933488915  C 5.42857665927654 6.15489042007001  5.43644777362893 6.20766441073512  5.44207000116685 6.2135115227538  C 5.44773720770128 6.2192836697783  5.45232493932321 6.23847421820304  5.45232494982496 6.25609051925321  C 5.45232494982496 6.2737068378063  5.46204016102683 6.30676552508752  5.47386932205367 6.32947934072346  C 5.48569849358226 6.35219313885648  5.49536872578763 6.39514696032672  5.49536872578763 6.42490727537923  C 5.49536872578763 6.45466760793466  5.50247521820303 6.49214912485414  5.51120091248541 6.50819121353559  C 5.52033140723453 6.52505789964994  5.5301365764294 6.59394892648775  5.53431951808634 6.67093596266045  C 5.53827756476079 6.74439973162194  5.54808273395565 6.82033729288215  5.55608878529754 6.83982768378063  C 5.56409483663943 6.85924310968495  5.57061662310384 6.8965746966161  5.57061662310384 6.92273679696616  C 5.57061662310384 6.94889889731622  5.5773183150525 6.97963373978997  5.58554925087514 6.9909531563594  C 5.59427494515752 7.00302220536756  5.60354037689614 7.06734049008168  5.60799319253208 7.1465764235706  C 5.61217613418902 7.220864789965  5.62238609334889 7.30332413068845  5.63070698716452 7.32978609101517  C 5.63898290198366 7.35632299883314  5.64595446791131 7.4102214294049  5.64617936289381 7.44965198366395  C 5.64640424737456 7.48908253792299  5.65369065577596 7.53705889148192  5.66237137106184 7.55617445740957  C 5.67105208634772 7.57529002333722  5.67815858926487 7.61179703033839  5.67815858926487 7.63728446324388  C 5.67815858926487 7.66277189614936  5.68562490315052 7.7013778529755  5.69475540840139 7.72304217619604  C 5.70564004200699 7.7489793815636  5.71360111435239 7.82536671528588  5.71800894049007 7.9457573453909  C 5.72169712368727 8.04650767211202  5.73114246091014 8.14950687864645  5.73901358576429 8.17469445157526  C 5.74688470011668 8.19980707701284  5.75349644457409 8.2526560151692  5.75372132905483 8.29208656942824  C 5.75394621353558 8.33151712368729  5.76123262193698 8.37941851225204  5.76991334772461 8.3985340781797  C 5.77859406301049 8.41764964410735  5.78570056592765 8.45738005834306  5.78570056592765 8.48676558343057  C 5.78570056592765 8.51615110851809  5.79339177479579 8.55430727537924  5.80279213302216 8.57162373395566  C 5.81511605250874 8.59433753208869  5.82154788098015 8.65490767211202  5.8257758016336 8.78811698366395  C 5.82896922637105 8.88991678529755  5.83823465810968 8.9949399941657  5.84628568844806 9.02155186697783  C 5.85438169778295 9.04816373978997  5.86099343173861 9.10078780046675  5.86099343173861 9.13849421236873  C 5.86099343173861 9.17627558926488  5.86756019719952 9.22305252042007  5.87556624854141 9.24246794632439  C 5.8835722998833 9.26188337222871  5.89355737456242 9.32200372228705  5.89778529521586 9.37597710035006  C 5.9019682368728 9.42995047841307  5.91064895215868 9.48467350641774  5.9170807806301 9.49764211785298  C 5.92355758809801 9.51053576429405  5.93115883897315 9.60348992415403  5.93399244224036 9.70416526837807  C 5.93714088798132 9.8164598891482  5.94483209684946 9.90086826721121  5.95382765460909 9.92253259043174  C 5.96192366394398 9.94202298133023  5.96853539789964 9.97852997082848  5.96853540840139 10.0037175612602  C 5.96853540840139 10.028905134189  5.97600172228704 10.0672862135356  5.98517719603266 10.0891004667445  C 5.99547711318552 10.1136133722287  6.0042927654609 10.1885764235706  6.00825082263709 10.2857285005834  C 6.0118040688448 10.3721608809802  6.02124941656942 10.4587431913652  6.02925546791131 10.4781586172695  C 6.0372615192532 10.497649008168  6.04378330571761 10.5510976487748  6.04378329521586 10.5969750350058  C 6.04378329521586 10.6492242707118  6.04981032322052 10.688729789965  6.05993033488914 10.7026729113186  C 6.06879096616102 10.7149668553092  6.07607737456242 10.7504993348892  6.07607737456242 10.7815340198366  C 6.07607737456242 10.8126436872812  6.08313888798132 10.854922823804  6.09172965577595 10.8753877421237  C 6.10036540256708 10.8959276079347  6.11075527771294 10.9682669369895  6.11480328238039 11.0362584189032  C 6.11889626604433 11.1041749358226  6.12874640373394 11.1756147024504  6.13675245507584 11.1951050933489  C 6.14480348541422 11.2145205192532  6.15132527187864 11.2513273687281  6.15132527187864 11.2768148016336  C 6.15132527187864 11.3023022345391  6.15843176429404 11.3388092240373  6.16711249008167 11.3579248074679  C 6.17579320536755 11.3771153383897  6.18307961376895 11.4091245682614  6.1832595192532 11.4290647316219  C 6.1834394352392 11.4490798599767  6.19328957292881 11.479215  6.2051187444574 11.4961566511085  C 6.22234524854141 11.5206695565928  6.2266631166861 11.5492304842474  6.2267530746791 11.6390361843641  C 6.22697795915985 11.7720955659277  6.2418656184364 11.8540301691949  6.3000669276546 12.0415127362894  C 6.31288560560092 12.082892327888  6.32341041773628 12.1412135705951  6.32341041773628 12.1710488506418  C 6.32341041773628 12.2009590956826  6.34032207934654 12.2856673337223  6.36105685064176 12.3593559976663  C 6.38174665344223 12.4330446616103  6.39865830455075 12.5013359859977  6.3986583150525 12.5110062252042  C 6.3986583150525 12.520751411902  6.42101228821469 12.607783512252  6.44831382497082 12.704560781797  C 6.47566034072344 12.8012631038506  6.50224223453908 12.8964661610268  6.50745966161026 12.9161814294049  C 6.51267708868143 12.9358967152859  6.52140278296381 12.9641577654609  6.52693505250874 12.9789254842474  C 6.53242234305716 12.9936932030338  6.53966377246207 13.0179062660443  6.54299214469077 13.0326739848308  C 6.54636548541423 13.0475166686114  6.55342699883313 13.0716547666278  6.55877935239205 13.0864974504084  C 6.56408673745623 13.1012651691949  6.5737569696616 13.1334992765461  6.58027875612601 13.1581621120187  C 6.58675556359392 13.1828249474912  6.59696552275378 13.2170830571762  6.60290259276545 13.2343245507585  L 6.6245369334889 13.2970686056009  C 6.63047400350057 13.3143100991832  6.64005427771294 13.3467691015169  6.64585642123686 13.369108092182  C 6.65165856476078 13.3915220478413  6.6758566242707 13.4526918728121  6.69960491481913 13.5051660035006  C 6.72335320536755 13.557640134189  6.74278362777129 13.6050167677946  6.74278362777129 13.6104141073512  C 6.74278362777129 13.615886411902  6.77026508051341 13.6877759684948  6.80386350875145 13.770085361727  L 6.89503355075845 13.9936251458576  C 6.97257531388564 14.1834315577596  7.62394412835472 15.2551780746791  7.66186042473745 15.2551780746791  C 7.66599838739789 15.2551780746791  7.69006152042006 15.2833641773629  7.71533905484246 15.3178471645274  C 7.74057161026837 15.3524051166861  7.76679368261376 15.3805912193699  7.77354035355892 15.3805912193699  C 7.78033200350057 15.3805912193699  7.80462003150524 15.4088522870478  7.82751374212368 15.4433352917153  C 7.85045243173861 15.4778182963827  7.87528018669777 15.5060793465578  7.88270153208867 15.5060793465578  C 7.89012287747957 15.5060793465578  7.91499561143523 15.5342654492415  7.93788931155191 15.5688234014002  C 7.96078302217035 15.6033064060677  7.98489113418902 15.6315674562427  7.99141292065343 15.6315674737456  C 7.99793470711784 15.6315674737456  8.02159303967327 15.655705571762  8.04399199183196 15.6853159743291  C 8.06643592298715 15.714851411902  8.09009425554258 15.7390644749125  8.09661604200699 15.7390644574096  C 8.1031378284714 15.7390644574096  8.12720096149357 15.7673255250875  8.15013965110851 15.801808529755  C 8.17303336172694 15.8362915344224  8.19777116919485 15.8645525845974  8.20505757759626 15.8645525845974  C 8.21238896499415 15.8645525845974  8.23600231855308 15.887041487748  8.25754669078179 15.9146278879813  C 8.27909106301049 15.9421393232205  8.30882140256708 15.9743734305718  8.32361911435238 15.9861426371062  C 8.33841681563593 15.9979867911319  8.35775728004666 16.015228302217  8.36661791131854 16.0244487339557  C 8.37547854259042 16.0336691831972  8.39000638039672 16.0461880221704  8.3988670116686 16.0522600291715  C 8.40777262193698 16.0584070011669  8.43435451575261 16.0828449416569  8.45801283780629 16.1066831971995  C 8.53964758459742 16.1888426779463  8.5808922427071 16.2230258226371  8.59838862077012 16.2230258226371  C 8.60805885297548 16.2230258226371  8.62825389731621 16.2391428763127  8.64327649358225 16.2588581446908  C 8.65834406884479 16.2785734305718  8.67687492182029 16.2946904842474  8.68447617269544 16.2946904842474  C 8.69212240256708 16.2946904842474  8.71200260443406 16.3130564352392  8.72873435005833 16.3354703733956  C 8.7454660956826 16.3579592765461  8.77847981796965 16.3871199066511  8.80213815052508 16.4003883605601  C 8.8257964830805 16.4136568144691  8.86101412368727 16.4441667794632  8.880354588098 16.4683048774796  C 8.89969505250874 16.4924429754959  8.93225899533254 16.5166560385064  8.95276888214701 16.5222032905484  C 8.97323378996498 16.5277505600934  8.99549781563593 16.5433428588098  9.00224447607934 16.5568362252042  C 9.00899114702449 16.5704045390899  9.0229342788798 16.5814240956826  9.03323419603266 16.5814240956826  C 9.04353411318552 16.5814240956826  9.06426889498249 16.5976161143524  9.07929149124853 16.6173313827305  C 9.09435906651107 16.6370466686114  9.11338467794631 16.6531637222871  9.1216156242707 16.6531637222871  C 9.12984657059509 16.6531637222871  9.14118097316218 16.6602102392065  9.14680320070011 16.6689059509918  C 9.15242542823803 16.6776016627771  9.1763986032672 16.6949181213536  9.20005693582263 16.7075119253209  C 9.22371526837805 16.7200307467911  9.26001237339555 16.7472423395566  9.28070217619602 16.7679321353559  C 9.34340125904316 16.830526277713  9.39116770361726 16.8655340023337  9.44199263593931 16.8861488331389  C 9.46861950875145 16.896943512252  9.5049166032672 16.9171085705951  9.52263787631271 16.9310516919487  C 9.63674660793464 17.0204076371062  9.69877102683779 17.0642610035006  9.72697212252041 17.0753555425904  C 9.74473836406066 17.0824020595099  9.76650763127187 17.0970948308051  9.77536825204199 17.1081143873979  C 9.80248988331387 17.1416978296383  9.83896689381563 17.1728824445741  9.85120085530921 17.1728824445741  C 9.85758770478412 17.1728824445741  9.88925208868144 17.1930475029172  9.92154616802799 17.2177103383897  C 9.95388522637105 17.2423731738623  9.9868539696616 17.2625382322054  9.99481504200699 17.2625382322054  C 10.0028210933489 17.2625382322054  10.0280536487748 17.274832176196  10.0509923383897 17.289824789965  C 10.0867946849475 17.3133631855309  10.1176494679113 17.336976546091  10.2295542917153 17.4267822462077  C 10.2398542088681 17.4350281855309  10.2595095157526 17.4417748599767  10.2732277631272 17.4417748599767  C 10.3194649638273 17.4417748599767  10.3455970781797 17.4892264585764  10.3113689544924 17.5110406942824  C 10.2922533850642 17.5231847082847  9.09660795332554 17.5295565577596  6.70347300350057 17.530156277713  C 4.73483874329054 17.5306810151692  2.84347637222869 17.5356285822637  2.50043053442239 17.5411758343057  C 1.76184972462076 17.5530949533256  0.887255989498238 17.5315055950992  0.855096847141179 17.50062084014  C 0.843267675612591 17.4893014235706  0.80971422637105 17.4708605075846  0.78052361376895 17.4597659859977  C 0.751377990665099 17.4486714644107  0.710223280046663 17.4176367619603  0.689128687281202 17.3908749591599  C 0.668034084013991 17.3640381913652  0.637719038506406 17.3311294165694  0.621796883313874 17.3177110326721  C 0.585049998833127 17.28682626021  0.40675791948657 16.9844253675613  0.383234523920642 16.9130605659277  C 0.374350412775806 16.886028539376  0.365309445119369 16.8591405342347  0.356112892648763 16.8324003325554  C 0.346487639439895 16.8049638623104  0.295347854142346 16.6195802800467  0.279425709451564 16.554587327888  C 0.272917162524575 16.5253314413345  0.26759774997462 16.4953784534296  0.263503554259032 16.4649315402567  C 0.245962207701272 16.3332214935823  0.255947282380385 1.62382470245042  0.273623565927643 1.5532844807468  C 0.282888997666266 1.51625273628939  0.290490248541412 1.46760173278881  0.290490248541412 1.4452627421237  C 0.290490248541412 1.40313351808636  0.361330319719942 1.15980350058344  0.411210724620759 1.03064219369896  C 0.470761361726943 0.876443226371071  0.569667591598588 0.733413763127197  0.677749295215858 0.645332187864653  Z M 17.0100058494749 1.18304205367561  C 17.0026294830805 1.17951878646441  16.4981132590432 1.18064324387398  15.8889336511085 1.18559079346559  L 14.7812648471412 1.19451138273046  L 14.7812648471412 4.66252631271879  L 15.9023370455076 4.66260127771295  L 17.0234542228705 4.66267624270712  L 17.0234542228705 2.92600759043174  C 17.0234542228705 1.55208507584597  17.0206206196033 1.18806456826138  17.0100058494749 1.18304205367561  Z M 12.2250852987164 1.22142311551925  L 12.1885183302217 1.2823680630105  L 12.1519513617269 1.34331301050175  L 12.1519513617269 4.7284937747958  L 12.637666848308 4.74041291131855  C 12.9047901248541 4.7469346907818  13.4104757712952 4.75225706534422  13.7614377234539 4.75225706534422  L 14.3994930910152 4.75225706534422  L 14.3994930910152 1.32622144690782  L 14.3680985705951 1.27382228121354  L 14.3366590816803 1.22142311551925  L 12.2250852987164 1.22142311551925  Z M 15.0366938891482 1.59833726954492  C 15.0633207619603 1.58049607351225  16.7125675169195 1.57359946907818  16.7519231096849 1.59121577012835  L 16.7761211796966 1.60201044924154  L 16.7761211796966 2.92428344807468  C 16.7761211796966 4.11349704784131  16.7744120198366 4.24768088681447  16.7590745810968 4.25742607351225  C 16.7280848611435 4.27729127187865  15.0557644795799 4.26986992998833  15.03327557993 4.24977983663944  C 15.0129905775963 4.23171374562427  15.0124958296383 4.19805533838973  15.0124958191365 2.92293411318553  L 15.0124958191365 1.61460423570595  L 15.0366938891482 1.59833726954492  Z M 13.2733384025671 1.63364485414236  C 13.9308241925321 1.63364485414236  14.140195949825 1.63881729871645  14.1500460980163 1.65515924737456  C 14.1721751866978 1.69211602683781  14.1683070980163 4.29265869311552  14.1460430723454 4.3297654025671  C 14.1202707794632 4.37271922403734  12.4312186522754 4.37271922403734  12.4054463593932 4.3297654025671  C 12.385386252042 4.29633189031505  12.3792692660443 1.76640439323221  12.3990595099183 1.67959718786464  L 12.4095393430572 1.63364485414236  L 13.2733384025671 1.63364485414236  Z M 13.4698015239206 3.30944352392065  C 13.7072844189031 2.91663721120187  13.4568479089848 2.1869470361727  13.1684501236873 2.43140147607935  C 13.0137713978996 2.56251182030338  12.9579989019836 2.78080417736289  12.9967697782964 3.10337012835473  C 13.0388240373395 3.45344749708285  13.3110747934656 3.57203901983664  13.4698015239206 3.30944352392065  Z M 13.2878662403734 5.39746391481914  C 12.4111585449242 5.39746391481914  12.1739455134189 5.40226155192532  12.165759546091 5.4198778529755  C 12.1592827386231 5.43397090431739  12.1564941143524 6.08569953325554  12.1582482532089 7.17183896149358  L 12.1610818564761 8.90146109684948  L 14.3941407374562 8.90146109684948  L 14.3968843827305 7.14949998833139  L 14.3996280280047 5.39746391481914  L 13.2878662403734 5.39746391481914  Z M 15.9308080046674 5.43621980163361  C 15.8761149731622 5.39191664527421  15.8595181540257 5.3904923453909  15.8112569509918 5.42565001750292  C 15.7248095775963 5.48869393232205  15.7195921505251 5.5434169428238  15.7106865402567 6.48180421820304  C 15.706458630105 6.92543546674446  15.6993521271879 7.60879850058343  15.6949443115519 8.0004054084014  C 15.6876579031505 8.64313848308051  15.68864742007 8.72192462660443  15.7050643127188 8.80895670945158  C 15.7525159148191 9.06038273628938  15.9098933068845 9.09186721120187  15.980328588098 8.86397957992999  L 16.0072253243874 8.7770224445741  L 16.0129824784131 7.72798972578763  C 16.0161759031505 7.15107420070012  16.0228326161027 6.47513250875146  16.0277352112019 6.22588041423571  C 16.0392945087515 5.64304281213536  16.0230575215869 5.51095794049008  15.9308080046674 5.43621980163361  Z M 13.2758571633606 5.79176947491249  C 14.0629240606768 5.79176947491249  14.1505408564761 5.79461807467911  14.1563879684947 5.82018047257876  C 14.173299630105 5.89349432905484  14.1633145554259 8.45910421820303  14.1460430723454 8.48796498833139  C 14.1202707794632 8.53084384480747  12.4312186522754 8.53084384480747  12.4054463593932 8.48796498833139  C 12.3881748763127 8.45910421820303  12.3785496231039 5.93644815052509  12.3953263477246 5.8320995915986  L 12.4018031551925 5.79176947491249  L 13.2758571633606 5.79176947491249  Z M 16.96966073979 6.34844497666278  C 16.96966073979 6.18300155775963  16.8151619194866 6.08120175612602  16.7400939381564 6.19724453908985  C 16.6660154632439 6.31171309218203  16.6536915437573 6.56268934655776  16.6482942112019 8.06802206534423  C 16.6473496732789 8.32926824387398  16.6437514480747 8.56892506417737  16.6403331388565 8.60055946907818  C 16.6253105425904 8.73864138273046  16.6966453722287 8.94374025087515  16.7703640151692 8.97455004084014  C 16.8387303045508 9.003185915986  16.9260322578763 8.89508922987165  16.9480713885648 8.75460850641774  C 16.9634088273046 8.65693167444574  16.9916549019837 6.43960004667445  16.9777567491249 6.42528210035006  C 16.9733039439907 6.42070935822637  16.96966073979 6.38615138856476  16.96966073979 6.34844497666278  Z M 15.1035309346558 6.79544956242707  C 15.0684482310385 6.61396405484247  14.9907715414236 6.53952575845974  14.9103062170362 6.61021591015169  C 14.8651035017503 6.6499463243874  14.8296609871645 6.70706814469078  14.8296159976663 6.74035172695449  C 14.8295710186698 6.7558690781797  14.8222846102684 6.79170140023337  14.813468957993 6.81996248541424  C 14.7858525787631 6.90811900816803  14.7898556044341 8.66300368144691  14.8179217631272 8.7720748949825  C 14.8807108039673 9.01622950991832  15.0626910665111 8.96900278879813  15.0961095892649 8.69988547841307  C 15.12026268028 8.50520648191365  15.1265145927655 6.91411605017503  15.1035309346558 6.79544956242707  Z " fill-rule="nonzero" fill="#bb0d14" stroke="none" transform="matrix(1 0 0 1 129 15 )" />
  </g>
</svg>