<?xml version="1.0" encoding="utf-8"?>
<svg version="1.1" xmlns:xlink="http://www.w3.org/1999/xlink" width="18px" height="18px" xmlns="http://www.w3.org/2000/svg">
  <g transform="matrix(1 0 0 1 -129 -15 )">
    <path d="M 0.000158418903150525 0.0385064177362892  L 0.00150774679113186 0.858452100350058  C 0.0024073057176196 1.4015592882147  0.00614045740956826 1.65126117269545  0.0125722963827305 1.59781251458576  C 0.0179696394399067 1.55343439323221  0.02647043873979 1.48087018669778  0.0315529393232205 1.43649206534422  C 0.0428423733955659 1.33829049591599  0.0594841715285881 1.24893455075846  0.0800840058343057 1.17659522170362  C 0.0885848156359393 1.14675994165694  0.100683850641774 1.10223189031505  0.106980742123687 1.07779394982497  C 0.113277633605601 1.05328104434072  0.124477109684947 1.01722380980163  0.131853476079347 0.997583488914819  L 0.189470068844807 0.845258611435239  C 0.293188925320887 0.571118786464411  0.52441990781797 0.251851225204201  0.673206532088682 0.177262998833139  C 0.699950663060389 0.162447123803812  0.726480054076919 0.146575479038217  0.752772297549592 0.129661470245041  C 0.785201303383897 0.109121604434072  0.82658089848308 0.0922549183197198  0.844706971995333 0.0922549183197198  C 0.862833045507585 0.0922549183197198  0.882263457409568 0.0848335764294045  0.887885674445741 0.0757630396732786  C 0.893507901983664 0.0666175554259048  0.912623471411902 0.0557479113185529  0.93034474445741 0.0515499941656948  C 0.948110985997666 0.0473520595099181  0.746070605600933 0.0427043523920659  0.481376121353559 0.0412050875145859  L 0.000158418903150525 0.0385064177362892  Z M 17.499319571762 0.0415049474912483  C 17.2286880175029 0.0431541423570589  17.0266476476079 0.0477268844807469  17.0503059801634 0.051699906651108  C 17.0739643127188 0.0555979813302212  17.0979374982497 0.0663176954492414  17.1035597152859 0.0755381621936991  C 17.1091819323221 0.0847586289381567  17.131895747958 0.0922549183197198  17.1540248366394 0.0922549183197198  C 17.1761539253209 0.0922549183197198  17.1972485180863 0.100350927654609  17.200891722287 0.110171079346557  C 17.2045349264877 0.120066196032672  17.2148798226371 0.128087240373396  17.223920369895 0.128087240373396  C 17.2547301738623 0.128087240373396  17.4019425857643 0.245029568261376  17.5013435740957 0.348403599766627  C 17.6352425495916 0.48768491831972  17.7904610128355 0.792859445740957  17.8702966417736 1.07374594515753  C 17.9205818471412 1.25058374562427  17.9264289591599 1.28004421820303  17.9570588576429 1.50815672695449  C 17.9811669696616 1.68769319719953  17.9853948903151 16.2460394632439  17.9614217047841 16.4649315402567  C 17.8832952252042 17.178429714119  17.5445222765461 17.7716122228705  17.1363485530922 17.9096941190198  C 17.1126902205368 17.9177151633606  17.0739643127188 17.9317332497083  17.0503059801634 17.9408037864644  C 17.0216551050175 17.9518983080513  17.1713412987165 17.9581202450408  17.499319571762 17.95946957993  L 18 17.9614935822637  L 18 0.0385064177362892  L 17.499319571762 0.0415049474912483  Z M 1.82292960560093 0.506125834305714  L 1.88432432905484 0.558974772462077  C 1.91810267327888 0.588135385064177  1.9858842462077 0.636936336056009  2.03491008168028 0.667521248541424  L 2.19372677012836 0.766772310385064  C 2.23204787747958 0.790685513418903  2.26812008751459 0.818121983663944  2.27383226254376 0.827642292882147  C 2.28044604438928 0.837844582140856  2.28895074344012 0.843979812615113  2.29794037456243 0.845033716452742  C 2.31282803383897 0.845033716452742  2.39851078529755 0.905978663943991  2.5004305344224 0.989112672112019  C 2.53591803850642 1.0181233722287  2.59398440023337 1.05927806884481  2.62947189381564 1.08056758459743  C 2.66495939789965 1.10193204784131  2.70368529521587 1.12944348308051  2.71551446674446 1.1416624445741  C 2.72734363827305 1.1538814235706  2.7491128949825 1.16969861726955  2.76391060676779 1.17674515169195  C 2.80115223920653 1.19451138273045  2.86083781330222 1.23724032672112  2.89295197666278 1.26909960910152  C 2.90770469894983 1.28371739789965  2.9536720361727 1.32134884480747  2.99509661026838 1.35268338973162  C 3.15724166044341 1.47532291715286  3.57036294749125 1.82974815052509  3.66720019603267 1.92937403733956  C 3.7233774924154 1.98717054259043  3.78018448424737 2.04384259043174  3.79336298366394 2.0553119369895  C 3.83969014235706 2.09571701866978  4.00250985647608 2.27075569428238  4.06840236406068 2.35104110268378  C 4.11107006416746 2.40246549541154  4.1548000521184 2.45139607574796  4.19951271528588 2.49774376312719  C 4.2350002193699 2.53380098016336  4.29068275729288 2.60254209451575  4.32320172112019 2.65051843057176  C 4.35572068494749 2.69849476662777  4.4137870571762 2.77743085764294  4.45224309101517 2.82600689614936  C 4.57503254842474 2.9811054084014  5.01581519369895 3.72871177946324  5.08723997082847 3.90307578763127  C 5.0958307386231 3.92406544340723  5.12263751691949 3.98448563593932  5.14683558693115 4.0375594865811  C 5.18308771295216 4.11687038506418  5.29602702217036 4.3959577596266  5.35278902450408 4.54648352975496  C 5.38422852392065 4.62984243290548  5.46955145390898 4.91065394982497  5.48448409218203 4.97999476662777  C 5.49343468144691 5.02144932322054  5.50679309684948 5.06545261960327  5.51416945274212 5.07767159859977  C 5.52159079813302 5.08996554259043  5.52761782613769 5.10788170361727  5.52761782613769 5.11747697782964  C 5.52761782613769 5.12707225204201  5.54646353208868 5.20008624854142  5.56944719019836 5.27969698949825  C 5.5924758378063 5.35923276546091  5.61941755309218 5.46448086931155  5.62931268028004 5.51358166277713  C 5.63920779696616 5.56260749124854  5.65103696849475 5.61095865227538  5.65557972112018 5.62107864644107  C 5.66012248424737 5.63119865810968  5.67469529054842 5.69993975495916  5.68791877946324 5.77385331388565  C 5.70118723687281 5.8478418378063  5.72345126254375 5.95668815635939  5.73743936289381 6.01583399649941  C 5.76537059509918 6.13397574679113  5.80288209101517 6.33937445740957  5.81426147257876 6.43622669194866  C 5.8182644982497 6.47033487164527  5.82797970945157 6.51868603267211  5.83580585530922 6.54379865810968  C 5.84367696966161 6.56883631855309  5.85024373512252 6.60144523337223  5.85046861960326 6.61628791715286  C 5.85064853558926 6.63105563593932  5.8623877386231 6.70152089264877  5.87660073395566 6.77281072928821  C 5.89076875029171 6.84417553092182  5.90826511785297 6.96336677362894  5.91546157876312 7.0377301050175  C 5.92265802917153 7.11209343640607  5.93273306184364 7.17716135355893  5.93777057292882 7.18240876312719  C 5.9428530630105 7.18765617269545  5.94703600466744 7.21149442823804  5.94703600466744 7.23540761376896  C 5.94703600466744 7.25939578179696  5.960979126021 7.35369927654609  5.97807070361727 7.44500427654609  C 6.00735126371062 7.60167701866978  6.02660177012835 7.74650560676779  6.03699164527421 7.88878543757293  C 6.03955538506418 7.92326844224037  6.05115966161027 8.01202466744457  6.06285389614936 8.08593822637106  C 6.07450315169195 8.15985178529755  6.09006547491248 8.28893812718786  6.09739686231038 8.37274680280046  C 6.10468327071178 8.4564805134189  6.11561288331388 8.54928474329055  6.12163991131855 8.57882018086348  C 6.12766693932322 8.60843058343057  6.13625770711785 8.66892575845974  6.14080045974329 8.71322891481913  C 6.14534322287048 8.75760703617269  6.15690252042007 8.85033630105017  6.16652777362894 8.91937725787631  C 6.19454895332555 9.12042812135356  6.20570346091015 9.21638081096849  6.21541866161027 9.34051958576429  C 6.22045617269545 9.40461297549592  6.23493903150525 9.52155532088681  6.24766776196032 9.6004164294049  C 6.27335009684947 9.75956294632439  6.28144610618436 9.8208077537923  6.31234586814469 10.0895502392065  C 6.32399512368728 10.1909752333722  6.33825309801633 10.3039445215869  6.34396528354726 10.3405264935823  C 6.34967746907818 10.3770335005834  6.36218130455075 10.4594178763127  6.37171659976663 10.5234363010502  C 6.38129687397899 10.5875296907818  6.39308106651108 10.6601688798133  6.39793866161027 10.6847567502917  C 6.4027962672112 10.7094195857643  6.41251147841307 10.7739627654609  6.41952802333722 10.8281610385064  C 6.45798405717619 11.1248647316219  6.51703993582264 11.4610739439907  6.59737032322053 11.84083668028  C 6.62095221035703 11.9515130987407  6.64411624601296 12.0624355955732  6.66686105600933 12.1735975904317  C 6.67167368261377 12.1989350933489  6.68053431388565 12.2352172053676  6.68647139439906 12.254257823804  C 6.6986154084014 12.2931636406068  6.71246857176196 12.3487862135356  6.73311339556593 12.4412156359393  C 6.74080460443407 12.475773588098  6.75969528938156 12.5402418028005  6.7750327176196 12.584619924154  C 6.79037015635939 12.6289980455076  6.81420840490082 12.7096582613769  6.82801658926488 12.7638565344224  C 6.88905149124854 13.00358831972  7.10521489848308 13.5555411493582  7.21514069894982 13.7521692007001  C 7.257284915986 13.8275820070012  7.30217277829638 13.9122152800467  7.31499146674446 13.9404013827305  C 7.34206811901984 14.0001469253209  7.43670144924154 14.1731616161027  7.53749674445741 14.347225781797  C 7.79315068144691 14.788982957993  8.47272058109685 15.5504574679113  8.87743102683781 15.8485854609102  C 8.88926019836639 15.8572811726954  8.90621682847141 15.8717490315052  8.91507745974329 15.8805946732789  C 8.95002522637106 15.9156024154026  9.06381911551925 16.0069073803967  9.12984656009335 16.0528597316219  C 9.22389518436406 16.1183774212369  9.33624978763127 16.2034604667445  9.355995042007 16.2242252275379  C 9.36485567327888 16.2335206417736  9.37938351108518 16.2458145857643  9.38824414235706 16.2515867327888  C 9.39710477362894 16.2572839148191  9.43353680513419 16.2846454375729  9.4692042252042 16.3123817677946  C 9.50482665577596 16.3401930455076  9.5749920630105 16.3883193290548  9.62509735239207 16.4193540140023  C 9.67524762077013 16.4504636814469  9.76947616102684 16.5148569136523  9.83451408868145 16.5623834772462  C 9.89959699533256 16.6099850058343  9.9697624025671 16.6570617969662  9.99045219486581 16.6671068436406  C 10.0527464772462 16.6971670186698  10.196945369895 16.7886968961494  10.2485349346558 16.8309010851809  C 10.2751618074679 16.8526403733956  10.3327783897316 16.8901968378063  10.3766317666278 16.9143349358226  C 10.4204401645274 16.938473033839  10.4615948751459 16.9648600291715  10.4680267036173 16.9729560385064  C 10.4832741843641 16.9920716044341  10.5954038926488 17.0572144865811  10.6572034165694 17.0828518494749  C 10.6837853103851 17.0938714235706  10.7273688133022 17.1217576662777  10.7539507176196 17.1448462718786  C 10.7805775904317 17.1679348949825  10.8144458926488 17.1928226079347  10.8292435834306 17.2001689848308  C 10.8938317316219 17.2323281271879  10.9690346499417 17.3713096032672  10.9690346604434 17.4584166511085  C 10.9690346604434 17.516887823804  10.8847012473746 17.5156884189031  14.0446180816803 17.4999461726954  L 17.0718503523921 17.4848785939323  L 17.171206361727 17.4191360268378  C 17.3265147829638 17.3165116277713  17.5718687922987 16.9961945740957  17.5718687922987 16.8962688448075  C 17.5718687922987 16.8921458751459  17.5893201913652 16.8399716044341  17.6105947001167 16.7804509568261  C 17.6318692088681 16.7209303092182  17.6533236336056 16.6457423803967  17.6582711866978 16.6133583430572  L 17.6838635740957 16.4470153792299  C 17.7065324002334 16.2997879813302  17.7239837887981 1.93934411901983  17.7017647421237 1.68739335472578  C 17.6546729614936 1.15343165110851  17.4524526756126 0.743983547257873  17.1469633127188 0.56407226954492  L 17.061100655776 0.513472211201862  L 9.44199263593932 0.509799031505246  L 1.82292960560093 0.506125834305714  Z M 1.01580260093349 0.55515166277712  C 1.00874108751459 0.518194883313877  0.948695691948658 0.512572666277704  0.881948604434073 0.542632841306881  C 0.603985673278881 0.667671178529751  0.38062580513419 1.03716399066511  0.305602802800467 1.49601271295215  L 0.279740551925322 1.65418471995332  L 0.279605614935823 4.22031936406067  C 0.279560635939324 5.63172339556592  0.27474800933489 7.22206419486581  0.268990855309219 7.75437672112018  C 0.251269592765462 9.38894571178529  0.273038859976664 16.3835966394399  0.296247413068846 16.5097594340723  C 0.367897085180864 16.899492252042  0.674915691948659 17.4417748599767  0.823927211201868 17.4417748599767  C 0.836610952158694 17.4417748599767  0.868185388564761 17.4543686464411  0.894047639439908 17.4698859976663  C 0.970330022170363 17.5153885589265  10.2377852380397 17.5223601283547  10.2377852380397 17.4768575495916  C 10.2377852380397 17.4698110326721  10.2220429988331 17.4545185589265  10.2028374714119 17.4428992998833  C 10.1727701165336 17.4234088808984  10.1431811740669 17.4019273896748  10.1141412007001 17.378506050175  C 10.0808451335518 17.352171084059  10.0467339639886 17.3287997291552  10.0119515985998 17.3084905834306  C 9.92482956126021 17.2601394224037  9.88344996616103 17.2335275495916  9.87593866277713 17.2210087106184  C 9.87189065810968 17.2142620361727  9.86141082497083 17.2087897316219  9.85264015169195 17.2087897491249  C 9.84382449941657 17.2087897491249  9.81198019953326 17.1889995157526  9.78184505950992 17.1648614002334  C 9.72215948541424 17.1171849066511  9.52034401050175 16.9785032905484  9.4113177689615 16.910211966161  C 9.37371631505251 16.8866735705951  9.30265134889148 16.8353988623104  9.25331068144691 16.7961182380397  C 9.20401499299883 16.7569125787631  9.16124108051342 16.7248283838973  9.15827254025671 16.7248283838973  C 9.13947181330222 16.7248283838973  8.54032224854142 16.2326960618436  8.41501404084014 16.1143294165694  C 8.38130894219974 16.0821878285541  8.34725507312105 16.0510730032085  8.31286940723454 16.0210004492415  C 8.23051501750292 15.9530089673279  7.82508492882147 15.5090029113186  7.67566861960327 15.323244504084  C 7.48833599299883 15.0903343582264  7.02241073978997 14.3561463885648  7.02241073978997 14.2938521061844  C 7.02241073978997 14.2811083897316  7.01346015052509 14.2626674912485  7.00253053792299 14.2529222870478  C 6.91972636872812 14.1790836931155  6.60168819136523 13.3664094224037  6.47575029871645 12.9069609801634  C 6.45777676812174 12.8408529466811  6.43942498089054 12.775032397832  6.42069744574096 12.7095083313886  C 6.40252640373395 12.6508122812135  6.32021699299883 12.303508529755  6.31041182380397 12.2440628471412  C 6.30469963827305 12.2095798424737  6.28418975145858 12.1128025729288  6.26484928704784 12.0289938973162  C 6.22239022753792 11.8450346149358  6.20511874445741 11.730266201867  6.20511874445741 11.6327392998833  C 6.20511874445741 11.5915845857643  6.19657295565928 11.5387356476079  6.18564335355893 11.5119738448075  C 6.17493863593932 11.4858117444574  6.15739727887981 11.4160211551925  6.14664758226371 11.3568753150525  C 6.13594286464411 11.2977294749125  6.12298924970828 11.2355101575262  6.11786177012835 11.2185685239206  C 6.11277928004667 11.2017018378063  6.10567277712952 11.1412066627771  6.10207455192532 11.0841598074679  C 6.09847632672112 11.0271878996499  6.08673711318553 10.9401558168028  6.07594243757293 10.8909050933489  C 6.04603218203034 10.7543974095683  6.02232887047841 10.613316966161  6.02214896499417 10.5707379696616  C 6.02205900700117 10.5496733488915  6.01499749358226 10.500197747958  6.00645170478413 10.4607671936989  C 5.9979508949825 10.4213366394399  5.9907544445741 10.3507964177363  5.99048458109685 10.3040194865811  C 5.99007978063011 10.2293562952159  5.97645150175029 10.1395505775963  5.93543172812135 9.94097350641773  C 5.92935972112019 9.9114380688448  5.92144362777129 9.81061279463243  5.91789038156359 9.7169089848308  C 5.91438211435239 9.62328015752625  5.90547650408401 9.53055087514585  5.89814511668611 9.51083560676779  C 5.89081372928821 9.49112032088681  5.88154829754959 9.43632234539089  5.87754527187865 9.38917060676779  C 5.8735872252042 9.3419438856476  5.86337725554259 9.27567656359392  5.85487644574096 9.24186822637105  C 5.84642061493582 9.20805988914818  5.83949402800467 9.15543584597432  5.83949403850642 9.12485093348891  C 5.83949403850642 9.09434098599766  5.83400674795799 9.05228670945157  5.82730504550758 9.03137203617269  C 5.82060335355892 9.01053231038506  5.81142786931155 8.91225577596265  5.80693009568261 8.81300471411901  C 5.80211746907818 8.70640727537922  5.79172759393232 8.61060451575262  5.78156260326721 8.57882018086347  C 5.77207228704784 8.54928474329054  5.7642911201867 8.50783018669777  5.7642461411902 8.48676558343056  C 5.7642461411902 8.46570096266043  5.7569597327888 8.42537086347724  5.74814408051342 8.39718474329054  C 5.73928344924154 8.36892367561259  5.73204201983664 8.31315117269544  5.73199704084014 8.27327084597432  C 5.73195206184364 8.23331555425903  5.72664467677946 8.19186099766627  5.7201678798133 8.18106631855308  C 5.71369107234539 8.1702716394399  5.70438066161027 8.07791718203033  5.69947807701283 7.97581752042006  C 5.69439558693115 7.87019460910151  5.68324107934656 7.76704547257876  5.67366080513419 7.73646056009334  C 5.66439537339556 7.70685015752625  5.65661420653442 7.66254700116685  5.65634434305717 7.63788416569428  C 5.65611945857643 7.6132213302217  5.64896797666278 7.57289121353558  5.64051215635939 7.548228378063  C 5.63210130455076 7.52364050758459  5.62499481213535 7.47349023920653  5.62476991715286 7.43683330221703  C 5.62459000116686 7.40017638273045  5.61761844574096 7.34372921236872  5.60929754142357 7.31134517502916  C 5.60102162660443 7.27903610268377  5.58955227654609 7.20414803383896  5.58379512252042 7.14500219369894  C 5.5780829369895 7.08585635355892  5.56796292532089 7.01126814469077  5.56126123337223 6.97918396732788  C 5.55460452042007 6.94717475495915  5.54371988681447 6.8947006242707  5.53715312135356 6.86269141190197  C 5.53054137689615 6.83068219953325  5.52082617619603 6.75084656359392  5.51556377012835 6.68540382147024  C 5.51034634305718 6.6198861318553  5.49883202450408 6.54327390315052  5.49001636172695 6.51508781796965  C 5.48120070945157 6.48697668028004  5.47395928004667 6.44904539089847  5.47391430105017 6.43082935239206  C 5.47386932205367 6.41261333138856  5.46658291365227 6.37430721703617  5.4577222823804 6.34567135939322  C 5.44886165110852 6.31703548424737  5.43487355075846 6.27145795799299  5.42664261493582 6.24432133022169  C 5.41845664760793 6.21725966744457  5.40833664644107 6.15309131271878  5.40424365227538 6.10189155192531  C 5.40010568961493 6.0506168436406  5.38985075145858 5.99919218786464  5.38148487864644 5.98764789381563  C 5.3731639848308 5.9761035822637  5.36632735589265 5.95331481913651  5.36632735589265 5.93697288798132  C 5.36632735589265 5.92063093932321  5.35976059043174 5.89139536172694  5.35170956009335 5.87197993582263  C 5.34365852975496 5.85248954492415  5.33358349708285 5.80473808634772  5.32931060793466 5.76583226954492  C 5.32503771878646 5.72692645274211  5.31464783313886 5.67872522170361  5.30628196032672 5.65878505834305  C 5.29787110851809 5.63884489498249  5.29103447957993 5.60061374562426  5.29103447957993 5.57377697782963  C 5.29103447957993 5.54701517502916  5.286176873979 5.5200284772462  5.28019482497083 5.51388150525087  C 5.27425775495916 5.50773453325553  5.2602696546091 5.47302665110851  5.2492051050175 5.43666957409567  C 5.23511210357356 5.39079722069703  5.22079368303498 5.34511821176526  5.20625128704784 5.2996371528588  C 5.19374745157526 5.26058140606767  5.1834925134189 5.21477900233371  5.1834925134189 5.19783735122519  C 5.1834925134189 5.18089570011668  5.17746548541423 5.1560079696616  5.17004414002334 5.14251462077012  C 5.16266777362894 5.1290962368728  5.14885958926488 5.09423842473745  5.13941424154025 5.06507781213535  C 5.12992392532089 5.0359921470245  5.09650540256709 4.94356272462076  5.06511088214702 4.85982901400233  C 5.03371636172695 4.77602033838972  5.00074761843641 4.68374084597432  4.99179703967328 4.65473016336055  C 4.90548460326721 4.37481819136522  4.46636612835472 3.55254864644106  4.27012789148191 3.30344648191364  C 4.22618455659276 3.24759901400232  4.15876280513419 3.16161642357059  4.12035175029171 3.11229073512251  C 4.04153315739891 3.01013636380176  3.9603143272172 2.91323293105746  3.8768867957993 2.82180896149357  C 3.83550720070012 2.7760065402567  3.76700597432905 2.69969417152858  3.72468185180863 2.65216762543756  C 3.68231273978996 2.60464106184363  3.63877421586931 2.5604128704784  3.62788958226371 2.55381610851808  C 3.61016831971995 2.54309639439906  3.58489078529755 2.51655948658109  3.48216143523921 2.40119137106183  C 3.46610435355893 2.38320024504083  3.44847304900817 2.36850749124853  3.44294077946324 2.36850749124853  C 3.43745348891482 2.36850749124853  3.40457469311552 2.34077116102683  3.36994176896149 2.30696284130688  C 3.30346454492415 2.24196988914818  3.07853046441074 2.05343784714118  2.89830434072345 1.91160778879812  C 2.82654876507287 1.85509992523757  2.75485400235382 1.79837780382772  2.68322039789965 1.74144169778296  C 2.57378935589265 1.65440961493581  2.43840611551925 1.56198019253208  2.42028005250875 1.56198019253208  C 2.41479276196033 1.56198019253208  2.36527217852976 1.52674757292881  2.31017434655776 1.4837187864644  C 2.25512149358226 1.44068999999999  2.19795468028005 1.39983514585763  2.183201957993 1.39293854142356  C 2.16677191162199 1.38517658477971  2.15061471798776 1.37589170794849  2.13480581796966 1.36512726371061  C 2.12297664644107 1.35665644690781  2.07700931971995 1.32764574679112  2.03261620536756 1.30058408401399  C 1.98826807001167 1.27352242123686  1.94230074329055 1.2415881738623  1.93047157176196 1.2295940898483  C 1.91864240023337 1.21767497082846  1.89224042240373 1.20275732205367  1.87182049358226 1.19646043757292  C 1.85135558576429 1.19016353558926  1.80057562193699 1.15995343057175  1.75888118436406 1.12936851808634  C 1.66343824270712 1.05935305134188  1.66559718203034 1.06070236872811  1.51105339323221 0.97104658109684  C 1.44007839556593 0.929816919486572  1.36748418553092 0.885588728121344  1.34976292298716 0.872695081680272  C 1.3251100519304 0.855687854892847  1.29998379019134 0.840653123602805  1.27447004667445 0.827642292882138  C 1.16323989731622 0.771794824970819  1.03042038623104 0.631838838973154  1.01580260093349 0.55515166277712  Z M 17.0288065764294 1.15867906067678  L 17.0315502217036 2.9196357234539  L 17.0342938774796 4.68059240373395  L 14.7651627864644 4.68059240373395  L 14.7651627864644 2.92713203033839  C 14.7651627864644 1.96265761960327  14.7684011901984 1.16819935239207  14.7723592368728 1.16160262543757  C 14.7763172835473 1.15500588098016  15.285646134189 1.15163254375729  15.9041811318553 1.15410631855309  L 17.0288065764294 1.15867906067678  Z M 12.1770939591599 1.22464652275379  C 12.2024614515753 1.20425656942824  14.3406171283547 1.19443641773629  14.3721465752625 1.21460147607935  C 14.4217121376896 1.24631084597433  14.4210374632439 1.2200737806301  14.4210374737456 3.04737274795799  C 14.4210374737456 4.64296095682614  14.4197331143524 4.76799931155193  14.4030013687281 4.77332168611435  C 14.3930612730455 4.77654509334889  13.880089218203 4.77706983080513  13.263083453909 4.77452109101517  L 12.1412016546091 4.76987338389732  L 12.1413815705951 3.04489895565928  C 12.1415165075846 1.22299732788798  12.1408868121354 1.25388210035006  12.1770939591599 1.22464652275379  Z M 15.0339952228705 1.61550379813302  L 15.0339952228705 2.92413351808635  L 15.0339952228705 4.23268825554259  L 15.8969846814469 4.2281155134189  L 16.7599741400233 4.22354277129522  L 16.7599741400233 1.62472424737456  L 15.8969846814469 1.62007654025671  L 15.0339952228705 1.61550379813302  Z M 13.278106050175 1.65598384480747  C 12.5974566756126 1.65231064760793  12.4191196172695 1.65598384480747  12.4150266336056 1.67390000583431  C 12.4121930303384 1.68626891481914  12.4111135659277 2.28514860560093  12.4126428098016 3.00479373395566  L 12.4154314340723 4.31312359393232  L 14.1360579976663 4.31312359393232  L 14.1360579976663 1.66055658693115  L 13.278106050175 1.65598384480747  Z M 13.278106050175 2.36993179113185  C 13.3376566872812 2.3688073512252  13.3659927094516 2.37742809801634  13.3997710536756 2.40673864060677  C 13.7049455740957 2.67188289381564  13.6064441446908 3.49415243873979  13.2703698623104 3.48703095682614  C 12.8592275985998 3.478410210035  12.8668288494749 2.377727957993  13.278106050175 2.36993179113185  Z M 12.4907243103851 5.37917292882147  C 13.2529184737456 5.35848313302217  14.3947254434072 5.3608819428238  14.4081288378063 5.38314596849475  C 14.4301679684947 5.4198778529755  14.426434806301 8.85370963827305  14.4042607386231 8.90640864644107  L 14.3875289929988 8.94621402567095  L 13.2764418693115 8.94621402567095  C 12.3534070151692 8.94621402567095  12.163285764294 8.94209105600933  12.1532107421237 8.92192599766628  C 12.1443950898483 8.90408480163361  12.1418313500583 8.42454624854142  12.1438553523921 7.14305315635939  L 12.1465989976663 5.38854330805134  L 12.4907243103851 5.37917292882147  Z M 15.8208372252042 5.39064227537923  C 15.8677041108518 5.35653409568261  15.8617220618436 5.3559343932322  15.925815462077 5.40038747957993  C 15.9854560571762 5.44169210618436  16.0340770816803 5.55638555425904  16.0340770816803 5.65571156359393  C 16.0340770816803 5.68007455659276  16.0389346872812 5.70503723453909  16.0448267782964 5.71110925904317  C 16.0515734492415 5.71808082847141  16.055621453909 5.89919151108518  16.055621453909 6.19507060676779  C 16.055621453909 6.49094970245041  16.0515734492415 6.67206040256709  16.0448267782964 6.67895700700117  C 16.0379001913652 6.68615345390899  16.0340770816803 7.0521979638273  16.0340770816803 7.7185443815636  C 16.0340770816803 8.29718404900817  16.0299391190198 8.75131011668612  16.0245417864644 8.75678243873979  C 16.0193243593932 8.76217977829638  16.0118580455076 8.79463876312719  16.0080349253209 8.82882190781797  C 15.9931022870478 8.96158144690782  15.8948707316219 9.07140229288215  15.8137757117853 9.04606478996499  C 15.7697873978997 9.03227159859976  15.7007464445741 8.91173103850642  15.7007464445741 8.84868710618436  C 15.7007464445741 8.82462397316219  15.6958888389732 8.79996113768961  15.6899517689615 8.79388913068845  C 15.6747942462077 8.77822184947491  15.6752440256709 7.19597705950992  15.6904465274212 7.1803097957993  C 15.6980027992999 7.17251364644107  15.7012412030338 6.93015813885647  15.7002516861144 6.43997485414235  C 15.6994420851809 6.03907253208868  15.7020508039673 5.68697116102684  15.7060088506418 5.65736075845974  C 15.7257541155193 5.51028329054842  15.7573735204201 5.43681950408401  15.8208372252042 5.39064227537923  Z M 13.278106050175 5.8141084655776  C 12.5974566756126 5.81043526837806  12.4191196172695 5.81418343057176  12.4150266336056 5.83202462660443  C 12.4121930303384 5.84439353558926  12.4111135659277 6.44327322637106  12.4126428098016 7.16291837222871  L 12.4154314340723 8.47132319719953  L 14.1360579976663 8.47132319719953  L 14.1360579976663 5.81868120770129  L 13.278106050175 5.8141084655776  Z M 16.7545767969662 6.14379589848308  C 16.802073378063 6.08749865810969  16.8859120326721 6.11126194865811  16.9378164504084 6.19574527421237  C 16.9724493745624 6.25204251458576  16.9804104469078 6.27760491248541  16.9804104469078 6.33210304550759  C 16.9804104469078 6.3689098949825  16.9858977374562 6.40474223453909  16.9925994294049 6.41163882147025  C 17.0014150816803 6.42070934072345  17.0029443255543 6.52453314469078  16.9980867304551 6.78457991831972  C 16.9943985472579 6.98278218203034  16.9885514352392 7.49178119019837  16.9851780945157 7.91569717036173  C 16.9817597852975 8.339538168028  16.9748331983664 8.70250920070012  16.9697956767795 8.72222446907818  C 16.9635067193955 8.74842190449506  16.9584391903827 8.77538858496381  16.9546381540257 8.80288470245041  C 16.9460923652275 8.86757779463244  16.9062420140023 8.93676868144691  16.8475459568261 8.98879302217036  L 16.7963162240373 9.03414567094516  L 16.7558811563594 8.9990629638273  C 16.6307978331389 8.89036655775963  16.6230616452742 8.83444414235706  16.6348008588098 8.12177054842474  C 16.6400632648775 7.80137852975496  16.6451007759627 7.32956119603267  16.6459553663944 7.07326256709452  C 16.6483841691949 6.34784527421237  16.6589539603267 6.2571399941657  16.7545767969662 6.14379589848308  Z M 14.8118047876313 6.75804301050175  C 14.831819915986 6.61801205950992  14.9322104107351 6.52041019253209  15.0044897677946 6.57078535589265  C 15.0587330198366 6.6085667327888  15.1091981411902 6.68495406651109  15.1096479206534 6.72985690781797  C 15.1098728051342 6.75114640606768  15.1169343290548 6.7887778529755  15.1253901493582 6.81344068844808  C 15.1430664329055 6.86486532672112  15.1447755927655 7.33143526837806  15.1303826919487 8.17559401400233  C 15.120172722287 8.77507340723454  15.1198578798133 8.7780719369895  15.0612967596266 8.8738746966161  C 14.9218205355893 9.10198722287048  14.7453725425904 8.85176060093349  14.7704251925321 8.4614280630105  C 14.774518176196 8.39785941073512  14.779960487748 8.00767680280047  14.7824792485414 7.5944056067678  C 14.7850429883314 7.18113439323221  14.7912049428238 6.83435537922987  14.7961525064177 6.82371063010502  C 14.8011450490082 6.81314084597433  14.8081615834306 6.7836054084014  14.8118047876313 6.75804301050175  Z M 0.0125722963827305 16.4111830396733  C 0.00596055192532097 16.3633566161027  0.00222740023337231 16.6094602683781  0.0013728203033839 17.150543453909  L 0.000158418903150525 17.9614935822637  L 0.492125828471412 17.9599193523921  C 0.953778192532089 17.9584950525088  0.979145674445741 17.9567709101517  0.903492976662777 17.9323329696616  C 0.550282148191365 17.8182392240373  0.263638491248542 17.4629894107351  0.122722981330222 16.964635134189  C 0.0608784784130689 16.7458180396733  0.0501287817969662 16.6974668786464  0.031732844807468 16.554587327888  C 0.0266953337222871 16.5151567736289  0.0180595869311553 16.4506135939323  0.0125722963827305 16.4111830396733  Z " fill-rule="nonzero" fill="#fbfbfb" stroke="none" transform="matrix(1 0 0 1 129 15 )" />
  </g>
</svg>