<?xml version="1.0" encoding="utf-8"?>
<svg version="1.1" xmlns:xlink="http://www.w3.org/1999/xlink" width="19px" height="17px" xmlns="http://www.w3.org/2000/svg">
  <g transform="matrix(1 0 0 1 -129 -15 )">
    <path d="M 17.1029176579181 0.0646715349527953  C 17.0917739006252 0.0465713715922344  1.09287192741079 0.0318876927972838  1.01526840244518 0.0499151798026942  C 0.997635305386719 0.0540585976450622  0.979196635260105 0.0636538623103847  0.974318441630819 0.0713591513737139  C 0.969395492781135 0.079064440437042  0.986267771991849 0.0787736840988652  1.01173282362981 0.0707776217248331  C 1.06924177711211 0.0527501516919487  16.9799782754837 0.0522413153707434  17.0579845869834 0.0703414617587782  C 17.09817372995 0.0795732767582473  17.1111076438113 0.0779740574944309  17.1029176579181 0.0646715349527953  Z M 0.83871366620805 0.125514254800043  C 0.829897117678817 0.125514254800043  0.810652874484056 0.136636045401506  0.795928793604904 0.150302034581521  C 0.760975875581254 0.182722410098653  0.773193737264668 0.183085876737031  0.818798115606332 0.150956257558078  C 0.83857941099636 0.136999495067359  0.847574969957679 0.125586948127718  0.83871366620805 0.125514254800043  Z M 0.639871415385151 0.263337205897952  C 0.634500924780996 0.263409899225629  0.615614723349414 0.28361811817121  0.597981626290949 0.308260511297338  L 0.565892969226214 0.35303843004137  L 0.603307361674707 0.313785051447969  C 0.651373214441213 0.263409899225629  0.651507469652902 0.263264512570277  0.639871415385151 0.263337205897952  Z M 0.527896779811561 0.385458805558502  C 0.52462973231857 0.385168032247798  0.495629112314739 0.423112964888088  0.463406189588812 0.469780859234114  C 0.424247627710311 0.528147746709296  0.387443345004642 0.590549145686038  0.353221721033108 0.656597840246101  L 0.301709810341525 0.758583914288745  L 0.360740399519323 0.654489784661079  C 0.39783565128259 0.589831985176254  0.436550716019368 0.527676864358695  0.476787655654052 0.468181656942824  C 0.508115494871036 0.423040271560411  0.531119072084153 0.385822272196881  0.527896779811561 0.385458805558502  Z M 17.6007617199882 0.468036270287472  C 17.5539937372647 0.404213191895618  17.5590061861056 0.414390003182349  17.6190661349031 0.505254286623529  C 17.7446907574148 0.695415058873449  17.8881722426375 1.05727299034688  17.9193658161932 1.26262627771295  C 17.9238412232885 1.29213900498568  17.9248258067887 1.29264784130688  17.9258999007297 1.26611547257876  C 17.9316284226476 1.12131414872176  17.7465704139745 0.666992714543333  17.6007617199882 0.468036270287472  Z M 9.4364144342465 0.476395782327358  C 5.28740060955433 0.474215033414659  1.88645076368449 0.478794594250557  1.87879781953709 0.486717963296913  C 1.8693099636009 0.496458614617587  1.88287044009823 0.512450722393126  1.92158269214023 0.537093132491779  C 1.95277626569602 0.556865208443832  2.03306503073895 0.609348416251193  2.10001708493704 0.653617481701496  C 2.16692439436423 0.697886564124324  2.22385154043087 0.730597712952158  2.2264472805169 0.726308908454439  C 2.22908776537383 0.722092797284396  2.19118108639997 0.694179289275485  2.14222016057403 0.664375822637106  C 2.08732713474494 0.630479446733341  2.03313087993725 0.593677937394749  1.97971819780909 0.554030236554577  L 1.90623204862502 0.497912447226053  L 9.44321705010537 0.489189468547788  L 16.9801572963653 0.480466506842049  L 9.4364144342465 0.476395782327358  Z M 1.10625338302652 0.511433049750716  C 1.10625338302652 0.486572576641562  1.02860510284052 0.483519541741805  0.970335331510474 0.50598120292776  C 0.922000957871086 0.524662895937201  0.818798115606331 0.593283615147979  0.774536352078579 0.636171541317492  C 0.753949483620403 0.656161680280046  0.723069196607393 0.684075188288957  0.7058836413034 0.698177337435027  C 0.593909005729809 0.790422760156996  0.412520831083786 1.19262443619391  0.395648562322575 1.38627440330964  L 0.389741019523153 1.45380473957781  L 0.402898719935908 1.38227637212263  C 0.474012905135929 0.995848740850747  0.714342158518956 0.634063502704996  0.972483529842037 0.524880975920229  C 1.04104674062592 0.495877101941232  1.09305094829238 0.501328948764188  1.10030109545621 0.538328885117216  C 1.11238469147843 0.600261987907075  1.29936711193159 0.806996397581415  1.31713447465125 0.778137910257771  C 1.31919316254201 0.774794102047311  1.28603041153625 0.742373726530179  1.24346930458559 0.706028013153707  C 1.16702938400181 0.640823795481064  1.10625338302652 0.554611766203458  1.10625338302652 0.511433049750716  Z M 17.0336383845069 0.493623659700859  C 17.0100977550985 0.493769046356211  17.0017287483237 0.497330917577172  17.0150654591686 0.50147433541954  C 17.028357414793 0.505690446589583  17.0476016579878 0.505472366606556  17.0578503317717 0.501183562108836  C 17.0680990055556 0.496822081255967  17.0571790243648 0.493405579717831  17.0336383845069 0.493623659700859  Z M 17.114061415211 0.512450739365651  C 17.0904760305822 0.50736234220855  17.1063189606228 0.521464474382094  17.156667277382 0.550322961705739  C 17.4312781309323 0.707481828789646  17.6460080774656 1.10495855733531  17.6963563733259 1.54939395353771  C 17.6990863686236 1.5733094303596  17.6992653895052 1.54983009653124  17.69675915986 1.49727421236873  C 17.6788127867082 1.12015108942399  17.3489306779986 0.56260782857749  17.114061415211 0.512450739365651  Z M 2.25115152475661 0.734450357483824  C 2.23691974085233 0.735177273788057  2.23691974085233 0.736340333085818  2.25115152475661 0.74491792510873  C 2.26001282850624 0.75022440224886  2.30333475330466 0.781699781478731  2.34746224072171 0.814919766627771  C 2.39163449380867 0.848139751776811  2.4469952489594 0.887175050387186  2.47053587836779 0.901640649199109  C 2.51144108396175 0.926864571974117  2.58085461258468 0.978620880449772  2.61500195754019 1.00944203670309  C 2.62381850606942 1.01743809907712  2.65751830927045 1.03968166330752  2.68987548720807 1.05887220961069  C 2.76770277782615 1.10510396096319  2.7779514620596 1.11193694706694  2.79688241871158 1.13010980375517  C 2.80569896724081 1.13861470245041  2.84181548964628 1.16311170892118  2.87712642853411 1.1845556804922  C 2.91243737787144 1.20599965206322  2.95853404273847 1.24125499946961  2.97956845295111 1.26298972737881  C 3.00060285271426 1.28472447226053  3.051174935126 1.32390514055373  3.09194587505878 1.35000136628832  C 3.13271681499155 1.37617028535059  3.17366677580592 1.40822719422934  3.18293086608962 1.421311670733  C 3.19223971159372 1.43439613026413  3.20427855239555 1.44500908454439  3.2096937877706 1.44486368091652  C 3.21779427367248 1.44464560093349  3.50099791009944 1.67195169619179  3.55662719657256 1.72327186167391  C 3.56544374510179 1.73141329373077  3.57989930510806 1.74260777765991  3.58871584318779 1.74813233478307  C 3.59753239171703 1.7536568749337  3.6336489141225 1.78934838230614  3.66895986345983 1.82736599130158  C 3.70427081279716 1.86545629362469  3.74280404395757 1.90369199957569  3.75457436388652 1.91234226795375  C 3.76634468381546 1.92099255330434  3.80724987895993 1.96017322159754  3.84551458924746 1.99942660019094  C 3.883779299535 2.03875265513949  3.92468450512896 2.07778795374987  3.93645482505791 2.0862928524451  C 3.94822514498685 2.09472505781267  3.98434165694282 2.13019846822955  4.01674359010084 2.16501767264241  C 4.04910076803845 2.19983686008274  4.08481450390986 2.2378544860507  4.09613728208433 2.24948511297337  C 4.1074600602588 2.26111573989604  4.13395445061739 2.29411764506206  4.15498886083004 2.32283076270287  C 4.2005932391717 2.38490923517556  4.22489468642784 2.41071470457197  4.268977429074 2.44378930306566  C 4.29721723123008 2.46494250132598  4.34805783451471 2.53174593826244  4.43931134641843 2.66760620345815  C 4.45112641111827 2.68512483716983  4.4848709695397 2.72568666171635  4.51427437607761 2.75767089423995  C 4.58878987443181 2.8386491397051  5.08623114996778 3.65722731728015  5.13237258050471 3.77476935610481  C 5.15318321461537 3.82776140023337  5.17748466187151 3.88089884798982  5.18639072084153 3.89296561790602  C 5.19525202459116 3.90495971146706  5.23020493216531 3.98281222870479  5.26394949058674 4.06597122308263  C 5.29344675177283 4.13871367172614  5.3231937414892 4.21118815293359  5.35318906982009 4.28339128036491  C 5.40022557341646 4.39526339238358  5.42877866211533 4.47355205261483  5.46207567878228 4.58215304975072  C 5.50929120326025 4.73625888193487  5.5487195179296 4.84776752731516  5.54200641251154 4.8081506990559  C 5.5364121562549 4.77536685690039  5.44399503996935 4.48351078391853  5.41553146171128 4.40871130158057  C 5.36822642679252 4.28455433966267  5.2474799979101 3.99349785934019  5.21078167853846 3.91520919910894  C 5.19055365533314 3.8722985551482  5.17078432222126 3.82882256803078  5.15148255803828 3.78480076376366  C 5.08041312805866 3.61572049644638  4.64182342081889 2.89076888087409  4.51964486668176 2.74037032353877  C 4.47576215427799 2.68583720214211  4.43294138581239 2.62908585580999  4.39124549365193 2.57019969025141  C 4.35888831571431 2.52367718256073  4.30348279489368 2.45701913227962  4.26817185600585 2.42205455818394  C 4.2236816438989 2.37711134617984  4.18016921807708 2.32966351070211  4.13771379508525 2.27979743290549  C 4.07214911092147 2.20194491566776  3.9101394451314 2.03221042537393  3.86404276981487 1.99302975708073  C 3.85092983507201 1.98190796647926  3.79440546508995 1.92695325342103  3.73850765774395 1.87090815742018  C 3.64215218655845 1.77430125384534  3.23108622929692 1.43061617906015  3.06974787091381 1.31169298398218  C 3.02852938922656 1.28130797072239  2.98279074522371 1.24481687069057  2.96811141956495 1.23064204518935  C 2.93615702816141 1.19974819560836  2.87676839722043 1.15831406810226  2.83971204653512 1.14108620770128  C 2.82291297115169 1.13277096323475  2.80675580988249 1.12135665665331  2.79155668332782 1.10706661292034  C 2.77978636339887 1.09521790601464  2.74125313223846 1.06854015063117  2.70594218290113 1.04782311233691  C 2.66233455943493 1.02144795687224  2.61949025503896 0.991856025891685  2.5775428203208 0.959139560835898  C 2.49295765861474 0.891972674233586  2.39163449380867 0.819499327463669  2.38196760654139 0.819281247480641  C 2.37771597554816 0.819208554152966  2.35014748079904 0.799872638166968  2.32074407426113 0.776393304338603  C 2.29129591250283 0.752841277182562  2.26001282850624 0.734014197517769  2.25115152475661 0.734450357483824  Z M 1.33628920740521 0.784752816378489  L 1.37911883522876 0.810849042113081  C 1.40265946463714 0.825169254269652  1.43152582942928 0.843705560623742  1.44329613890872 0.852065089636153  C 1.50223722809523 0.893862666808105  1.52680719622425 0.906801739683888  1.53181965551473 0.89873298398218  C 1.53481818213483 0.89378997348043  1.52819457670806 0.884703545136312  1.51705081941518 0.878597458364274  C 1.4957427031144 0.865631839622234  1.47471115445081 0.851497363060333  1.45399236489664 0.83621835154344  C 1.43045173548825 0.819135860825291  1.39433521308278 0.800526861143525  1.3737483446246 0.794929627665218  L 1.33628920740521 0.784752816378489  Z M 1.57706600254271 0.917051227325767  C 1.55643438931364 0.911017833881406  1.58051206046779 0.930426443195079  1.63054709068427 0.960157233478308  C 1.76324284992772 1.03888205367561  1.7590359741549 1.03619246844171  1.82607753879378 1.0862041709982  C 1.8957148435187 1.13817854248436  1.91384023755203 1.1447934655776  1.87955863738484 1.1058308602949  C 1.85154260088124 1.07391932109897  1.70577865166582 0.97600397157102  1.68622113237778 0.975931278243345  C 1.67856818823038 0.975858584915669  1.65927918981522 0.965100260952584  1.64339150455424 0.951870414766099  C 1.62750381929327 0.938713261907289  1.59765286055139 0.923011910469928  1.57706600254271 0.917051227325767  Z M 0.204145979553807 1.05378379548107  C 0.226657270241558 0.974404752307204  0.22786562984378 0.965827160284291  0.213589080269598 0.988870351119127  C 0.20284810951079 1.00624359817546  0.174071255159442 1.11869723984301  0.178546662254655 1.1259663859128  C 0.180515839704628 1.12909211414024  0.192017628311187 1.09659904529543  0.204145979553807 1.05378379548107  Z M 17.0346229784566 1.14573846186486  C 17.0316244518365 1.12175029171529  14.803096476776 1.10255974541212  14.7884171511172 1.12640254587886  C 14.7784817534266 1.14254004030975  14.7793320817151 4.53875627028747  14.7892674794058 4.53875627028747  C 14.7936981312806 4.53875627028747  14.7960253400442 3.77229785085393  14.7945037043487 2.83552341147767  L 14.7917289433811 1.13229055266787  L 15.9091033455825 1.13229055266787  C 16.6615532106097 1.13229055266787  17.0283126595726 1.1381058661292  17.0319377279298 1.15009994271773  C 17.0349362545499 1.15991328736608  17.0361446037026 1.15795061843641  17.0346229784566 1.14573846186486  Z M 1.9034125428865 1.13425322159754  L 1.94087168010589 1.15220799830275  C 1.96145854856406 1.16209403627878  1.99757506052004 1.18462837381988  2.02111570037792 1.20221970085924  C 2.04465632978631 1.21981102789859  2.09281169299361 1.25092295746261  2.12812263188143 1.27134923941869  C 2.16343358121876 1.29184821470245  2.20196681237918 1.31532754853082  2.21373713230812 1.32361438421555  C 2.22550745223706 1.33190120292776  2.24716840418677 1.34411335949931  2.26189249551542 1.35072828259255  C 2.27657182117418 1.35741589901347  2.33345422246991 1.39703272727273  2.38823318065449 1.43875761111701  C 2.44305689405946 1.48048249496128  2.49233110642819 1.51464745942506  2.49779109702363 1.51464745942506  C 2.51587173583657 1.51464745942506  2.65076044863199 1.60442137689615  2.75942328149219 1.68881612389944  L 2.92447621867326 1.81697111700435  C 2.95638585485641 1.84168620345815  2.9844914018008 1.8587686941763  2.98690812100524 1.85484333934444  C 2.99192056984622 1.84670190728758  2.65286388129365 1.57527209928928  2.62032769292395 1.56138804709876  C 2.57772184120239 1.54321519041052  2.42613987007785 1.44900709875889  2.35815845626012 1.39848655988119  C 2.28064444173531 1.34076956826138  2.19274748776537 1.28516061525406  2.12812263188143 1.25295831971995  C 2.09698492016341 1.23617983679499  2.06659899932996 1.21592327798523  2.03718240652049 1.19233366288321  C 2.01068800571239 1.17074430465684  1.96973805534753 1.14886419009229  1.94619741548965 1.14370309960751  L 1.9034125428865 1.13425322159754  Z M 0.161405851721556 1.21268726848414  C 0.175145349100472 1.13985045507585  0.169282561521448 1.12749291184895  0.153305376269179 1.19575016442134  C 0.147353088698863 1.22104678052403  0.144086041205873 1.24946912485414  0.146010463435448 1.25877363318129  C 0.147890130444626 1.26815083483611  0.154827011964681 1.2474337625968  0.161405851721556 1.21268726848414  Z M 14.3901955972762 1.17779537074361  C 14.35698809105 1.1571510088045  12.2309021404065 1.16652819348679  12.2078090527526 1.18753602206428  C 12.1960387328236 1.19814897634454  12.1856110381581 1.20774424100987  12.1846264546579 1.2087619306248  C 12.1835971159372 1.20970692691206  12.1797482610286 1.23398585339981  12.1760336717811 1.26262627771295  L 12.1692310559223 1.31474603585446  L 12.1860585799126 1.26742391853188  C 12.2162675595186 1.18222956189668  12.1869536634215 1.18441031080938  13.3080426444208 1.18441029383685  C 14.3398920461868 1.18441029383685  14.3730100419722 1.18542796647926  14.3975352653303 1.21763027898589  L 14.4227765513158 1.25085026413493  L 14.4227765513158 2.93823640182455  C 14.4227765513158 3.86628786252254  14.4264016301224 4.62562253951416  14.4307875267769 4.62562252254164  C 14.4352181786517 4.62562252254164  14.4388432574583 3.8744292945794  14.4388432574583 2.95626387185743  C 14.4388432574583 1.18295647820091  14.4395145648653 1.20854385064177  14.3901955972762 1.17779537074361  Z M 17.952528567199 1.42770851384322  C 17.943846284331 1.33037469396415  17.9377597310995 1.3164906248011  17.9379834967519 1.3944158353665  C 17.9380730071927 1.42705429086666  17.942951200822 1.46550805982815  17.9488587331719 1.47990094833988  C 17.9563326564378 1.49807380502811  17.9574067608283 1.48237245359075  17.952528567199 1.42770851384322  Z M 0.386697748132151 1.46979684735335  C 0.383878242393633 1.46521728651745  0.376270053466623 1.49494807680068  0.36978071370104 1.53587335101305  C 0.361501217367074 1.58828386549273  0.357115320712656 2.55776945369683  0.354922377610199 4.82552396308476  C 0.353266476253505 6.59388834623952  0.354832867169404 7.75920463349952  0.358457945976071 7.41508339874828  C 0.36203826956234 7.07096218096955  0.365663348369007 5.61938703723348  0.366468921437155 4.1894012686963  C 0.367498260157787 2.32675610056221  0.371302359846044 1.57352752731516  0.379850377052892 1.53369261907288  C 0.38642922725927 1.50316221915774  0.389472498650273 1.47437640818924  0.386697748132151 1.46979684735335  Z M 0.103986408680054 1.49727421236873  C 0.103046569950713 1.49727421236873  0.0991529702711646 1.55397353134613  0.0954383810237029 1.62324845656094  C 0.081743638865184 1.87679616420919  0.0940062557689963 15.9284854481808  0.107969518800397 15.965994220855  C 0.118889510440795 15.9953615614724  0.119695083508943 15.9899823910046  0.113340009404552 15.9312477097698  C 0.109177878402619 15.8930120207913  0.10577657569794 12.6297484077649  0.105776565248437 8.67947811180651  C 0.105776565248437 4.72928050917577  0.104970992180289 1.49727421236873  0.103986408680054 1.49727421236873  Z M 17.9718623103851 1.58043320674658  C 17.9678344450443 1.56407763233266  17.9645673975513 4.78089143099608  17.9645674080008 8.72898097804179  C 17.9645674080008 12.6769978487324  17.9677001898326 15.8891593762597  17.9715490342918 15.8671338750398  C 17.9808578797959 15.813414914607  17.9811711558892 1.61852350906969  17.9718623103851 1.58043320674658  Z M 16.7741543983699 1.5781797645062  C 16.7697685017155 1.57374559032566  16.7661434229088 2.13833991725894  16.7661434229088 2.83283382624377  L 16.7661434229088 4.09555662671051  L 15.9047622041485 4.1044249750716  L 15.0433809749386 4.11322064707754  L 15.89997352096 4.11743674127506  C 16.5548147999791 4.12063516283017  16.7595198279315 4.11670982497083  16.7693657151814 4.10079041052297  C 16.7839107856285 4.07709299671157  16.7886547135965 1.5927180566458  16.7741543983699 1.5781797645062  Z M 15.0460662254654 2.20550680386125  C 15.0444550793291 1.8589867571868  15.0431124540657 2.1424833351013  15.0431124540657 2.83552341147767  C 15.0431124540657 3.52849079452636  15.0444550793291 3.81206006576854  15.0460662254654 3.46554001909409  C 15.0476773716017 3.11901997241965  15.0476773716017 2.55202683356317  15.0460662254654 2.20550680386125  Z M 12.4402168411153 1.60151371167922  C 12.4385609397586 1.60151371167922  12.4348911057316 1.61132705632757  12.432071599993 1.62324845656094  C 12.4292968494749 1.63516985679431  12.4282227555339 2.21982701601782  12.4297443912294 2.92238966373183  L 12.4325191417475 4.19979614299353  L 13.2932290531009 4.20430301050175  C 13.9746989881398 4.20779220536756  14.1556843762518 4.2041576238464  14.1624422368902 4.1869297464729  C 14.1732727180898 4.15916162511934  14.1741230463784 1.62375729288215  14.1632925651788 1.61292627559139  C 14.158861913304 1.60849210141084  14.1552815897177 2.18478974859446  14.1552815897177 2.89367654609102  L 14.1552815897177 4.18242287896468  L 12.4432153572859 4.18242287896468  L 12.4432153572859 2.89200465047205  C 12.4432153572859 2.18224555001591  12.4418727320225 1.60151371167922  12.4402168411153 1.60151371167922  Z M 3.09114030199063 1.92280983557866  C 3.0093299012522 1.85666063859128  2.97419796234696 1.84190428344118  3.02987201448998 1.89707705950992  C 3.04916101290514 1.91612221915774  3.06773393824344 1.93175087726742  3.07122475138891 1.93175087726742  C 3.08178671171563 1.93175087726742  3.37608935021509 2.17359526466532  3.44272812831989 2.2370548764188  C 3.47718874936868 2.26983871857431  3.50990395861997 2.29673453696828  3.51536395966492 2.29673453696828  C 3.52086870548076 2.29673453696828  3.53841229209843 2.31098205579718  3.55438948780021 2.32842799618118  C 3.65660773611522 2.44030010819985  3.68175952210941 2.46603286729606  3.69939261916787 2.4764277415933  C 3.71022310036747 2.48282458470351  3.75354502516589 2.52571252784555  3.79570333513297 2.57179890951522  C 3.83781690032916 2.61788527421237  3.90597731412947 2.69188514691843  3.94715104059632 2.73629959902408  C 4.03016350966886 2.82495314526785  4.11097826606857 2.91892011035323  4.18940472665842 3.01797889466426  C 4.22762468172556 3.06580984830805  4.29471101203434 3.14918692266893  4.33843571291733 3.20334204306778  C 4.53351861927237 3.44467759414448  4.96893078945994 4.23904952158693  5.05669347776868 4.51367773416782  C 5.07611673139553 4.57452045401506  5.14758895835873 4.76497199957569  5.15627124122677 4.77907413174923  C 5.17318827565788 4.80655149676461  5.12445111548442 4.64859302004879  5.09701687594699 4.58716875358014  C 5.07960755499051 4.54806076164209  5.06537576063672 4.50982507266363  5.06537576063672 4.5021197836003  C 5.06537576063672 4.49441449453697  5.0533816750553 4.45843223082635  5.03874710461694 4.42215921077755  C 5.00876189066337 4.34786856476079  5.01005976070639 4.35063084332237  4.9555045681743 4.24152100986528  C 4.93353032968181 4.19747000742548  4.91553920130967 4.15581781690888  4.91553920130967 4.14883944414978  C 4.91553920130967 4.14193376471836  4.89208808234208 4.09192206216188  4.86340072798203 4.03769424843534  C 4.83475813929187 3.98346643470881  4.809472098086 3.92938402461016  4.80723439976314 3.91738993104911  C 4.80226669569306 3.89071217566564  4.40037531827444 3.23525356529118  4.38900778487957 3.23525356529118  C 4.38448762256396 3.23525356529118  4.3496242149811 3.19222023549379  4.31144901513436 3.13966435133128  C 4.27327380483812 3.08710845019624  4.23867892857765 3.04407512039885  4.23456156324561 3.04407512039885  C 4.23044418746408 3.04407512039885  4.19934012434908 3.0049671284608  4.16550605548686 2.95713617481701  C 4.13171674184503 2.9093779145009  4.09927006391612 2.87026992256285  4.0934967867779 2.87026990559032  C 4.08767876486877 2.87026990559032  4.06279551019697 2.84286523390262  4.03813603162716 2.80942718574308  C 4.01347655305735 2.77598912061101  3.98854854316515 2.74858446589583  3.98273051080653 2.74858446589583  C 3.9769124888974 2.74858446589583  3.95162644769153 2.7212524875358  3.92647467214685 2.68774172907606  C 3.90132289660217 2.65430366394399  3.87375440185305 2.62697170255649  3.8651616189763 2.62697170255649  C 3.85656883609955 2.62697170255649  3.8356687019976 2.60349236872812  3.81875166756648 2.5747792510873  C 3.80183463313537 2.54613882677416  3.78232186906773 2.52265949294579  3.77542975321758 2.52265949294579  C 3.76849287169752 2.52265949294579  3.75054649854578 2.50703083483611  3.73559864156464 2.48791299883314  C 3.7206507845835 2.46879514585764  3.70283867709295 2.45316648774796  3.69608081645448 2.45316648774796  C 3.68932295581602 2.45316648774796  3.66600609206012 2.43034137689615  3.64425562966962 2.40250056221491  C 3.62254991205002 2.37465974753368  3.56199768717672 2.31614314628195  3.50976970340828 2.27252828683568  C 3.45749697486895 2.22884073406174  3.39967473484387 2.17446755065238  3.38123606471725 2.15164243980057  C 3.36279739459064 2.12881732894876  3.33317021195075 2.10497454545454  3.31540285968059 2.09857770234433  C 3.29763549696094 2.09225355256179  3.26156374022536 2.06390388458682  3.23524834984935 2.03555423358438  C 3.20897772514325 2.00720458258194  3.18261758999634 1.98387063540893  3.17675480241732 1.9836525554259  C 3.1708472700674 1.98343447544287  3.13235878367788 1.95610249708285  3.09114030199063 1.92280983557866  Z M 13.3694451975827 2.29811567624907  C 13.3550343927968 2.29927873554683  13.354944882356 2.30080526148297  13.3687738901757 2.30916477352286  C 13.3776351939254 2.31447125066299  13.3944627179157 2.32602918425798  13.4062330273951 2.33482483929139  C 13.4273121823787 2.35052619072876  13.4273121823787 2.3503808040734  13.4068595900312 2.32377574201761  C 13.3954473118654 2.30887400021215  13.3786197878751 2.29731606661716  13.3694451975827 2.29811567624907  Z M 13.4419467632665 2.34885429510979  C 13.4364867726711 2.34885429510979  13.4589532976889 2.38992495597751  13.4919370382626 2.44008202821682  C 13.5387945314269 2.51139231568898  13.5575017224264 2.55602486475018  13.5775067834689 2.64434494961281  C 13.5915595569411 2.7064234220855  13.6033298664205 2.74778485626392  13.6036431529633 2.73622692266893  C 13.6061493826085 2.64201883101729  13.4837918075898 2.34885429510979  13.4419467632665 2.34885429510979  Z M 13.1246852923248 2.38360078922245  C 13.1198966091363 2.38360078922245  13.1038299029938 2.40511745412114  13.0889715669029 2.43143175983876  C 13.0467685017155 2.50608585552137  13.0194237726188 2.57877728227432  13.0121736150055 2.63562197093455  C 13.0058185409011 2.68563367349103  13.0060423065536 2.68599712315689  13.0172308190669 2.64434494961281  C 13.0457839077657 2.53836084438315  13.0550927428203 2.51466344754429  13.093088932235 2.45105844913546  C 13.115242191609 2.41398581945476  13.1294739755133 2.38360080619497  13.1246852923248 2.38360078922245  Z M 12.9996424772288 2.83385149888618  C 12.9996424772288 2.68163564230402  12.9995082115676 2.68003644001273  12.9903336317247 2.73557269969237  C 12.9813828175343 2.78994588310173  12.9822779010432 2.92689653124005  12.9917657674289 2.95117547470033  C 12.9961069088629 2.96222457197412  12.9996424772288 2.90937789752837  12.9996424772288 2.83385149888618  Z M 13.6115646179836 2.80492031823486  C 13.6088793779063 2.78827398748276  13.6067759347951 2.80593799087727  13.6069102004563 2.84417367985573  C 13.6069997108971 2.8824093688342  13.6091926539995 2.89600266468654  13.6117883940856 2.87441332343269  C 13.6143393789512 2.85275127187865  13.6142498685104 2.82149395565928  13.6115646179836 2.80492031823486  Z M 13.600062829377 2.92725999787843  C 13.5964377505704 2.92137199108942  13.5934839791707 2.92544271560411  13.5934839791707 2.9362010395672  C 13.5934839791707 3.00198678688872  13.5437174698271 3.15696490505993  13.4991424406555 3.23009247480641  C 13.4638314913182 3.28795485308157  13.4587742872568 3.30111200594038  13.4819568853515 3.27472502386761  C 13.5386155105453 3.21010233584385  13.6224398544036 2.96360571125491  13.600062829377 2.92725999787843  Z M 13.0251075288667 3.06101222446165  C 13.0089065675125 2.9832324005516  12.9997767324405 2.96811257876313  13.0095778749194 3.03535214172059  C 13.0137847506923 3.06406525936141  13.0217957261534 3.09517718892543  13.0274347480799 3.10448169725257  C 13.0330737595569 3.11385889890739  13.0319996656159 3.09430490293837  13.0251075288667 3.06101222446165  Z M 13.0531235653703 3.17601006470775  L 13.0852569776555 3.23329089636151  C 13.1547152614988 3.35737516495173  13.2937661052962 3.42323360560093  13.3687738901757 3.36762466956614  C 13.3894055034048 3.35235946112231  13.3941941865933 3.34567186167391  13.3795148609345 3.35272292776069  C 13.2897382295059 3.39590164421343  13.1788376983229 3.34887028322902  13.0935812292098 3.23154630741487  L 13.0531235653703 3.17601006470775  Z M 17.7211501175569 5.16004991619815  C 17.719583726641 4.68930023125066  17.718285856598 5.0744921098971  17.718285856598 6.01599147979208  C 17.718285856598 6.95756355998727  17.719583726641 7.34275543863371  17.7211501175569 6.87200573671369  C 17.7227165084728 6.40118335843853  17.7227165084728 5.63087227750079  17.7211501175569 5.16004991619815  Z M 12.3923747540013 4.60403316431526  C 12.2702409446351 4.60156165906439  12.1703499050837 4.60541430359605  12.1703499050837 4.61261075633818  C 12.1703499050837 4.61973451575263  12.3232297462512 4.62395062692267  12.5100779114927 4.62191526466532  C 12.849492631359 4.61820800678901  12.8111384106306 4.61239269332768  12.3923747540013 4.60403316431526  Z M 5.15931452306728 4.79077745199958  L 5.18455579860325 4.85518206004031  C 5.19842955119386 4.8906554704572  5.21158724115711 4.91137254269651  5.21378019470907 4.9011230380821  C 5.21592839304063 4.8909462437679  5.20456085964576 4.86194235281638  5.1884941639527 4.83664573671369  L 5.15931452306728 4.79077745199958  Z M 5.58519407164876 4.95585968812984  C 5.56966441770146 4.89865153283123  5.54715312701371 4.84406026943885  5.54701886135252 4.86317812241434  C 5.54688459569132 4.88106020579187  5.56420441665651 4.9444471411902  5.59132536965116 5.02535269332768  C 5.60349847611418 5.06169840670415  5.62699435030217 5.14347626180121  5.64802876051481 5.2227826116474  C 5.65782989254428 5.25963716134507  5.66830234243021 5.28580608040734  5.67134561382121 5.28086306990559  C 5.67438888521222 5.27592005940384  5.65782989254428 5.2066451172165  5.63455778400878 5.12690262437679  C 5.61790102452719 5.07004283335031  5.60144618040806 5.01302757418395  5.58519407164876 4.95585968812984  Z M 5.2365600062697 4.96450997348043  C 5.22443165502708 4.94670056645804  5.21516756474338 4.9417575559563  5.21516757519288 4.95317010289594  C 5.21516757519288 4.96421920016972  5.21982199272018 4.97323293518617  5.22555051463801 4.97323293518617  C 5.23127903655585 4.97323293518617  5.24045361639875 4.9986749379442  5.246003117435 5.02971417418054  C 5.2552672077187 5.08176123899438  5.25611753600725 5.08270621830911  5.25701260906669 5.04112673809271  C 5.25750490604156 5.01626626498356  5.24833032619865 4.98181052720908  5.2365600062697 4.96450997348043  Z M 5.29004110486076 5.17029940384003  C 5.2724080078023 5.12508534210247  5.25795244779603 5.09564530815742  5.25795244779603 5.10480442982921  C 5.25795244779603 5.11403624482868  5.2693199811909 5.14878273894134  5.2831937337815 5.18207541741805  C 5.29706748637211 5.21536809589477  5.31170206725997 5.25949179166224  5.31572992215121 5.28013615360136  C 5.31971303227155 5.30078051554047  5.33000646127589 5.32716751458576  5.33864399937303 5.33879812453591  C 5.34723678224978 5.3503560581309  5.35426316376113 5.38059570170786  5.35426316376113 5.40596501113822  C 5.35426316376113 5.43133432056858  5.3608867587384 5.4675346472897  5.36903199986067 5.48643442028217  C 5.37713248576256 5.50526149994696  5.38621755516467 5.53637342951098  5.38917132656438 5.55549128248648  L 5.39458656193943 5.59023777659913  L 5.39548164544837 5.55549128248648  C 5.39597394242324 5.53637342951098  5.38930558177607 5.50555227325766  5.38066805412843 5.48694325660337  C 5.37203052648078 5.46840695024928  5.36495937929954 5.43242468653866  5.36495937929954 5.4070553771083  C 5.36495937929954 5.38168606767795  5.35533725770216 5.3428688490506  5.34356694822272 5.3208433478307  C 5.33179662829377 5.2988178466108  5.32217450669639 5.2743935334677  5.32217450669639 5.26661555107669  C 5.32217450669639 5.25883756868569  5.30771894669012 5.21551348255012  5.29004110486076 5.17029940384003  Z M 14.4259988435884 5.22002033308582  C 14.4126621327435 5.19843097485945  13.2765357947718 5.19610485626392  12.5181336421742 5.21616768855415  L 12.1757203956878 5.22525411689827  L 12.1729904003901 6.92659700010608  C 12.1709764677197 8.16925696828259  12.1735274525854 8.63426403309642  12.1822992458942 8.6515646037976  C 12.1923241540257 8.67111859976663  12.3814995280308 8.67511663095364  13.299942158519 8.67511663095364  L 14.405501485571 8.67511663095364  L 14.4221499886797 8.6365174753368  C 14.444213737613 8.58541540681022  14.4479283268604 5.25563913015806  14.4259988435884 5.22002033308582  Z M 15.8779992824675 5.19966674445741  C 15.872136505338 5.19966674445741  15.8613507793587 5.2058455075846  15.8541006112959 5.21333273363742  C 15.846223901496 5.22147416569428  15.8559355230847 5.22699872281744  15.8779992824675 5.22699872281744  C 15.9000630314008 5.22699872281744  15.9097746634389 5.22147418266681  15.9019426984099 5.21333273363742  C 15.8946477855762 5.20584552455712  15.8839068148174 5.19966674445741  15.8779992824675 5.19966674445741  Z M 12.5207293718107 5.22954292139599  C 13.7823013218621 5.21158814469078  14.4151236071684 5.21638576853718  14.4216129469339 5.24400850323539  C 14.4355314547449 5.30288855415296  14.4288631045473 8.59740948339875  14.4147655758547 8.62852142993529  C 14.4022791932984 8.65599879495067  14.3255707518417 8.65774338389732  13.2939003605078 8.65359996605495  L 12.1864166112262 8.64909309854673  L 12.1836866159285 6.94171682189456  L 12.1809566206308 5.23441323857007  L 12.5207293718107 5.22954292139599  Z M 15.9682234452011 5.25934640500689  C 15.9268259530817 5.22459989392171  15.9128626796008 5.22837986209823  15.9529175569062 5.26348980587674  C 15.9705954091851 5.27897307733107  15.9910480119821 5.30405163042325  15.9984324248071 5.31924414553941  C 16.0103817551681 5.34388653866554  16.0110978177955 5.34352308899968  16.0051455406747 5.31582764400127  C 16.0014757066476 5.29874515328312  15.9848719587593 5.27337584385276  15.9682234452011 5.25934640500689  Z M 5.68674101255682 5.33821659488703  C 5.67519446872986 5.29612826137689  5.67501544784827 5.29641901771507  5.68110200107978 5.34686688023761  C 5.68454805900486 5.37557999787843  5.69909312945192 5.43962113928079  5.713414423797 5.48919669884375  C 5.72773571814208 5.5387722584067  5.73946128285062 5.58900202397369  5.73946128285062 5.60070534422404  C 5.73946128285062 5.61248135780206  5.74254930946202 5.61713361196563  5.74626389870949 5.61102752519359  C 5.75423011895017 5.59808845231781  5.73968504850311 5.53135772568155  5.68674101255682 5.33821659488703  Z M 16.0330273115171 5.40770960008486  C 16.0256428882426 5.38939135674127  16.0245240390811 5.39971353771083  16.02935747749 5.44245611117004  C 16.037860749926 5.51747367349104  16.0439473031575 5.53157580566458  16.0437235270555 5.47582146600191  C 16.0436340166147 5.45270559881192  16.0388005782058 5.42210250556911  16.0330273115171 5.40770960008486  Z M 15.7313850049635 5.44012997560199  C 15.7280284470297 5.40538346451681  15.7265068113342 5.40778229341254  15.721583872934 5.45604940702238  C 15.7180483045682 5.49057783812454  15.7196594507045 5.5067880258831  15.7255669830544 5.49719276121778  C 15.7309822184294 5.48839710618436  15.7335779585155 5.4627370234433  15.7313850049635 5.44012997560199  Z M 16.0572392483324 5.54073492733637  C 16.052853351678 5.53630075315583  16.0492282728713 5.74630629468548  16.0492282728713 6.0073411944415  C 16.0492282728713 6.26837611117004  16.052853351678 6.47830895937201  16.0572392483324 6.47387478519147  C 16.0616699002072 6.46944061101093  16.0652949790139 6.25950776280895  16.0652949790139 6.0073411944415  C 16.0652949790139 5.75517462607404  16.0616699002072 5.54516908454439  16.0572392483324 5.54073492733637  Z M 5.39955426600951 5.59023777659913  L 5.39865918250057 5.62498428768431  C 5.3981668855257 5.6441021406598  5.40483524617287 5.67492329691312  5.41347277382051 5.69345960326721  C 5.42211030146815 5.7119959096213  5.4291814486494 5.74041827092394  5.4291814486494 5.75655576535483  C 5.4291814486494 5.77262056645804  5.43611833016945 5.79515492097168  5.44457683693551 5.80664016123899  C 5.45308010937146 5.81805270817863  5.46198615789198 5.84829235175559  5.46435813232554 5.87387974116898  C 5.46825173200508 5.91524115837488  5.46892304986154 5.91407809907712  5.47035517511625 5.86341217354407  C 5.47138451383688 5.82692107351225  5.46619304411432 5.80278751670733  5.45589961510998 5.79639067359711  C 5.44645390056495 5.78932807944616  5.44025845607316 5.77423372377525  5.43987766418781 5.75735537498674  C 5.43987766418781 5.7413632672112  5.43320931399014 5.71286821258088  5.42510882808826 5.69404114988862  C 5.41628981703312 5.67279365799125  5.40948587689424 5.64951497935807  5.40492474616416 5.62498428768431  L 5.39955426600951 5.59023777659913  Z M 14.1584591267699 5.63712375092819  C 14.1398861909821 5.6069568006789  12.4586107560215 5.6069568006789  12.4399930650133 5.63712375092818  C 12.4178398056392 5.67317870796648  12.4218229157596 8.21621563593932  12.4441104407949 8.23009970510236  C 12.4791081035894 8.25190712633924  14.1448538950522 8.24187571868038  14.1584591267699 8.21977752413281  C 14.1770768073286 8.18961057388353  14.1770768073286 5.66729070117747  14.1584591267699 5.63712375092819  Z M 5.75024700882983 5.62498428768431  L 5.75673634859541 5.70320025458788  C 5.76027191696128 5.74623358438527  5.76989403855866 5.79377378169089  5.77808402445184 5.80882091015169  C 5.78627402079451 5.82394073194017  5.79298712621258 5.84887388140448  5.79298712621258 5.86428447650366  C 5.79298712621258 5.87969505463032  5.7972387572058 5.89663215869312  5.80247499259827 5.90186594250557  C 5.80766646232083 5.90709972631802  5.81549841690033 5.94075585446059  5.81988431355474 5.97673810119868  C 5.82427021020916 6.01264767158163  5.8298197112454 6.03314664686539  5.83228118567025 6.02224293624695  C 5.83644331667218 6.00399738623104  5.82700020550689 5.95674796223613  5.77034158031314 5.71185053993848  L 5.75024700882983 5.62498428768431  Z M 14.1552815897177 5.64235753474064  L 14.1552815897177 6.92848697570807  L 14.1552815897177 8.21461643364803  L 12.4432153572859 8.21461643364803  L 12.4404406067678 6.94586023973693  C 12.4389189710723 6.24802252254164  12.4399930650133 5.66729070117747  12.4428125707518 5.65529660761642  C 12.446885191313 5.63799605388777  12.6243350006096 5.63436147236661  13.3015980598757 5.63792336056009  L 14.1552815897177 5.64235753474064  Z M 5.47487533743186 5.92040224885966  L 5.47344320172765 5.96488941126552  C 5.47263762865951 5.98938641773629  5.47903745798429 6.024569071815  5.48767499608144 6.04310537816909  C 5.49631252372908 6.06164168452318  5.50351792612202 6.0686200742548  5.5037416917745 6.05858864962342  C 5.50392071265609 6.04855722499204  5.49966907121336 6.03292856688236  5.49425383583831 6.02384215551077  C 5.48888334523416 6.01475572716665  5.48230450547728 5.98778719847247  5.47966402062035 5.96387172165058  L 5.47487533743186 5.92040224885966  Z M 16.8303654818092 5.93406823803967  C 16.8009173200509 5.93421362469502  16.7901315940717 5.93763012623316  16.8064220658667 5.94162814044765  C 16.8226677824414 5.94562617163467  16.846745464045 5.94548078497931  16.8599031644578 5.94133738410947  C 16.873060854421 5.93726665959478  16.8597688987966 5.933995544712  16.8303654818092 5.93406823803967  Z M 16.8976755777704 5.94649847459425  C 16.8929764050227 5.94649847459425  16.9084165485292 5.97477543226902  16.9319571779376 6.00937655669884  C 16.9631507514934 6.05509947173014  16.9752343475156 6.08701099395354  16.9763979518975 6.126700532513  L 16.9780090980337 6.18114640925003  L 16.9825740155698 6.13113470669354  C 16.9869599122242 6.08344912273258  16.9239909576969 5.94649847459425  16.8976755777704 5.94649847459425  Z M 5.84646822480364 6.06818393126127  C 5.83724888974033 6.04499537074361  5.83608528535851 6.04499537074361  5.836085274909 6.06818393126127  C 5.836085274909 6.08250414341784  5.8407844476567 6.10598347724621  5.84646822480364 6.12030367243025  C 5.85568755986695 6.14349223294792  5.85685116424877 6.14349223294792  5.85685116424877 6.12030367243025  C 5.85685116424877 6.10598346027368  5.85219674672147 6.08250412644532  5.84646822480364 6.06818393126127  Z M 5.5254474093941 6.14240186697783  C 5.51367708946516 6.11812292351756  5.50405496786778 6.10554731728015  5.50405497831728 6.11448835896892  C 5.50405497831728 6.12342940065769  5.50938071370104 6.13942152540575  5.51591479823752 6.14996178635833  C 5.5224488932235 6.16057474063859  5.53157871784601 6.19539392807892  5.53623313537331 6.22730546727485  C 5.54446787648688 6.28393209292458  5.54469165258886 6.28415015593508  5.54576574652989 6.23602842898059  C 5.54639229871645 6.20884183727591  5.53721771887354 6.16675350376578  5.5254474093941 6.14240186697783  Z M 16.6754717184207 6.22890466956614  C 16.6806631881433 6.13578694388459  16.6789625315662 6.11884983982179  16.6688033577736 6.16195586294686  C 16.6656258207214 6.17525840246102  16.6647307372124 6.21632904635621  16.6666999251119 6.25318361302641  C 16.6701012278166 6.3152620854991  16.6707277904526 6.31344480322478  16.6754717184207 6.22890466956614  Z M 5.85837279994426 6.14639989816484  L 5.86436984273498 6.22461588204095  C 5.86768164544837 6.26757651851066  5.87707999094376 6.32391237084969  5.88518047684564 6.34971782327358  C 5.89332571796791 6.37552327569747  5.89999406816558 6.41179629574626  5.89999406816558 6.4302599257452  C 5.89999406816558 6.44879623209929  5.90764701231299 6.48630502174605  5.91700060258799 6.51370969343375  C 5.93270927741688 6.55950530179272  5.93347009526463 6.56001413811393  5.92698075549905 6.52003384321629  C 5.9230871558195 6.4961183663944  5.9152551907905 6.44596127718256  5.90952667932217 6.40859789116368  C 5.90379815740434 6.37116181181712  5.89569768195196 6.33205381987907  5.89149079572963 6.32165892860931  C 5.8873286647277 6.31126405431208  5.87815408488479 6.26757650153813  5.87112770337344 6.22461588204095  L 5.85837279994426 6.14639989816484  Z M 17.0041454675282 6.35931310491142  C 17.0021762900782 6.28044289805877  17.0005651439419 6.34492019942718  17.0005651439419 6.50266059615996  C 17.0005651439419 6.66040099289275  17.0021762900782 6.72487829426116  17.0041454675282 6.64608078073618  C 17.0061593895023 6.55051953999322  17.0061593895023 6.45487434565439  17.0041454675282 6.35931310491142  Z M 5.56326458837666 6.31911473003076  C 5.55462706072902 6.30057842367667  5.54737690311569 6.29360003394505  5.5471978822341 6.30363145857643  C 5.54701886135251 6.31366288320781  5.55127050279523 6.32936421767264  5.55664098294989 6.33845066298929  C 5.56205621832494 6.3475370913334  5.56863506853132 6.37450562002758  5.57127556383775 6.39834838654927  L 5.57606424702624 6.44181787631272  L 5.57749637228094 6.39733071390686  C 5.57830194534909 6.37290640076376  5.5719021160243 6.33772374668505  5.56326458837666 6.31911473003076  Z M 15.0059218377192 6.36505572504508  C 14.9841266096588 6.34019525193593  14.975578592452 6.34179447119974  14.9230373325902 6.38053899649942  C 14.8980198227068 6.39900262649835  14.8775224646894 6.4179023825183  14.8775224646894 6.42262733000955  C 14.8775224646894 6.42735227750079  14.8993176927498 6.4155035705951  14.92599110399 6.3963857176196  C 14.9544994374684 6.37588674233584  14.9842161200996 6.36607339768749  14.9982241383514 6.37239754747003  C 15.0168865741305 6.38097513949295  15.0185424754872 6.37937592022913  15.0059218377192 6.36505572504508  Z M 15.0339826294432 6.38097513949295  C 15.0285673940682 6.38097513949295  15.0437390167018 6.40409100668293  15.0677271774151 6.43229528800254  C 15.091715348578 6.46049956932216  15.1134210661976 6.50157021321735  15.1160168062836 6.5235230380821  C 15.1205817238196 6.5621948700541  15.1207607342517 6.56226756338178  15.1221928595064 6.52563109366713  C 15.1235802399902 6.48950346027368  15.0574337484108 6.38097515646547  15.0339826294432 6.38097513949295  Z M 5.58053964367195 6.44181787631272  L 5.58358292551246 6.52003384321629  C 5.58523882686915 6.56306717301368  5.59257849492328 6.62565448180757  5.59982864208711 6.65909254693964  C 5.62202665668158 6.76107862098228  5.6341102422543 6.82177597114671  5.64310581166512 6.87629454121141  L 5.65169858409237 6.92848697570807  L 5.65241465716923 6.87629454121141  C 5.6528621989237 6.84765411689827  5.64610433828523 6.80898228492627  5.63746680018809 6.79044596159966  C 5.62882927254045 6.77190965524557  5.6217581253592 6.7381808168028  5.6217581253592 6.71542839927867  C 5.6217581253592 6.69274867508221  5.61598484822097 6.65705718468229  5.60886896671833 6.63619474276016  C 5.60179782998659 6.61533230083802  5.59253373970288 6.56306717301368  5.58828209826015 6.52003384321629  L 5.58053964367195 6.44181787631272  Z M 14.84203250492 6.50876666595948  C 14.8390787335203 6.50396902514055  14.8333949772723 6.51683542166119  14.8293671014821 6.53740709027262  C 14.8253839913617 6.55797875888406  14.8244889078528 6.57869581415084  14.8274426792525 6.58349345496977  C 14.8303964506522 6.58829109578869  14.8360802069002 6.57535202291291  14.8401080722409 6.55478035430148  C 14.8440911823612 6.53420868569004  14.8449862658702 6.51349163042325  14.84203250492 6.50876666595948  Z M 16.0385320573329 6.4939376174817  L 16.0331615771783 7.49678857749019  C 16.0302078057786 8.04837113822001  16.0314609206012 8.49367882040946  16.0359363276964 8.48640967433966  C 16.0404117347916 8.47921322159754  16.0428284539961 8.0279448392914  16.0413068078511 7.48363142463138  L 16.0385320573329 6.4939376174817  Z M 5.94814942092339 6.62434605282699  C 5.9401832006827 6.59083531133977  5.93333582960344 6.57629701920017  5.93288828784897 6.59192566033733  C 5.9324407460945 6.60755431844701  5.93910909629217 6.64666231038506  5.94770187916892 6.67879192956402  C 5.96730415367735 6.75206488596584  5.96766218499103 6.70663274424525  5.94814942092339 6.62434605282699  Z M 14.8156723697731 6.60690009547046  C 14.8140164684164 6.60697278879813  14.8104361448301 6.61671344011881  14.8077061495324 6.62863484035218  C 14.8050209094551 6.64062893391323  14.8007692680123 6.9749368070436  14.7983525488079 7.37168661928503  C 14.795891074383 7.76836373819879  14.7905653389993 8.14337882253103  14.7864927288877 8.20502115201018  C 14.7769601177311 8.34989516919487  14.8224749856319 8.60496938580673  14.8623060868354 8.62982985891588  C 14.869869520542 8.63455480640713  14.8645885403786 8.61100277925109  14.8506252773472 8.57749203776387  C 14.8093620404396 8.47870438527633  14.7892227241854 8.33891876524875  14.7972784548669 8.20727459425056  C 14.8042600916073 8.09293097698101  14.8213561364705 6.60690009547046  14.8156723697731 6.60690009547046  Z M 15.153073156969 6.71840875782327  C 15.1501641407896 6.71368381033203  15.1441670979989 7.08593661610268  15.1398259565649 7.54563720377639  C 15.1354400599105 8.00533779145009  15.1342317003083 8.3852959032566  15.1371407164876 8.39002085074785  C 15.1400497326669 8.3947457982391  15.1460020202372 8.02249299246844  15.1503879168916 7.56286508114989  C 15.154773813546 7.10316449347618  15.1559821731483 6.72320638166967  15.153073156969 6.71840875782327  Z M 5.96484268970202 6.75468177787207  L 5.97057120117035 6.84983484883844  C 5.97370398300215 6.90217266999045  5.98014856754733 6.95298398217885  5.98493725073583 6.96279734379973  C 5.98968117870392 6.97261068844808  5.99688658109686 7.01578938792829  6.0009144464376 7.05882271772568  C 6.00494231177834 7.10185604752307  6.01523574078267 7.16051801845762  6.02382852365942 7.18915844277076  C 6.03237655131577 7.21787156041158  6.0365834270886 7.22564954280259  6.03313736916353 7.20653168982709  C 6.02664151676476 7.1662692921872  6.02085099027679 7.12571536092013  6.01577279297794 7.08491894346027  C 6.00964148452603 7.03708798981649  6.00042214946273 6.98235133976875  5.99532019018096 6.96323348679325  C 5.99021823089919 6.94411563381776  5.98126741670876 6.88937900074255  5.97544939479964 6.84154803012623  L 5.96484268970202 6.75468177787207  Z M 5.66123120569847 6.97624525299671  C 5.65854596562114 6.95952622891694  5.65635301206918 6.97319221809696  5.65635301206918 7.00670295958417  C 5.65635301206918 7.04014102471624  5.65854596562115 7.05380699692373  5.66123120569847 7.03708797284396  C 5.66396120099619 7.02036894876419  5.66396120099619 6.99296427707648  5.66123120569847 6.97624525299671  Z M 15.7012207805779 7.60626186061313  C 15.7073968442502 6.89563045719741  15.7076653651231 6.9502217205898  15.6979089778645 6.96614113503766  C 15.6939706229645 6.9724652848202  15.6918671798534 7.26381253845338  15.6931650498964 7.61353100668293  L 15.6955817691008 8.24936292776069  L 15.7012207805779 7.60626186061313  Z M 5.69980919207929 7.24912887663096  C 5.69224575837268 7.153103502705  5.68593543948868 7.13812906757187  5.68611444992077 7.21670850111382  C 5.68624871558196 7.24934695661398  5.69072411222767 7.28736456560942  5.69609460283183 7.30124863477246  C 5.70244967693622 7.31753151585871  5.70374754697923 7.29914057918744  5.69980919207929 7.24912887663096  Z M 6.06965666765358 7.39771015169195  C 6.06956715721278 7.36143713164316  6.04119308939551 7.22826643470882  6.04007424023408 7.2586514479686  C 6.0397162089204 7.26824671263393  6.04625030390638 7.31128004243132  6.05457455546075 7.35431337222871  C 6.06294356223551 7.39727400869842  6.06970142287397 7.41682800466745  6.06965666765358 7.39771015169195  Z M 16.9801125411449 7.2586514479686  L 16.9747868057612 7.86177223719105  C 16.9718330343615 8.19346321841519  16.9731309044045 8.45893232629681  16.9776063114997 8.45159048689933  C 16.9821264738153 8.44432134082953  16.9844984377993 8.17289154980376  16.9829768021038 7.84846969767689  L 16.9801125411449 7.2586514479686  Z M 5.72106736794442 7.35220531664368  C 5.71569687734027 7.34340966161027  5.71404098643308 7.36470824652594  5.71721852348527 7.40207163254482  C 5.72232048276704 7.46204206640501  5.72308130061479 7.46327781903045  5.72661686898066 7.41733684098865  C 5.72872031209183 7.38985947597327  5.72621408244659 7.36056482868357  5.72106736794442 7.35220531664368  Z M 16.647947978892 7.41508339874828  L 16.6455312596876 7.72961921289912  C 16.6441886344242 7.90262481807574  16.6409215973807 8.11764606343482  16.6382811020742 8.20756535058874  L 16.6334924188857 8.37097569110003  L 16.6437410926697 8.21461643364803  C 16.6493801041467 8.12854977405325  16.6526471516397 7.91345585233903  16.650991250283 7.73667027898589  L 16.647947978892 7.41508339874828  Z M 6.08160600846411 7.49329938262438  C 6.07623551785995 7.46698509387929  6.07520617913932 7.49707933382837  6.07896551315768 7.56969806725364  C 6.0847835350668 7.68258785191472  6.12340628711752 7.92443223931261  6.1236300632195 7.84963275697465  C 6.1237195736603 7.83051490399915  6.11682744736064 7.78355625331495  6.10832417492469 7.74532056433648  C 6.09986565770913 7.70708487535802  6.09234697922292 7.6444975495916  6.09167566136646 7.60626186061314  C 6.0910043539595 7.56802617163467  6.08648419164389 7.51721485944627  6.08160600846411 7.49329938262438  Z M 5.74514504954807 7.50100467168771  C 5.73650752190043 7.48239567200594  5.72930211950749 7.475489975602  5.7291230986259 7.48552140023337  C 5.72894407774431 7.49555282486475  5.73319571918704 7.51118148297444  5.73856619934169 7.52026789434603  C 5.74393667949635 7.52935430571762  5.75051552970272 7.55632285138432  5.75315602500915 7.58023832820622  L 5.75794470819765 7.62363510766946  L 5.75942158867275 7.57922065556381  C 5.7602271617409 7.55472364909303  5.75382733241611 7.51954099501432  5.74514504954807 7.50100467168771  Z M 5.76859616851566 7.67975289699799  C 5.76622420453161 7.64893172377215  5.76434453752243 7.67844445104488  5.76438929274283 7.74532056433648  C 5.76443404796323 7.81226937095577  5.76635847019281 7.83749329373078  5.76868567895646 7.80143835366501  C 5.77100968819978 7.76096205274206  5.77097971885412 7.72022006241625  5.76859616851566 7.67975289699799  Z M 6.12618103763564 7.88437926805983  L 6.12559924066948 7.91912576217249  C 6.1252859645762 7.93824361514798  6.12967186123061 7.96564826986316  6.13540037269894 7.97996849899226  C 6.14913987007786 8.01449693009441  6.14913987007786 7.97110015063117  6.13540037269894 7.91912576217249  L 6.12618103763564 7.88437926805983  Z M 5.80399662829378 8.04691730561155  C 5.79652270502797 7.96361292457834  5.79549335585783 7.96092333934444  5.794329751476 8.02074838654927  C 5.79356893362825 8.05760293624695  5.79992400773264 8.11233958629469  5.8084272801686 8.1424338432163  C 5.81688579738415 8.1725281001379  5.82588135634547 8.21672448923306  5.82834283077031 8.24063996605495  C 5.83232594089066 8.27887565503342  5.83304200351801 8.27771259573566  5.83433987356103 8.23111737774478  C 5.83510069140878 8.20196811711043  5.83049102910188 8.16947504826562  5.82404644455669 8.15900748064071  C 5.81760186001151 8.14853991301581  5.80856154582979 8.09809206746579  5.80399662829378 8.04691730561155  Z M 6.14752872394156 8.05818446589583  L 6.15339150107109 8.17114696085712  C 6.15656903812328 8.23329812665748  6.16538558665251 8.31536675506524  6.17294902035913 8.35360244404371  C 6.18055720928614 8.39183813302217  6.18977654434944 8.45835079664793  6.19349113359691 8.50138410947279  C 6.19716096762397 8.54434474594251  6.20530619829674 8.59130341359924  6.21152701718944 8.60562362575581  C 6.22029881049828 8.62583184470139  6.22132814921891 8.62183381351438  6.21613667949635 8.58825036172696  C 6.21121250089234 8.55376120387599  6.20715146556346 8.51896188092095  6.20396358348283 8.48393816908879  C 6.20092031209183 8.45050010395672  6.19165622180813 8.38406015063117  6.18337671502466 8.33622918001485  C 6.17331762728031 8.27601730347168  6.16482177255677 8.21514504211897  6.1579116633867 8.15377369682826  L 6.14752872394156 8.05818446589583  Z M 5.85255476758565 8.3240170234433  C 5.84333543252235 8.30257305187228  5.83577199881573 8.29414084650472  5.83577199881573 8.30526263710619  C 5.83623184373103 8.31769963426201  5.84017301543418 8.32910968326378  5.84646822480365 8.33622918001485  C 5.85237575715357 8.34211718680386  5.85774624775772 8.36414268802376  5.85841755516468 8.38507782327358  C 5.85935739389402 8.41393632756975  5.86083427436912 8.41589899649942  5.86450409794669 8.39307388564761  C 5.86718933802401 8.37650024822319  5.86181885786936 8.34546099501432  5.85255476758565 8.3240170234433  Z M 5.88025751754647 8.48830058343057  L 5.87148573468714 8.5535038676143  C 5.87148573468714 8.62517762172484  5.87336540169632 8.65454494536968  5.87569261045996 8.61863539195927  L 5.87797506400322 8.582798514904  L 5.88025751754647 8.48830058343057  Z " fill-rule="nonzero" fill="#e49fa1" stroke="none" transform="matrix(1 0 0 1 129 15 )" />
  </g>
</svg>