<?xml version="1.0" encoding="utf-8"?>
<svg version="1.1" xmlns:xlink="http://www.w3.org/1999/xlink" width="20px" height="20px" xmlns="http://www.w3.org/2000/svg">
  <g transform="matrix(1 0 0 1 -18 -14 )">
    <path d="M 0 10  C 0 15.5228318554688  4.47716814453125 20  10 20  C 15.5228318554688 20  20 15.5228318554688  20 10  C 20 4.47716814453125  15.5228318554688 0  10 0  C 4.47716814453125 0  0 4.47716814453125  0 10  Z M 12.8714336328125 16.0673274414062  C 12.3974012262296 15.5874559037182  11.923690202031 15.1072670004627  11.4503008789062 14.6267610546875  C 11.3155044140625 14.5170265429688  11.2288495507813 14.346230078125  11.2288495507813 14.1543716796875  C 11.2288495507813 13.823256640625  11.48690265625 13.5548318554687  11.8052035351563 13.5548318554687  C 11.9508318554688 13.5548318554687  12.0838230078125 13.6110088476563  12.1852743359375 13.703646015625  L 12.1886725585937 13.6998230078125  L 13.3124955664063 14.8686725585937  L 15.5704778710937 12.5393274414063  L 15.5727787695312 12.5416991210937  C 15.67773453125 12.4271504492187  15.8258761132812 12.3557522265625  15.9900176953125 12.3557522070312  C 16.3083185742187 12.3557522070312  16.5663716796875 12.6241769921875  16.5663716796875 12.95529203125  C 16.5663716796875 13.1481415820313  16.4788318554687 13.3197522070313  16.3428318554687 13.4294159375  C 16.3257345117188 13.4474336328125  16.31168140625 13.4620177148437  16.3006371679687 13.4732035351563  C 15.4477168164062 14.3376637109375  14.594867265625 15.2021238867188  13.7416991210937 16.0663362890625  C 13.456743359375 16.3550796484375  13.15631859375 16.3555398242188  12.8714336328125 16.0673274414062  Z M 14.1445663671875 11.902159296875  L 14.1412035351563 11.905132734375  C 14.2191456525736 12.0101630766536  14.2611411543828 12.1375274927675  14.2609557617187 12.26831859375  C 14.2609557617187 12.6063716992187  13.9860884960937 12.880353984375  13.6470088476563 12.880353984375  C 13.4906157764423 12.8806083715845  13.3400424466871 12.8210628880845  13.2261238867187 12.7139115039062  L 13.221840703125 12.709840703125  C 13.2024159152212 12.6912385453737  13.1842295472294 12.6713848960154  13.1673982226563 12.6504070703125  C 12.3529557421875 11.7776283007812  11.1907964453125 11.231646015625  9.900743359375 11.231646015625  C 7.4456637109375 11.231646015625  5.453840703125 13.2089203515625  5.440353984375 15.6531681445313  C 5.44021240234375 15.6573451367187  5.440283203125 15.6614867382812  5.44028318359375 15.6656637109375  C 5.44028318359375 16.00368140625  5.16541591796875 16.2776991015625  4.8263362890625 16.2776991210938  C 4.48725666015625 16.277699140625  4.212389375 16.00368140625  4.212389375 15.6656637109375  C 4.212389375 15.66148671875  4.212424765625 15.6573451171875  4.2125309765625 15.6531681445313  C 4.2226902734375 13.2884247851563  5.6849203515625 11.2654159375  7.75631859375 10.424389375  C 6.69695576171875 9.736035390625  6.0166371875 8.55430087890625  6.01663716796875 7.20916814453125  C 6.01663716796875 5.0882123828125  7.71738052734375 3.36283185546875  9.902548671875 3.36283185546875  C 12.0933451367187 3.36283185546875  13.7884955664062 5.0881769921875  13.7884955664062 7.20920353515625  C 13.7884955664062 8.55575220703125  13.1066902539063 9.73861947265625  12.0506902734375 10.4266194726562  C 12.8580531054688 10.7554336328125  13.572672578125 11.2638938085937  14.1445663671875 11.902159296875  Z M 9.9132743359375 9.745132734375  C 11.3881416015625 9.745132734375  12.5820531054687 8.585132734375  12.5820531054687 7.15104423828125  C 12.5820531054687 5.72187609375  11.3881416015625 4.56187609375  9.9133097265625 4.56187611328125  C 8.43851326171875 4.56187611328125  7.24453095703125 5.72187611328125  7.2445309765625 7.15104423828125  C 7.2445309765625 8.585168125  8.43851328125 9.745132734375  9.9133097265625 9.745132734375  Z " fill-rule="nonzero" fill="#ed6b75" stroke="none" transform="matrix(1 0 0 1 18 14 )" />
  </g>
</svg>