<?xml version="1.0" encoding="utf-8"?>
<svg version="1.1" xmlns:xlink="http://www.w3.org/1999/xlink" width="29px" height="33px" xmlns="http://www.w3.org/2000/svg">
  <defs>
    <filter x="241px" y="-4px" width="29px" height="33px" filterUnits="userSpaceOnUse" id="filter1">
      <feOffset dx="1" dy="1" in="SourceAlpha" result="shadowOffsetInner" />
      <feGaussianBlur stdDeviation="2.5" in="shadowOffsetInner" result="shadowGaussian" />
      <feComposite in2="shadowGaussian" operator="atop" in="SourceAlpha" result="shadowComposite" />
      <feColorMatrix type="matrix" values="0 0 0 0 0  0 0 0 0 0  0 0 0 0 0  0 0 0 0.698039215686274 0  " in="shadowComposite" />
    </filter>
    <g id="widget2">
      <path d="M 254.5 22.0968635743416  C 250.9 16.6942237380563  245.5 13.4526398362852  245.5 8.05  C 245.5 5.24571428571429  247.3 0.5  254.5 0.5  C 261.7 0.5  263.5 5.24571428571429  263.5 8.05  C 263.5 13.4526398362852  258.1 16.6942237380563  254.5 22.0968635743416  Z " fill-rule="nonzero" fill="#d9001b" stroke="none" />
      <path d="M 254.5 23  C 250.7 17.25  245 13.8  245 8.05  C 245 5.06  246.9 0  254.5 0  C 262.1 0  264 5.06  264 8.05  C 264 13.8  258.3 17.25  254.5 23  Z M 254.5 21.1937271486831  C 257.9 16.1384474761127  263 13.1052796725704  263 8.05  C 263 5.43142857142857  261.3 0.999999999999999  254.5 0.999999999999999  C 247.7 0.999999999999999  246 5.43142857142857  246 8.05  C 246 13.1052796725704  251.1 16.1384474761127  254.5 21.1937271486831  Z " fill-rule="nonzero" fill="#ffffff" stroke="none" />
    </g>
  </defs>
  <g transform="matrix(1 0 0 1 -241 4 )">
    <use xlink:href="#widget2" filter="url(#filter1)" />
    <use xlink:href="#widget2" />
  </g>
</svg>