<?xml version="1.0" encoding="utf-8"?>
<svg version="1.1" xmlns:xlink="http://www.w3.org/1999/xlink" width="5px" height="6px" xmlns="http://www.w3.org/2000/svg">
  <g transform="matrix(1 0 0 1 -44 -368 )">
    <path d="M 3.20214578125 5.90858712890625  C 3.10954999023437 5.9232528515625  3.01328778320312 5.9147696484375  2.9206919921875 5.92943540039062  C 2.4467137890625 5.93331720703125  1.96655306640625 5.74834104492187  1.57647203125 5.38299005859375  C 1.13276025390625 4.97867408203125  0.825426044921873 4.38665044921875  0.719099511718749 3.71533104492188  C 0.499113554687497 2.32639432617188  1.245416171875 1.04543868164063  2.40286342773437 0.862117031250001  C 3.56031068359375 0.678795380859375  4.66592374023437 1.66643639648438  4.88590969726562 3.05537314453125  C 4.99223625976562 3.726692578125  4.87922297851562 4.36156303710938  4.5858349609375 4.90635380859375  C 4.26929798828125 5.45481102539062  3.78086942382812 5.81692631835937  3.20214578125 5.90858712890625  Z M 4.19144133789062 3.16536612304688  C 4.03011830078125 2.14681250976563  3.27677163085937 1.43559310546875  2.51285640625 1.556585390625  C 1.7489412109375 1.67757767578125  1.25224483398437 2.586784453125  1.41356787109375 3.60533803710937  C 1.49422940429687 4.11461484375  1.72960067382812 4.5519287109375  2.06238452148437 4.85516572265625  C 2.36835296875 5.1389201953125  2.74491862304687 5.2691152734375  3.09215280273437 5.21411876953125  C 3.43938698242187 5.159122265625  3.75728971679687 4.91893420898437  3.960598046875 4.55451823242188  C 4.18338888671875 4.16328685546875  4.27210287109374 3.6746429296875  4.19144133789062 3.16536612304688  Z " fill-rule="nonzero" fill="#333333" stroke="none" transform="matrix(1 0 0 1 44 368 )" />
  </g>
</svg>