<?xml version="1.0" encoding="utf-8"?>
<svg version="1.1" xmlns:xlink="http://www.w3.org/1999/xlink" width="17px" height="15px" xmlns="http://www.w3.org/2000/svg">
  <g transform="matrix(1 0 0 1 -31 -364 )">
    <path d="M 0.479140625 4.8765625  C 0.293984375000001 4.905859375  0.157578125000001 5.09359375  0.186875000000001 5.27875  L 1.616796875 14.306875  C 1.64609375 14.49203125  1.833828125 14.6284375  2.01921875 14.599140625  L 10.769375 13.21328125  C 10.908359375 13.19125  11.0740625 13.188671875  11.200625 13.239765625  L 16.329921875 14.610625  C 16.37984375 14.626328125  16.426015625 14.6190625  16.472421875 14.611796875  C 16.657578125 14.582265625  16.793984375 14.394765625  16.7646875 14.209375  L 14.6234375 0.690625000000001  C 14.616171875 0.64421875  14.60890625 0.5978125  14.5784375 0.55515625  C 14.47953125 0.381015625000001  14.26015625 0.344687500000001  14.08625 0.443359375  L 9.63125 3.33203125  C 9.50328125 3.4234375  9.368046875 3.468671875  9.229296875 3.490703125  L 0.47890625 4.8765625  Z " fill-rule="nonzero" fill="#ffb900" stroke="none" transform="matrix(1 0 0 1 31 364 )" />
  </g>
</svg>