<?xml version="1.0" encoding="utf-8"?>
<svg version="1.1" xmlns:xlink="http://www.w3.org/1999/xlink" width="19px" height="15px" xmlns="http://www.w3.org/2000/svg">
  <g transform="matrix(1 0 0 1 -30 -364 )">
    <path d="M 17.434921875 14.9734375  C 17.3653125 14.9846875  17.315390625 14.96875  17.26546875 14.953046875  L 12.13640625 13.5821875  C 12.0434762631409 13.5512074855261  11.9445589930221 13.5425361663923  11.84765625 13.556875  L 3.097265625 14.942734375  C 2.912109375 14.97203125  2.7159375 14.931953125  2.578125 14.811484375  C 2.41734375 14.694296875  2.3221875 14.543359375  2.292890625 14.358203125  L 0.862968750000002 5.330078125  C 0.833437500000002 5.144921875  0.873750000000002 4.94875  0.994218750000003 4.8109375  C 1.111171875 4.65015625  1.262109375 4.555  1.447265625 4.525703125  L 10.19765625 3.13984375  C 10.2942321293364 3.12348432871966  10.3856018288621 3.08462410501982  10.464375 3.02640625  L 14.895703125 0.141249999999999  C 15.046875 0.0460937499999989  15.23203125 0.0170312499999978  15.4246875 0.0339062499999976  C 15.6079635065527 0.077859818875778  15.7687954306323 0.187415624080836  15.876796875 0.341874999999999  C 15.937734375 0.427187499999999  15.97546875 0.516015624999999  15.990234375 0.608593749999998  L 18.131484375 14.127578125  C 18.193828125 14.521328125  17.94046875 14.86984375  17.546953125 14.9321875  C 17.504296875 14.96265625  17.457890625 14.969921875  17.434921875 14.973671875  Z M 11.949609375 12.85234375  C 12.069140625 12.857265625  12.1884375 12.8621875  12.311484375 12.88984375  L 17.440546875 14.2609375  L 15.299296875 0.741718749999998  L 10.821796875 3.634375  C 10.64765625 3.733046875  10.469765625 3.80875  10.284609375 3.83828125  L 1.53421875 5.224140625  L 2.96390625 14.252265625  L 11.714296875 12.866171875  C 11.78390625 12.85515625  11.85328125 12.844140625  11.949609375 12.852578125  Z " fill-rule="nonzero" fill="#333333" stroke="none" transform="matrix(1 0 0 1 30 364 )" />
  </g>
</svg>