<?xml version="1.0" encoding="utf-8"?>
<svg version="1.1" xmlns:xlink="http://www.w3.org/1999/xlink" width="12px" height="10px" xmlns="http://www.w3.org/2000/svg">
  <g transform="matrix(1 0 0 1 -344 -370 )">
    <path d="M 11.7938144329897 4.76953907815631  C 11.9312714776632 4.83633934535738  12 4.91315965263861  12 5  C 12 5.08684034736139  11.9312714776632 5.16366065464262  11.7938144329897 5.23046092184369  L 2.18556701030928 9.8997995991984  C 2.04810996563574 9.96659986639947  1.89003436426117 10  1.71134020618557 10  C 1.53264604810997 10  1.3745704467354 9.96659986639947  1.23711340206186 9.8997995991984  L 0.206185567010309 9.39879759519038  C 0.0687285223367698 9.33199732798931  0 9.25517702070808  0 9.16833667334669  C 0 9.0814963259853  0.0687285223367698 9.00467601870407  0.206185567010309 8.93787575150301  L 8.30927835051546 5  L 0.206185567010309 1.06212424849699  C 0.0687285223367698 0.995323981295925  0 0.918503674014696  0 0.831663326653307  C 0 0.744822979291916  0.0687285223367698 0.668002672010687  0.206185567010309 0.601202404809619  L 1.23711340206186 0.100200400801603  C 1.3745704467354 0.0334001336005341  1.53264604810997 0  1.71134020618557 0  C 1.89003436426117 0  2.04810996563574 0.0334001336005341  2.18556701030928 0.100200400801603  L 11.7938144329897 4.76953907815631  Z " fill-rule="nonzero" fill="#aaaaaa" stroke="none" transform="matrix(1 0 0 1 344 370 )" />
  </g>
</svg>