<?xml version="1.0" encoding="utf-8"?>
<svg version="1.1" xmlns:xlink="http://www.w3.org/1999/xlink" width="32px" height="25px" xmlns="http://www.w3.org/2000/svg">
  <g transform="matrix(1 0 0 1 -308 -298 )">
    <path d="M 1.89689998925781 13.0743  L 0.884900010742188 9.2958  C 0.859968032239279 9.20285449440146  0.847340349740059 9.10703918930183  0.847340349740059 9.01080785052366  C 0.847340349740059 8.51295677355486  1.18171755517715 8.07717118452302  1.66259998925781 7.94830001074219  L 26.1376 0.584899989257813  C 26.2305455030903 0.559968012183297  26.3263608054336 0.547340330416962  26.4225921414192 0.547340330416962  C 26.9204432299588 0.547340330416962  27.3562288260891 0.881717551096241  27.4850999892578 1.3626  C 29.1274 7.49179998925781  30.0062999892578 10.7686999892578  31.4704 16.2379000107422  C 31.4953319770745 16.3308455138325  31.5079596588409 16.4266608161758  31.5079596588409 16.5228921521614  C 31.5079596588409 17.020743240701  31.1735824381616 17.4565288368313  30.6926999892578 17.5854  L 6.21770001074219 24.9487999892578  C 6.12475449578427 24.9737319730908  6.02893918039946 24.9863596583247  5.93270783120057 24.9863596583247  C 5.43485675112796 24.9863596583247  4.99907116019202 24.651982448799  4.87019998925781 24.1711000107422  L 3.85820001074219 20.3914999892578  C 5.31680001074219 19.5510999785156  6.08130002148438 17.7613999892578  5.60939998925781 16.0014  C 5.13859997851563 14.2414000107422  3.58099997851562 13.0720999892578  1.89689998925781 13.0743  Z " fill-rule="nonzero" fill="#ffaa44" stroke="none" transform="matrix(1 0 0 1 308 298 )" />
  </g>
</svg>