<?xml version="1.0" encoding="utf-8"?>
<svg version="1.1" xmlns:xlink="http://www.w3.org/1999/xlink" width="32px" height="21px" xmlns="http://www.w3.org/2000/svg">
  <g transform="matrix(1 0 0 1 -308 -304 )">
    <path d="M 0.599999989257813 6.53860001074219  L 0.599999989257813 1.99999998925781  C 0.599999989257813 1.39248677037669  1.0924867596345 0.900000000000002  1.69999997851563 0.900000000000002  C 1.69999997851563 0.900000000000002  1.70000001074219 0.900000000000002  1.70000001074219 1  L 30.2999999892578 1  C 30.3000000114899 0.900000000000002  30.2999999992523 0.900000000000002  30.3000000214844 0.900000000000002  C 30.9075132403655 0.900000000000002  31.4000000107422 1.39248677037669  31.4000000107422 1.99999998925781  L 31.4000000107422 6.53860001074219  C 29.4582649347275 7.04185514634793  28.1022614050668 8.79410846830157  28.1022614050668 10.8  C 28.1022614050668 12.8058915316984  29.4582649347275 14.5581448536521  31.4000000107422 15.0613999892578  L 31.4000000107422 19.6000000107422  C 31.4000000107422 20.2075132296233  30.9075132403655 20.7  30.3000000214844 20.7  L 1.70000001074219 20.7  C 1.0924867596345 20.7  0.599999989257813 20.2075132296233  0.599999989257813 19.6000000107422  L 0.599999989257813 15.0613999892578  C 2.54173506527253 14.5581448536521  3.89773859493317 12.8058915316984  3.89773859493317 10.8  C 3.89773859493317 8.79410846830157  2.54173506527253 7.04185514634793  0.599999989257813 6.53860001074219  Z " fill-rule="nonzero" fill="#11aa66" stroke="none" transform="matrix(1 0 0 1 308 304 )" />
  </g>
</svg>