<?xml version="1.0" encoding="utf-8"?>
<svg version="1.1" xmlns:xlink="http://www.w3.org/1999/xlink" width="22px" height="27px" xmlns="http://www.w3.org/2000/svg">
  <g transform="matrix(1 0 0 1 -228 -298 )">
    <path d="M 8.37274998828125 20.7592499896356  C 8.36974998535157 20.7622499925646  5.54599999121094 24.0404999947829  8.36974998535156 27  C 8.36974998535156 27  -3.24999999414063 24.7499999946289  2.00000000878906 10.5000000035807  C 2.00000000878906 10.5000000035807  5.00000000585937 12.0000000179036  4.37075001171875 15.7500000053711  C 4.37075001171875 15.7500000053711  4.33850002050781 11.3250000034017  6.60499999414063 8.24999999820963  C 8.8715 5.17499999301758  9.32749999414062 1.72049998790788  7.73075000585938 0  C 7.73075000585938 0  15.4062500087891 3.3937500021932  16.2867500146484 11.9999999856771  C 16.2867500146484 11.9999999856771  17.5325000146484 7.58475000128369  19.6092499882813 7.31325001013167  C 19.6092499882813 7.31325001013167  18.9717499941406 8.8207500156639  19.6092499882813 11.0805000063844  C 19.6092499882813 11.0805000063844  26.1612499736328 22.6965000038636  14.8700000087891 26.6235000030114  C 14.8700000087891 26.6235000030114  18.2547500029297 22.6425000155941  11.0764999941406 15.8114999848499  C 11.0764999941406 15.8114999848499  9.38449998535157 19.4692499869858  8.37274998828125 20.7592499896356  Z " fill-rule="nonzero" fill="#d81e06" stroke="none" transform="matrix(1 0 0 1 228 298 )" />
  </g>
</svg>