<?xml version="1.0" encoding="utf-8"?>
<svg version="1.1" xmlns:xlink="http://www.w3.org/1999/xlink" width="14px" height="14px" xmlns="http://www.w3.org/2000/svg">
  <g transform="matrix(1 0 0 1 -142 -304 )">
    <path d="M 1.8606298828125 0.794296874999999  L 4.9945341796875 0.794296875000001  C 5.7329736328125 0.794296875000001  6.7638369140625 1.221041015625  7.2859716796875 1.7437236328125  L 12.6304248046875 7.0877255859375  C 13.1524951171875 7.6097958984375  13.1524951171875 8.4639931640625  12.6304248046875 8.98667578125  L 8.7103857421875 12.906134765625  C 8.187703125 13.428849609375  7.3341826171875 13.428849609375  6.8126279296875 12.906134765625  L 1.468658203125 7.562197265625  C 0.945492187500001 7.0400302734375  0.518071289062501 6.0080068359375  0.518071289062501 5.2706953125  L 0.518071289062501 2.136275390625  C 0.518071289062501 1.3978037109375  1.121642578125 0.794296874999999  1.8606298828125 0.794296874999999  Z M 4.9422626953125 3.89719921875  C 4.9422626953125 3.16771875  4.350486328125 2.57591015625  3.6209736328125 2.57591015625  C 2.891525390625 2.57591015625  2.2996845703125 3.167654296875  2.2996845703125 3.89719921875  C 2.2996845703125 4.626615234375  2.891525390625 5.21848828125  3.6209736328125 5.21848828125  C 4.350486328125 5.21848828125  4.9422626953125 4.626615234375  4.9422626953125 3.89719921875  Z " fill-rule="nonzero" fill="#ffffff" stroke="none" transform="matrix(1 0 0 1 142 304 )" />
  </g>
</svg>