<?xml version="1.0" encoding="utf-8"?>
<svg version="1.1" xmlns:xlink="http://www.w3.org/1999/xlink" width="28px" height="18px" xmlns="http://www.w3.org/2000/svg">
  <g transform="matrix(1 0 0 1 -37 -302 )">
    <path d="M 5.6336 3.8304  L 20.7616 1.0272  C 21.077884369999 0.968630312442343  21.3988696203128 0.939160724874744  21.7205312608705 0.939160724874744  C 24.3948042078083 0.939160724874744  26.6444968357397 2.94346511434664  26.952 5.6  L 27.0976 6.8536  C 27.4026770208295 9.49071017810099  26.0480623273436 12.0423892189084  23.6928 13.2672  C 18.768 15.8272  15.6104 17.272  14.216 17.6  C 13.0304 17.8792  10.5016 17.9672  6.6304 17.864  C 3.16342581032747 17.7720929458577  0.400516114257885 14.935392133098  0.4 11.4672  L 0.4 10.1232  C 0.400392425660516 7.03872946778946  2.60078745781783 4.39334473408153  5.6336 3.8312  Z " fill-rule="nonzero" fill="#ffe7b2" stroke="none" transform="matrix(1 0 0 1 37 302 )" />
  </g>
</svg>