<?xml version="1.0" encoding="utf-8"?>
<svg version="1.1" xmlns:xlink="http://www.w3.org/1999/xlink" width="24px" height="23px" xmlns="http://www.w3.org/2000/svg">
  <g transform="matrix(1 0 0 1 -39 -298 )">
    <path d="M 9.6856 2.544  C 9.6856 1.1416  10.7648 0  12.0888 0  C 13.4152 0  14.492 1.1416  14.492 2.544  C 14.492 2.7824  14.46 3.0144  14.4016 3.2336  C 14.4824139538391 3.26408814230413  14.5544227734098 3.31410953605172  14.6112 3.3792  L 19.8024 9.2512  L 21.7736 9.2512  C 22.5592 9.2512  23.2 9.9192  23 10.7376  L 23 20.9144  C 23.2 21.7328  22.5616 22.4  21.7736 22  L 2.2264 22  C 1.4408 22.4  0.8 21.7328  1 20.9144  L 1 10.7376  C 0.8 9.9192  1.4408 9.252  2.2264 9.252  L 4.9816 9.2512  L 10.0832 3.944  C 9.82195405007816 3.52387379129158  9.68417196921263 3.03872561922984  9.6856 2.544  Z M 5.3536 10.3728  C 5.24843345230101 10.4094409359543  5.13396654769899 10.4094409359543  5.0288 10.3728  L 2.2264 10.3728  C 2.02926739943164 10.3776060766778  1.87286717283775 10.5404337098441  2 10.7376  L 2 20.9144  C 1.876 21.1144  2.0344 21.2792  2.2264 21  L 21.7736 21  C 21.9656 21.2792  22.124 21.1152  22 20.9144  L 22 10.7376  C 22.1271328271623 10.5404337098441  21.9707326005684 10.3776060766778  21.7736 10.3728  L 19.7392 10.3728  C 19.634033452301 10.4094409359543  19.519566547699 10.4094409359543  19.4144 10.3728  L 5.3536 10.3728  Z M 4.7488 13.2592  L 7.2912 16.9672  L 7.3192 16.9672  L 7.3192 13.2592  L 8.1696 13.2592  L 8.1696 18.4  L 7.348 18.4  L 4.7776 14.6416  L 4.7496 14.6416  L 4.7496 18.4  L 3.9072 18.4  L 3.9072 13.2592  L 4.7496 13.2592  Z M 9.0576 13.2592  L 12.7648 13.2592  L 12.7648 13.9792  L 9.9 13.9792  L 9.9 15.4048  L 12.5928 15.4048  L 12.5928 16.1248  L 9.90000000000001 16.1248  L 9.90000000000001 17.68  L 12.888 17.68  L 12.888 18.4  L 9.0576 18.4  L 9.0576 13.2592  Z M 14.0416 13.2592  L 15.0072 17.1688  L 15.0352 17.1688  L 16.0512 13.2592  L 16.9216 13.2592  L 17.9376 17.1688  L 17.9656 17.1688  L 18.9304 13.2592  L 19.8816 13.2592  L 18.3976 18.4  L 17.5048 18.4  L 16.5048 14.5336  L 16.4752 14.5336  L 15.4672 18.4  L 14.568 18.4  L 13.092 13.2592  L 14.0424 13.2592  Z M 18.3344 9.2512  L 13.8912 4.2248  C 13.4512 4.7528  12.8064 5.0872  12.0888 5.0872  C 11.6531908758063 5.08709234966391  11.2266453471773 4.96276417996592  10.8592 4.7288  L 6.5096 9.2512  L 18.3344 9.2512  Z M 13.4144 2.5464  C 13.4144 1.7624  12.8216 1.1232  12.088 1.1232  C 11.3568 1.1232  10.7616 1.7616  10.7616 2.5464  C 10.7616 2.9496  10.9192 3.3144  11.172 3.5736  C 11.4105638564532 3.82487958440774  11.7415135578024 3.96766487040468  12.088 3.9688  C 12.8192 3.9688  13.4144 3.3304  13.4144 2.5464  Z " fill-rule="nonzero" fill="#333333" stroke="none" transform="matrix(1 0 0 1 39 298 )" />
  </g>
</svg>