<?xml version="1.0" encoding="utf-8"?>
<svg version="1.1" xmlns:xlink="http://www.w3.org/1999/xlink" width="26px" height="26px" xmlns="http://www.w3.org/2000/svg">
  <g transform="matrix(1 0 0 1 -29 -702 )">
    <path d="M 25.676015625 14.03466796875  L 13.01625 0.491943359375  L 0.3534375 14.03466796875  L 4.975546875 14.03466796875  L 4.975546875 22.899169921875  C 4.975546875 24.162353515625  5.968828125 25.197021484375  7.181484375 25.197021484375  L 10.673203125 25.197021484375  L 10.673203125 20.1728515625  C 10.673203125 19.991943359375  10.81640625 19.845947265625  10.98703125 19.845947265625  L 15.042421875 19.845947265625  C 15.21609375 19.845947265625  15.35625 19.9951171875  15.35625 20.1728515625  L 15.35625 25.197021484375  L 18.84796875 25.197021484375  C 20.060625 25.197021484375  21.05390625 24.162353515625  21.05390625 22.899169921875  L 21.05390625 14.03466796875  L 25.676015625 14.03466796875  Z " fill-rule="nonzero" fill="#ffe4b3" stroke="none" transform="matrix(1 0 0 1 29 702 )" />
  </g>
</svg>