<?xml version="1.0" encoding="utf-8"?>
<svg version="1.1" xmlns:xlink="http://www.w3.org/1999/xlink" width="28px" height="27px" xmlns="http://www.w3.org/2000/svg">
  <g transform="matrix(1 0 0 1 -27 -700 )">
    <path d="M 22.5545428240741 23.922421875  C 22.5545428240741 25.479140625  21.3392650462963 26.744765625  19.8444733796296 26.744765625  L 16.3627025462963 26.744765625  C 16.080150462963 26.744765625  15.8492476851852 26.504296875  15.8492476851852 26.2100390625  L 15.8492476851852 21.41015625  L 12.2034143518519 21.41015625  L 12.2034143518519 26.2100390625  C 12.2034143518519 26.504296875  11.9725115740741 26.744765625  11.6899594907407 26.744765625  L 8.21122685185185 26.744765625  C 6.71643518518519 26.744765625  5.50115740740741 25.479140625  5.50115740740741 23.922421875  L 5.50115740740741 15.619921875  L 1.40263310185185 15.619921875  C 1.19603587962963 15.619921875  1.01070601851852 15.4901953125  0.931712962962963 15.2940234375  C 0.852719907407407 15.0978515625  0.892216435185185 14.866875  1.03804976851852 14.715  L 13.6617476851852 1.21078125  C 13.7589699074074 1.1063671875  13.8896122685185 1.0494140625  14.029369212963 1.0494140625  C 14.1691261574074 1.0494140625  14.2997685185185 1.1063671875  14.3969907407407 1.21078125  L 27.0206886574074 14.715  C 27.1634837962963 14.8700390625  27.2060185185185 15.0978515625  27.127025462963 15.2940234375  C 27.0480324074074 15.4901953125  26.8596643518519 15.619921875  26.6561053240741 15.619921875  L 22.5545428240741 15.619921875  L 22.5545428240741 23.922421875  Z M 16.8761574074074 21.2044921875  L 16.8761574074074 25.6784765625  L 19.8444733796296 25.6784765625  C 20.7741608796296 25.6784765625  21.5306712962963 24.890625  21.5306712962963 23.922421875  L 21.5306712962963 15.0851953125  C 21.5306712962963 14.7909375  21.7615740740741 14.55046875  22.0441261574074 14.55046875  L 25.4377893518519 14.55046875  L 14.029369212963 2.3466796875  L 2.61791087962963 14.55046875  L 6.01157407407407 14.55046875  C 6.29412615740741 14.55046875  6.52502893518519 14.7909375  6.52502893518519 15.0851953125  L 6.52502893518519 23.922421875  C 6.52502893518519 24.890625  7.28153935185185 25.6784765625  8.21122685185185 25.6784765625  L 11.1795428240741 25.6784765625  L 11.1795428240741 21.2044921875  C 11.1795428240741 20.7298828125  11.5502025462963 20.3438671875  12.005931712963 20.3438671875  L 16.0497685185185 20.3438671875  C 16.5054976851852 20.3438671875  16.8761574074074 20.7298828125  16.8761574074074 21.2044921875  Z " fill-rule="nonzero" fill="#efa716" stroke="none" transform="matrix(1 0 0 1 27 700 )" />
  </g>
</svg>