<?xml version="1.0" encoding="utf-8"?>
<svg version="1.1" xmlns:xlink="http://www.w3.org/1999/xlink" width="22px" height="22px" xmlns="http://www.w3.org/2000/svg">
  <g transform="matrix(1 0 0 1 -99 -703 )">
    <path d="M 0.8 3.63335  C 0.799337105399744 2.06925523963312  2.0667052767843 0.800745416123  3.6308 0.8  L 7.3157 0.8  C 8.87979472321569 0.800745416122998  10.1471628946003 2.06925523963312  10.1465 3.63335  L 10.1465 10.15475  L 3.6308 10.15475  C 2.0667052767843 10.154004583877  0.799337105399744 8.88549476036688  0.8 7.3214  L 0.8 3.63335  Z M 21.3500003218902 18.3680002541009  C 21.3500003218902 19.9316021827127  20.0828017883177 21.1993376345317  18.5192 21.2  L 14.8343 21.2  C 13.2706982116823 21.1993376345317  12.0034996781098 19.9316021827127  12.0034996781098 18.3680002541009  C 12.0034996781098 18.3675501693835  12.0034997854065 18.3671000846662  12.0035 18.36665  L 12.0035 11.84525  L 18.5192 11.84525  C 20.0828017883177 11.8459123654683  21.3500003218902 13.1136478172873  21.3500003218902 14.6772497458991  C 21.3500003218902 14.677699830613  21.3500002145935 14.6781499153373  21.35 14.6786  L 21.35 18.36665  C 21.3500002145935 18.3671000846733  21.3500003218902 18.3675501693765  21.3500003218902 18.3680002541009  Z M 0.879049745668484 18.3678502541161  C 0.879049745668484 19.9315349990582  2.14631539536028 21.1993375972319  3.71 21.2  L 7.39415 21.2  C 8.95783460463971 21.1993375972319  10.2251002543315 19.9315349990582  10.2251002543315 18.3678502541161  C 10.2251002543315 18.3674501693937  10.2251001695543 18.3670500846865  10.2251 18.36665  L 10.2251 11.84525  L 3.71 11.84525  C 2.14631539536029 11.8459124027681  0.879049745668484 13.1137150009418  0.879049745668484 14.6773997458839  C 0.879049745668484 14.6777998306024  0.879049830445658 14.6781999153175  0.87905 14.6786  L 0.87905 18.36665  C 0.879049830445657 18.3670500846845  0.879049745668484 18.3674501693957  0.879049745668484 18.3678502541161  Z M 16.63745 10.3118  C 19.2412207992723 10.3106404507844  21.3510771893682 8.19897083464744  21.35 5.5952  C 21.347764605901 2.9941129455995  19.2385397552579 0.886700000000324  16.6374517403002 0.886700000000324  C 14.0347822424851 0.886700000000324  11.9249017403002 2.99658050218522  11.9249017403002 5.59925000000032  C 11.9249017403002 8.20191949781543  14.0347822424851 10.3118000000003  16.6374517403002 10.3118000000003  Z " fill-rule="nonzero" fill="#f19149" stroke="none" transform="matrix(1 0 0 1 99 703 )" />
  </g>
</svg>