<?xml version="1.0" encoding="utf-8"?>
<svg version="1.1" xmlns:xlink="http://www.w3.org/1999/xlink" width="24px" height="17px" xmlns="http://www.w3.org/2000/svg">
  <g transform="matrix(1 0 0 1 -174 -707 )">
    <path d="M 23.5607351953125 14.9388975368089  C 23.5607351953125 15.9088757988724  22.6587767530379 16.6951985434195  21.5461546289063 16.6951985434195  L 18.8107608544922 16.6951985434195  C 18.5989543969321 16.6951985434195  18.4272513006007 16.5455086645664  18.4272513006007 16.3608568411959  C 18.4272513006007 16.1762050178254  18.5989543969321 16.0265151389724  18.8107609002101 16.0265151389724  L 21.5461546289063 16.0265151389724  C 22.2359151859266 16.0265192329302  22.7957913465708 15.5402231592417  22.7983365820313 14.9388975368089  L 22.7983365820313 2.76966517052284  C 22.7958025861113 2.16768326389553  22.2366632865082 1.68022848988258  21.5461546289063 2  L 2.43536298339844 2  C 1.74485432579652 1.68022848988258  1.18571502619343 2.16768326389553  1.18318103027344 2.76966517052284  L 1.18318103027344 14.9388975368089  C 1.18572626573392 15.5402231592417  1.74560242637805 16.0265192329302  2.43536298339844 16  L 12.5175069433594 16  C 12.5175069433594 16.0265151389724  12.5175068976415 16.0265151389724  12.5175068976415 16.0265151389724  C 12.7293134009194 16.0265151389724  12.9010164972508 16.1762050178254  12.9010164972508 16.3608568411959  C 12.9010164972508 16.5455086645664  12.7293134009194 16.6951985434195  12.5175068976415 16.6951985434195  L 2.43536298339844 16.6951985434195  C 1.32274085926678 16.6951985434195  0.420782416992187 15.9088757988724  0.420782416992187 14.9388975368089  L 0.420782416992187 2.76966517052284  C 0.420782441262514 1.79968692342084  1.32274087642849 1.01336420222356  2.43536298339844 1  L 21.5461546289062 1  C 22.6587767358762 1.01336420222356  23.5607351710422 1.79968692342084  23.5607351953125 2.76966517052284  L 23.5607351953125 14.9388975368089  Z " fill-rule="nonzero" fill="#000000" stroke="none" transform="matrix(1 0 0 1 174 707 )" />
  </g>
</svg>