<?xml version="1.0" encoding="utf-8"?>
<svg version="1.1" xmlns:xlink="http://www.w3.org/1999/xlink" width="19px" height="18px" xmlns="http://www.w3.org/2000/svg">
  <g transform="matrix(1 0 0 1 -174 -711 )">
    <path d="M 18.4815057572115 16.7080809249442  C 18.433912642384 16.7293315188109  18.3817452729479 16.7414792892269  18.328433653095 16.7437255203683  C 18.2448735306548 16.7438056041749  18.1638167103813 16.718638907929  18.0988255183293 16.6724362918527  L 11.9579328305288 12.4901353878348  C 11.7957492546138 12.3793328277059  11.7655908927232 12.1741652638878  11.8904010186298 12.0307159612165  C 11.960283399181 11.9507855525443  12.0684071414765 11.9039457168839  12.183033839299 11.9039457168839  C 12.264462385932 11.9039457168839  12.3436063500578 11.9276288734219  12.4081448813101 11.9713082770647  L 17.9412512620192 15.7456764341518  L 17.9412512620192 12.2287416001674  C 17.9412512620192 12.0471931687863  18.108551714855 11.9000190862165  18.3149272821514 11.9000190862165  C 18.5213028494479 11.9000190862165  18.6886033022837 12.0471931687863  18.6886033022837 12.2287416001674  L 18.6886033022837 16.4150030064174  C 18.6891639594809 16.5395472614263  18.6087097646332 16.6534035022355  18.4815057572115 16.7080809249442  Z M 17.2209119636418 1.61060829659598  L 4.55644630634014 1.61060829659598  C 4.35007073904366 1.61060829659598  4.18277028620793 1.46343421402621  4.18277028620793 1.28188578264509  C 4.18277028620793 1.10033735126397  4.35007073904366 0.953163268694196  4.55644630634014 0.953163268694196  C 4.55644630634014 0.953163268694196  4.55644630634014 0.953163268694196  4.55644630634015 1  L 17.2209119636418 1  C 17.2209119636418 0.953163268694196  17.2209119636418 0.953163268694196  17.2209119636418 0.953163268694196  C 17.4272875309383 0.953163268694196  17.594587983774 1.10033735126397  17.594587983774 1.28188578264509  C 17.594587983774 1.46343421402621  17.4272875309383 1.61060829659598  17.2209119636418 1.61060829659598  Z M 13.0433792197395 4.96714241350446  C 13.0296968356201 4.96714241350446  13.0160247777845 4.96648133419969  13.0024248174579 4.9651621623884  L 4.55644630634014 4.9651621623884  C 4.36706810319003 4.94679281562041  4.22372468848954 4.80602543181086  4.22372468848954 4.63841989955357  C 4.22372468848954 4.47081436729628  4.36706810319003 4.33004698348673  4.55644630634015 4.31167763671875  L 13.0024248174579 4.31167763671875  C 13.0160247777845 4.31035846490745  13.0296968356201 4.30969738560268  13.0433792197395 4.30969738560268  C 13.249754787036 4.30969738560268  13.4170552398718 4.45687146817245  13.4170552398718 4.63841989955357  C 13.4170552398718 4.81996833093469  13.249754787036 4.96714241350446  13.0433792197395 4.96714241350446  Z M 10.1570845417668 16.6328311941964  L 5.65496377704327 16.6328311941964  C 5.44858820974678 16.6328311941964  5.28128775691106 16.4856571116267  5.28128775691106 16.3041086802455  C 5.28128775691106 16.1225602488644  5.44858820974678 15.9753861662946  5.65496377704327 15.9753861662946  L 10.1570845417668 15.9753861662946  C 10.3634601090633 15.9753861662946  10.530760561899 16.1225602488644  10.530760561899 16.3041086802455  C 10.530760561899 16.4856571116267  10.3634601090633 16.6328311941964  10.1570845417668 16.6328311941964  Z M 3.9306515617488 16.6328311941964  L 3.74156245417668 16.6328311941964  C 3.5351868868802 16.6328311941964  3.36788643404447 16.4856571116267  3.36788643404447 16.3041086802455  C 3.36788643404447 16.1225602488644  3.5351868868802 15.9753861662946  3.74156245417668 15.9753861662946  L 3.9306515617488 15.9753861662946  C 4.13702712904528 15.9753861662946  4.30432758188101 16.1225602488644  4.30432758188101 16.3041086802455  C 4.30432758188101 16.4856571116267  4.13702712904528 16.6328311941964  3.9306515617488 16.6328311941964  Z M 1.33743001051683 16.6328311941964  L 1.31942153019832 16.6328311941964  L 1.15284305513822 16.6328311941964  C 0.946467487841736 16.6328311941964  0.779167035006008 16.4856571116267  0.779167035006008 16.3041086802455  C 0.779167035006008 16.1225602488644  0.946467487841736 15.9753861662946  1.15284305513822 15.9753861662946  L 1.33743001051683 15.9753861662946  C 1.54380557781332 15.9753861662946  1.71110603064904 16.1225602488644  1.71110603064904 16.3041086802455  C 1.71110603064904 16.4856571116267  1.54380557781332 16.6328311941964  1.33743001051683 16.6328311941964  Z " fill-rule="nonzero" fill="#000000" stroke="none" transform="matrix(1 0 0 1 174 711 )" />
  </g>
</svg>