<?xml version="1.0" encoding="utf-8"?>
<svg version="1.1" xmlns:xlink="http://www.w3.org/1999/xlink" width="20px" height="18px" xmlns="http://www.w3.org/2000/svg">
  <g transform="matrix(1 0 0 1 -254 -703 )">
    <path d="M 19.1264444444444 16.873875  C 19.1264444444444 17.308575  18.7795555555556 17.66295  18.3502222222222 17.66295  L 7.494 17.66295  C 6.08155555555556 17.66295  4.89933333333333 16.637625  4.68155555555556 15.22485  L 2.84288888888889 3.313125  C 2.7736348972424 2.8503548186473  2.37960124103538 2.50906041503891  1.91733333333333 2.51145  L 1.23911111111111 2.51145  C 0.809777777777778 2.51145  0.461333333333335 2.15865  0.461333333333335 1.72395  C 0.461333333333335 1.28925  0.809777777777778 0.93645  1.23911111111111 0.93645  L 1.91733333333333 0.93645  C 3.15244444444445 0.93645  4.18844444444445 1.8342  4.37977777777778 3.069  L 6.21688888888889 14.980725  C 6.31190699578306 15.6188532577359  6.85508030661511 16.0896752211586  7.49244444444444 16  L 18.3486666666667 16  C 18.778 16.086375  19.1264444444444 16.439175  19.1264444444444 16.873875  Z " fill-rule="nonzero" fill="#ffffff" stroke="none" transform="matrix(1 0 0 1 254 703 )" />
  </g>
</svg>