<?xml version="1.0" encoding="utf-8"?>
<svg version="1.1" xmlns:xlink="http://www.w3.org/1999/xlink" width="16px" height="12px" xmlns="http://www.w3.org/2000/svg">
  <g transform="matrix(1 0 0 1 -260 -706 )">
    <path d="M 2.81622857142857 11.4453818181818  C 2.79862857142857 11.4484363636364  2.78102857142857 11.4484363636364  2.76502857142857 11.4484363636364  C 2.34582857142857 11.4484363636364  1.99382857142857 11.1368727272727  1.96662857142857 10.7321454545455  C 1.96556633049833 10.7161156896901  1.96503481247254 10.7000578956803  1.96503481247254 10.6839960940806  C 1.96503481247254 10.2807903420544  2.29380609173342 9.94723842135986  2.71542857142857 9.92269090909091  L 11.7426285714286 9.38203636363636  C 12.0141579305098 9.36634447560765  12.2384017257436 9.17382532703684  12.2834285714286 8.91774545454546  L 13.3218285714286 3.08814545454546  C 13.3618285714286 2.86516363636364  13.2578285714286 2.70785454545455  13.1922285714286 2.63301818181818  C 13.1266285714286 2.55818181818182  12.9810285714286 2.43447272727273  12.7442285714286 2.43447272727273  L 1.44822857142857 2.43447272727273  C 1.00662857142857 2.43447272727273  0.648228571428571 2.09236363636364  0.648228571428571 1.67083636363636  C 0.648228571428571 1.24930909090909  1.00662857142857 0.9072  1.44822857142857 1  L 12.7442285714286 1  C 13.3890285714286 0.9072  13.9986285714286 1.17752727272727  14.4146285714286 1.64792727272727  C 14.8306285714286 2.11832727272727  15.0082285714286 2.73687272727273  14.8994285714286 3.3432  L 13.8610285714286 9.1728  C 13.6938803497243 10.1285746249055  12.8567781446217 10.8471512204038  11.8434285714286 10.9047272727273  L 2.81622857142857 11.4453818181818  Z " fill-rule="nonzero" fill="#ffffff" stroke="none" transform="matrix(1 0 0 1 260 706 )" />
  </g>
</svg>