<?xml version="1.0" encoding="utf-8"?>
<svg version="1.1" xmlns:xlink="http://www.w3.org/1999/xlink" width="29px" height="29px" xmlns="http://www.w3.org/2000/svg">
  <g transform="matrix(1 0 0 1 -321 -700 )">
    <path d="M 27.887831798753 14.4908300753906  C 27.887831798753 6.51636361874999  21.6729132421875 0.0528135199218706  14.0051235723407 0.0528135199218752  C 6.33736736403245 0.0528135199218752  0.122415345928485 6.51636361875  0.122415378605769 14.4908300753906  C 0.122415378605769 22.4654357320312  6.33736739670974 28.9288466308594  14.0051235723407 28.928846596875  C 21.6728797479717 28.9288465628906  27.887831798753 22.4654356980469  27.887831798753 14.4908300753906  Z M 26.7308948257212 14.4908648753906  C 26.7309617487981 17.70209281875  25.6238099571815 20.6488703625  23.7867764952674 22.9447868367187  C 22.52933233436 22.3960175144531  19.5342577666767 21.3138935027344  17.6711941361178 20.7405928992188  C 17.5130391548978 20.6888511105469  17.48818000939 20.6817526921875  17.48818000939 19.9967913949219  C 17.48818000939 19.4316678738281  17.7119122536058 18.8629255945313  17.9299901513672 18.3811735617188  C 18.1661017923678 17.8571790527344  18.4463107741136 16.9770812074219  18.5468514562049 16.1875576347656  C 18.8280976476112 15.8480172632813  19.2122934577825 15.1782270667969  19.4574387011719 13.9022539710938  C 19.6732079815204 12.776565253125  19.5726673321064 12.3677458300781  19.4292002997296 11.9823442242188  C 19.4145123182091 11.9423983101563  19.398653346229 11.9024523621094  19.3884821822416 11.8625064480469  C 19.3342136448317 11.5992391464844  19.4076869486178 10.2281334878906  19.5930096600811 9.164764603125  C 19.7206176878005 8.43505553554688  19.5602544737831 6.882940565625  18.5954321529447 5.5999038515625  C 17.9852958657602 4.7892242578125  16.8171840132963 3.7927334625  14.6852535554387 3.654140559375  L 13.5158702952224 3.6553584234375  C 11.4201746315355 3.79276822851563  10.2530999560547 4.78922422382813  9.64306405348558 5.5999038515625  C 8.67603349984976 6.88297533164063  8.51556993389423 8.4350555015625  8.64431552321214 9.164764603125  C 8.82963823467548 10.228133521875  8.90414871544472 11.5992391464844  8.84988021071214 11.8578089578125  C 8.83867183706431 11.9024523621094  8.82281286508414 11.9423982761719  8.80695386042668 11.9823442242188  C 8.66465788386419 12.3677110640625  8.56297964017428 12.7765652871094  8.77988651479868 13.9022539710938  C 9.02620278132512 15.1782270667969  9.40809000676082 15.8480172292969  9.69047375976563 16.1875576347656  C 9.78984338604267 16.9770812074219  10.0700524004657 17.8571790527344  10.3073350319261 18.3811735617188  C 10.481315556265 18.7642786394531  10.5615138777043 19.28475875625  10.5615138777043 20.0214618421875  C 10.5615138777043 20.7053444414063  10.5377922937951 20.7147393878906  10.3886709149639 20.762862384375  C 8.47030153733474 21.3515776546875  5.42222983999399 22.4983180277344  4.28560176607572 23.0153185183594  C 2.41363834660457 20.7100418976563  1.27928539588341 17.7373760425781  1.2792854285607 14.4908648753906  C 1.2792854285607 7.19318259960938  6.98808795522837 1.256027971875  14.0050901108023 1.256027971875  C 21.0220922663762 1.256027971875  26.7308948257212 7.19318259960938  26.7308948257212 14.4908648753906  Z " fill-rule="nonzero" fill="#98c4d8" stroke="none" transform="matrix(1 0 0 1 321 700 )" />
  </g>
</svg>