<?xml version="1.0" encoding="utf-8"?>
<svg version="1.1" xmlns:xlink="http://www.w3.org/1999/xlink" width="28px" height="29px" xmlns="http://www.w3.org/2000/svg">
  <g transform="matrix(1 0 0 1 -320 -699 )">
    <path d="M 27.961572625 14.4476504234375  C 27.961572625 6.47318396679687  21.7209035640625 0.00963386796874932  14.021418709375 0.00963386796874984  C 6.3219002546875 0.00963386796874984  0.0812648265625 6.47318396679687  0.0812648265625 14.4476504234375  C 0.0812648265625 22.4222560800781  6.3219338875 28.8856669789062  14.021418709375 28.8856669789062  C 21.72090353125 28.8856669789062  27.961572625 22.4222560800781  27.961572625 14.4476504234375  Z M 26.7998819265625 14.4476504234375  C 26.7998819265625 17.6589131667969  25.68814885 20.6057255105469  23.8435138375 22.9016071847656  C 22.580900059375 22.3528378625  19.5733984796875 21.2707138507813  17.7026592203125 20.6974132472656  C 17.5438498046875 20.6456714585938  17.51888779375 20.6385730402344  17.51888779375 19.9536117429688  C 17.51888779375 19.388488221875  17.7435458265625 18.8197459425781  17.962526115625 18.3379939097656  C 18.1996147703125 17.8139994007812  18.4809832375 16.9339015554687  18.58193995 16.1443779828125  C 18.86434991875 15.8048376113281  19.2501355046875 15.1350474148438  19.4962951421875 13.859074353125  C 19.7129572609375 12.7333856351562  19.61200058125 12.3245662121094  19.467939925 11.9391645722656  C 19.453191165625 11.8992186582031  19.4372665703125 11.8592727101562  19.4270532859375 11.8193267960937  C 19.3725601890625 11.5560594945312  19.4463375203125 10.1849538359375  19.632427084375 9.12158495117188  C 19.7605631453125 8.39187588359375  19.599536359375 6.83976091367187  18.6307216703125 5.55672419960937  C 18.01806068125 4.74604460585937  16.8451152625 3.74955381054688  14.7043630234375 3.61096094140625  L 13.5301409359375 3.61217880546875  C 11.425773428125 3.74958861054687  10.253869478125 4.74604460585937  9.6413092890625 5.55672419960937  C 8.6702772296875 6.8397956796875  8.5091496765625 8.39187584960937  8.63842800625 9.12158495117188  C 8.8245175703125 10.1849538699219  8.8993363703125 11.5560594945312  8.84484330625 11.8146293058594  C 8.833588553125 11.8592727101562  8.8176639578125 11.8992186242187  8.8017393296875 11.9391645722656  C 8.6588545421875 12.3245314121094  8.5567555609375 12.7333856351562  8.77455998125 13.859074353125  C 9.0218954875 15.1350474488281  9.4053629359375 15.8048376113281  9.6889151734375 16.1443779828125  C 9.788695984375 16.9339015554687  10.070064484375 17.8139994007812  10.308328975 18.3379939097656  C 10.48302941875 18.7210989875  10.5635595953125 19.2415791042969  10.5635595953125 19.9782821902344  C 10.5635595953125 20.6621647894531  10.539739853125 20.6715597359375  10.390001453125 20.7196827664062  C 8.4636939953125 21.3083980367187  5.4030095875 22.4551384097656  4.261678225 22.9721388664062  C 2.38196875 20.6668622457031  1.242921925 17.694196390625  1.242921925 14.4476852234375  C 1.242921925 7.15000294765625  6.9753470828125 1.21284831992187  14.021385109375 1.21284831992187  C 21.0674231359375 1.21284831992187  26.7998819265625 7.14996814765625  26.7998819265625 14.4476504234375  Z " fill-rule="nonzero" fill="#efd9a0" stroke="none" transform="matrix(1 0 0 1 320 699 )" />
  </g>
</svg>